# Blender 4.1.1
# www.blender.org
mtllib glasses_8_temple_left.mtl
o Cube.003
v 0.081934 0.008547 -0.051945
v 0.082066 0.008516 -0.053074
v 0.080751 0.008587 -0.044762
v 0.081393 0.010850 -0.055994
v 0.082286 0.008564 -0.054163
v 0.081729 0.008590 -0.050372
v 0.082480 0.010151 -0.055722
v 0.082465 0.010427 -0.055664
v 0.079549 0.008587 -0.037350
v 0.078354 0.008584 -0.029375
v 0.076937 0.008418 -0.021150
v 0.075330 0.008412 -0.012012
v 0.074138 0.008247 -0.005067
v 0.073528 0.008244 -0.000776
v 0.073374 0.011784 -0.000311
v 0.074317 0.011949 -0.006010
v 0.075217 0.011952 -0.011218
v 0.076848 0.011797 -0.020515
v 0.078627 0.011803 -0.030962
v 0.079989 0.011484 -0.039734
v 0.081552 0.011325 -0.049415
v 0.082331 0.010841 -0.054523
v 0.081329 0.008540 -0.053231
v 0.080987 0.008611 -0.050492
v 0.080011 0.008572 -0.044885
v 0.078844 0.008573 -0.037461
v 0.077651 0.008571 -0.029486
v 0.076239 0.008422 -0.021290
v 0.074633 0.008416 -0.012154
v 0.073441 0.008250 -0.005197
v 0.072506 0.008274 -0.001259
v 0.072458 0.011673 -0.000824
v 0.073355 0.011895 -0.006128
v 0.074268 0.011898 -0.011420
v 0.075882 0.011779 -0.020611
v 0.077668 0.011753 -0.031101
v 0.079037 0.011442 -0.039937
v 0.080589 0.011312 -0.049565
v 0.081276 0.010858 -0.054733
v 0.081531 0.008524 -0.054917
v 0.081106 0.011000 -0.053175
v 0.079859 0.011367 -0.045376
v 0.077510 0.011799 -0.024266
v 0.075540 0.008420 -0.017326
v 0.080788 0.011396 -0.044962
v 0.082066 0.010995 -0.052996
v 0.076547 0.011770 -0.024379
v 0.081197 0.008569 -0.052083
v 0.076283 0.008416 -0.017442
v 0.080922 0.011132 -0.051671
v 0.082433 0.008540 -0.054977
v 0.081498 0.008546 -0.054189
v 0.081876 0.011134 -0.051513
v 0.082425 0.010761 -0.055197
v 0.082446 0.010721 -0.055663
v 0.072484 0.009826 -0.001061
v 0.080806 0.009844 -0.050069
v 0.081222 0.009663 -0.053206
v 0.079940 0.009848 -0.045109
v 0.078932 0.009883 -0.038591
v 0.077659 0.010023 -0.030223
v 0.075696 0.009953 -0.018824
v 0.074467 0.010006 -0.011818
v 0.073402 0.009914 -0.005622
v 0.076380 0.009950 -0.022699
v 0.081069 0.009739 -0.051895
v 0.081397 0.009691 -0.054826
v 0.081502 0.009601 -0.056137
v 0.072471 0.010750 -0.000942
v 0.080697 0.010578 -0.049817
v 0.081163 0.010332 -0.053191
v 0.079899 0.010607 -0.045243
v 0.078984 0.010663 -0.039264
v 0.077664 0.010888 -0.030662
v 0.074368 0.010952 -0.011619
v 0.073378 0.010904 -0.005875
v 0.075789 0.010866 -0.019718
v 0.076463 0.010860 -0.023539
v 0.080994 0.010435 -0.051783
v 0.081332 0.010302 -0.054778
v 0.081445 0.010232 -0.056065
v 0.075618 0.009186 -0.018075
v 0.076310 0.009186 -0.021995
v 0.081133 0.009154 -0.051989
v 0.072495 0.009050 -0.001160
v 0.080897 0.009227 -0.050280
v 0.081275 0.009101 -0.053219
v 0.079975 0.009210 -0.044997
v 0.078888 0.009228 -0.038026
v 0.077655 0.009297 -0.029854
v 0.074550 0.009211 -0.011986
v 0.073421 0.009082 -0.005409
v 0.081460 0.009126 -0.054871
v 0.075579 0.008803 -0.017700
v 0.076274 0.008804 -0.021642
v 0.081165 0.008862 -0.052036
v 0.072500 0.008662 -0.001210
v 0.080942 0.008919 -0.050386
v 0.081302 0.008820 -0.053225
v 0.079993 0.008891 -0.044941
v 0.078866 0.008901 -0.037744
v 0.077653 0.008934 -0.029670
v 0.074591 0.008814 -0.012070
v 0.073431 0.008666 -0.005303
v 0.081497 0.008812 -0.054895
v 0.081927 0.010847 -0.054381
v 0.081886 0.010785 -0.055720
v 0.072916 0.011729 -0.000568
v 0.081070 0.011319 -0.049490
v 0.081398 0.011133 -0.051592
v 0.077028 0.011784 -0.024322
v 0.081584 0.010998 -0.053086
v 0.080323 0.011382 -0.045169
v 0.079513 0.011463 -0.039836
v 0.078147 0.011778 -0.031032
v 0.076365 0.011788 -0.020563
v 0.074743 0.011925 -0.011319
v 0.073836 0.011922 -0.006069
v 0.073451 0.010014 -0.000544
v 0.081640 0.009958 -0.049893
v 0.081903 0.009841 -0.051729
v 0.082061 0.009756 -0.053035
v 0.082303 0.009703 -0.054344
v 0.082423 0.009650 -0.055087
v 0.082450 0.009596 -0.055707
v 0.080769 0.009992 -0.044863
v 0.079768 0.010036 -0.038542
v 0.078492 0.010193 -0.030168
v 0.077224 0.010108 -0.022707
v 0.076566 0.010106 -0.018977
v 0.075274 0.010182 -0.011615
v 0.074228 0.010098 -0.005538
v 0.081918 0.009194 -0.051837
v 0.082062 0.009136 -0.053055
v 0.080760 0.009290 -0.044812
v 0.078423 0.009388 -0.029772
v 0.076425 0.009261 -0.018209
v 0.074183 0.009173 -0.005303
v 0.073490 0.009129 -0.000660
v 0.081685 0.009274 -0.050133
v 0.082293 0.009134 -0.054254
v 0.082427 0.009095 -0.055032
v 0.082457 0.009033 -0.055729
v 0.079659 0.009312 -0.037946
v 0.077081 0.009263 -0.021928
v 0.075302 0.009297 -0.011813
v 0.073413 0.010899 -0.000428
v 0.081596 0.010641 -0.049654
v 0.082316 0.010272 -0.054434
v 0.082423 0.010206 -0.055142
v 0.082447 0.010158 -0.055685
v 0.079878 0.010760 -0.039138
v 0.077367 0.010954 -0.023487
v 0.075245 0.011067 -0.011416
v 0.081889 0.010487 -0.051621
v 0.082062 0.010375 -0.053015
v 0.080778 0.010694 -0.044912
v 0.078559 0.010998 -0.030565
v 0.076707 0.010951 -0.019746
v 0.074273 0.011023 -0.005774
v 0.081926 0.008871 -0.051891
v 0.082064 0.008826 -0.053065
v 0.080756 0.008939 -0.044788
v 0.078389 0.008986 -0.029573
v 0.076354 0.008838 -0.017826
v 0.074160 0.008710 -0.005185
v 0.073509 0.008686 -0.000718
v 0.081707 0.008932 -0.050252
v 0.082289 0.008849 -0.054209
v 0.082430 0.008817 -0.055004
v 0.079604 0.008949 -0.037648
v 0.077009 0.008840 -0.021539
v 0.075316 0.008855 -0.011912
v 0.082481 0.010023 -0.055723
v 0.082481 0.010151 -0.055723
v 0.081479 0.009719 -0.056225
v 0.081494 0.009554 -0.056218
v 0.081424 0.010370 -0.056253
v 0.081478 0.009815 -0.056226
v 0.082481 0.010438 -0.055723
v 0.082481 0.010155 -0.055723
v 0.081528 0.010766 -0.056201
v 0.081531 0.010404 -0.056199
v 0.082256 0.010718 -0.055836
v 0.082451 0.010708 -0.055738
v 0.081697 0.009180 -0.056116
v 0.081807 0.008437 -0.056061
v 0.082453 0.008471 -0.055738
v 0.082466 0.008472 -0.055731
v 0.081620 0.008368 -0.056155
v 0.082464 0.010500 -0.055732
v 0.081549 0.009125 -0.056190
v 0.081558 0.009018 -0.056186
v 0.081586 0.008715 -0.056172
v 0.081559 0.009014 -0.056185
v 0.081588 0.008701 -0.056171
v 0.081945 0.010794 -0.055992
v 0.081795 0.010789 -0.056067
v 0.081640 0.010798 -0.056144
v 0.082156 0.010766 -0.055886
v 0.082459 0.008900 -0.055734
v 0.082461 0.008752 -0.055733
v 0.082510 0.009559 -0.055709
v 0.082481 0.009843 -0.055724
v 0.082481 0.009873 -0.055723
vn -0.9576 -0.0022 -0.2882
vn -0.5178 -0.0048 -0.8555
vn -0.8148 -0.0444 -0.5780
vn 0.9934 0.0893 -0.0714
vn 0.9864 0.0938 -0.1350
vn 0.9807 0.1030 -0.1659
vn 0.9945 0.0912 -0.0515
vn 0.9650 -0.0134 0.2617
vn 0.9919 0.0342 0.1221
vn -0.9861 -0.0486 -0.1591
vn -0.9656 -0.0003 -0.2600
vn -0.9625 -0.0794 -0.2594
vn 0.9855 0.0006 0.1696
vn -0.0354 -0.9991 0.0227
vn -0.9871 0.0062 -0.1598
vn -0.1425 -0.9870 0.0744
vn 0.0064 0.9961 -0.0884
vn 0.8854 -0.0833 0.4574
vn 0.5960 -0.6416 0.4828
vn 0.4470 -0.8123 0.3747
vn -0.9895 -0.0930 -0.1107
vn -0.0929 0.9955 0.0163
vn 0.0175 0.9958 -0.0896
vn -0.0001 -0.9996 -0.0267
vn -0.9819 -0.0834 -0.1703
vn -0.9871 -0.0950 -0.1289
vn -0.9736 -0.1982 -0.1136
vn -0.9852 -0.0739 -0.1545
vn -0.9869 -0.0647 -0.1479
vn -0.0237 0.9997 -0.0058
vn -0.9828 -0.0671 -0.1723
vn -0.9832 -0.0665 -0.1701
vn -0.9735 -0.0342 -0.2261
vn 0.0479 0.9945 -0.0935
vn -0.0549 0.9985 -0.0089
vn -0.0341 0.9992 -0.0217
vn -0.0399 0.9992 -0.0084
vn -0.0403 0.9983 -0.0422
vn -0.0311 0.9993 -0.0208
vn -0.0168 0.9997 -0.0182
vn -0.9825 -0.0689 -0.1733
vn -0.9838 -0.0705 -0.1650
vn 0.0770 0.9940 -0.0782
vn -0.9785 -0.1304 -0.1596
vn 0.1393 0.0928 -0.9859
vn 0.0206 -0.9993 0.0324
vn -0.0328 -0.9992 0.0222
vn -0.0031 -1.0000 -0.0042
vn 0.0196 -0.9998 0.0032
vn 0.0186 -0.9998 0.0024
vn 0.0092 -0.9998 -0.0176
vn -0.0058 -1.0000 -0.0016
vn -0.0056 -1.0000 -0.0016
vn -0.0002 -0.9997 -0.0239
vn -0.0190 -0.9998 -0.0010
vn 0.9913 0.0110 0.1308
vn 0.9928 0.0829 0.0867
vn 0.9932 0.0049 0.1161
vn 0.9847 -0.0056 0.1740
vn 0.0442 -0.9925 0.1137
vn 0.9896 0.0025 0.1439
vn -0.9932 -0.0854 -0.0796
vn 0.9990 -0.0008 0.0443
vn 0.9871 -0.0098 0.1597
vn 0.9881 -0.0156 0.1532
vn 0.9862 -0.0080 0.1653
vn 0.9848 -0.0065 0.1737
vn 0.9849 -0.0070 0.1730
vn 0.9854 -0.0052 0.1700
vn 0.9869 0.0073 0.1613
vn -0.9830 -0.0725 -0.1686
vn -0.9824 -0.0697 -0.1732
vn -0.9814 -0.0320 -0.1895
vn -0.9832 -0.0669 -0.1699
vn -0.9828 -0.0675 -0.1719
vn -0.9865 -0.0669 -0.1493
vn -0.9859 -0.0721 -0.1512
vn -0.9860 -0.0909 -0.1400
vn -0.9815 -0.0853 -0.1713
vn -0.9900 -0.0871 -0.1112
vn 0.9929 0.0971 0.0694
vn -0.9901 -0.0912 -0.1065
vn -0.9901 -0.0835 -0.1129
vn -0.9855 -0.0872 -0.1457
vn -0.9863 -0.0697 -0.1492
vn -0.9864 -0.0673 -0.1501
vn -0.9828 -0.0675 -0.1717
vn -0.9832 -0.0670 -0.1699
vn -0.9841 -0.0311 -0.1746
vn -0.9833 -0.0718 -0.1670
vn -0.9816 -0.0851 -0.1709
vn 0.9929 0.0904 0.0776
vn -0.9910 -0.0864 -0.1026
vn -0.9815 -0.0850 -0.1715
vn -0.9828 -0.0726 -0.1697
vn -0.9824 -0.0694 -0.1733
vn -0.9782 -0.0330 -0.2052
vn -0.9832 -0.0667 -0.1700
vn -0.9828 -0.0672 -0.1721
vn -0.9867 -0.0664 -0.1486
vn -0.9855 -0.0735 -0.1528
vn -0.9865 -0.0930 -0.1348
vn -0.9898 -0.0900 -0.1104
vn 0.9783 0.1149 -0.1726
vn 0.9927 0.1024 0.0636
vn -0.9892 -0.0958 -0.1106
vn -0.9827 -0.0727 -0.1703
vn -0.9815 -0.0847 -0.1716
vn -0.9824 -0.0691 -0.1733
vn -0.9755 -0.0337 -0.2173
vn -0.9832 -0.0666 -0.1700
vn -0.9828 -0.0671 -0.1722
vn -0.9868 -0.0656 -0.1482
vn -0.9853 -0.0739 -0.1538
vn -0.9869 -0.0942 -0.1312
vn -0.9897 -0.0916 -0.1104
vn -0.9885 -0.0991 -0.1138
vn 0.9927 0.1051 0.0599
vn -0.0647 -0.9644 0.2565
vn -0.1161 -0.9924 -0.0415
vn -0.1241 -0.9878 -0.0941
vn 0.0793 0.9965 -0.0248
vn -0.0173 0.9997 -0.0168
vn -0.0316 0.9993 -0.0194
vn -0.0405 0.9983 -0.0417
vn -0.0401 0.9992 -0.0069
vn -0.0344 0.9992 -0.0199
vn -0.0550 0.9984 -0.0089
vn -0.0238 0.9997 -0.0043
vn 0.0168 0.9961 -0.0865
vn -0.0949 0.9952 0.0222
vn 0.0059 0.9963 -0.0859
vn 0.9885 0.0064 0.1509
vn 0.0038 0.9943 -0.1062
vn 0.9855 -0.0056 0.1695
vn 0.9849 -0.0074 0.1729
vn 0.9848 -0.0068 0.1738
vn 0.9858 -0.0067 0.1680
vn 0.9885 -0.0174 0.1503
vn 0.9878 -0.0121 0.1552
vn 0.9990 0.0106 0.0425
vn 0.9864 0.0157 0.1634
vn 0.9827 0.0041 0.1853
vn 0.9925 -0.0021 0.1221
vn 0.9896 0.0061 0.1440
vn 0.9853 0.0021 0.1710
vn 0.9852 0.0016 0.1714
vn 0.9815 0.0074 0.1913
vn 0.9852 0.0200 0.1703
vn 0.9990 0.0145 0.0422
vn 0.9886 -0.0185 0.1492
vn 0.9856 -0.0066 0.1689
vn 0.9848 -0.0072 0.1738
vn 0.9849 -0.0077 0.1728
vn 0.9856 -0.0057 0.1693
vn 0.9893 0.0060 0.1461
vn 0.9875 -0.0105 0.1574
vn 0.9929 0.0011 0.1191
vn 0.9904 0.0084 0.1381
vn 0.9887 0.0025 0.1498
vn 0.9921 -0.0058 0.1256
vn 0.9882 -0.0144 0.1527
vn 0.9877 0.0069 0.1565
vn 0.9855 -0.0053 0.1697
vn 0.9849 -0.0071 0.1729
vn 0.9848 -0.0065 0.1738
vn 0.9860 -0.0072 0.1667
vn 0.9883 -0.0164 0.1518
vn 0.9991 0.0051 0.0431
vn 0.9880 0.0093 0.1539
vn 0.9839 -0.0006 0.1789
vn 0.9854 0.0021 0.1704
vn 0.9898 0.0058 0.1426
vn 0.9856 -0.0058 0.1692
vn 0.9849 -0.0078 0.1728
vn 0.9848 -0.0074 0.1737
vn 0.9855 -0.0067 0.1694
vn 0.9887 -0.0197 0.1485
vn 0.9990 0.0172 0.0424
vn 0.9843 0.0226 0.1748
vn 0.9806 0.0094 0.1959
vn 0.9852 0.0015 0.1715
vn 0.9873 -0.0099 0.1588
vn 0.9931 0.0032 0.1172
vn 0.9910 0.0099 0.1336
vn -0.5155 -0.0048 -0.8569
vn -0.6357 0.0537 -0.7700
vt 0.556703 0.250000
vt 0.542900 0.250000
vt 0.556690 0.250000
vt 0.000005 0.000003
vt 0.000000 0.000000
vt 0.112306 0.057571
vt 0.004251 0.001704
vt 0.124976 0.050106
vt 0.587272 0.250000
vt 0.557053 0.250000
vt 0.586436 0.250000
vt 0.132176 0.052953
vt 0.307484 0.122994
vt 0.449867 0.191491
vt 0.587273 0.250001
vt 0.112308 0.057572
vt 0.000006 0.000003
vt 0.317635 0.127121
vt 0.346235 0.138671
vt 0.369451 0.148122
vt 0.307485 0.122994
vt 0.369448 0.148120
vt 0.213286 0.085511
vt 0.542944 0.250020
vt 0.503621 0.238985
vt 0.462087 0.220705
vt 0.307534 0.157589
s 1
usemtl Material.009
f 175/1/1 174/2/2 7/3/3
f 176/4/4 68/5/5 177/6/6
f 68/5/5 176/5/4 179/7/7 178/8/8 81/5/9
f 180/9/10 181/10/11 175/1/1 7/3/3 8/11/12
s 0
f 157/5/13 148/5/13 21/5/13 45/5/13
f 23/5/14 2/5/14 1/5/14 48/5/14
f 53/5/15 22/5/15 20/5/15 45/5/15 21/5/15
f 22/5/16 53/5/16 46/5/16
f 109/5/17 21/5/17 53/5/17 110/5/17
s 1
f 178/8/8 183/12/18 182/13/19 4/5/20 81/5/9
s 0
f 96/5/21 99/5/21 23/5/21 48/5/21
f 108/5/22 15/5/22 16/5/22 118/5/22
f 110/5/23 53/5/23 46/5/23 112/5/23
f 5/5/24 2/5/24 23/5/24 52/5/24
f 70/5/25 72/5/25 42/5/25 38/5/25
f 98/5/26 96/5/26 48/5/26 24/5/26
f 23/5/27 99/5/27 105/5/27 40/5/27 52/5/27
f 100/5/28 25/5/28 26/5/28 101/5/28
f 101/5/29 26/5/29 27/5/29 102/5/29
f 116/5/30 111/5/30 47/5/30 35/5/30
f 94/5/31 44/5/31 29/5/31 103/5/31
f 103/5/32 29/5/32 30/5/32 104/5/32
f 104/5/33 30/5/33 31/5/33 97/5/33
f 41/5/34 112/5/34 106/5/34 39/5/34
f 118/5/35 16/5/35 17/5/35 117/5/35
f 117/5/36 17/5/36 18/5/36 116/5/36
f 111/5/37 115/5/37 36/5/37 47/5/37
f 115/5/38 19/5/38 20/5/38 114/5/38
f 114/5/39 20/5/39 45/5/39 113/5/39
f 113/5/40 45/5/40 21/5/40 109/5/40
f 94/5/41 95/5/41 28/5/41 44/5/41
f 78/5/42 47/5/42 36/5/42 74/5/42
f 184/5/43 107/5/43 106/5/43 22/5/43 54/5/43 55/5/43 185/5/43
f 186/5/44 187/5/44 40/5/44 67/5/44 80/5/44 39/5/44 4/5/44
f 40/5/45 105/5/45 93/5/45 67/5/45
f 5/5/46 52/5/46 40/5/46 51/5/46
f 48/5/47 1/5/47 6/5/47 24/5/47
f 24/5/48 6/5/48 3/5/48 25/5/48
f 25/5/49 3/5/49 9/5/49 26/5/49
f 26/5/50 9/5/50 10/5/50 27/5/50
f 27/5/51 10/5/51 11/5/51 28/5/51
f 28/5/52 11/5/52 49/5/52 44/5/52
f 44/5/53 49/5/53 12/5/53 29/5/53
f 29/5/54 12/5/54 13/5/54 30/5/54
f 30/5/55 13/5/55 14/5/55 31/5/55
f 161/5/56 168/5/56 6/5/56 1/5/56
f 39/5/57 80/5/57 81/5/57 4/5/57
f 161/5/58 1/5/58 2/5/58 162/5/58
f 149/5/59 22/5/59 46/5/59 156/5/59
f 190/5/60 188/5/60 189/5/60 51/5/60 40/5/60
f 149/5/61 150/5/61 54/5/61 22/5/61
s 1
f 185/5/62 191/14/62 180/15/10 8/11/12 55/5/62
s 0
f 150/5/63 151/5/63 55/5/63 54/5/63
f 163/5/64 171/5/64 9/5/64 3/5/64
f 152/5/65 20/5/65 19/5/65 158/5/65
f 158/5/66 19/5/66 43/5/66 153/5/66
f 153/5/67 43/5/67 18/5/67 159/5/67
f 159/5/68 18/5/68 17/5/68 154/5/68
f 154/5/69 17/5/69 16/5/69 160/5/69
f 160/5/70 16/5/70 15/5/70 147/5/70
f 83/5/71 65/5/71 61/5/71 90/5/71
f 77/5/72 78/5/72 65/5/72 62/5/72
f 76/5/73 64/5/73 56/5/73 69/5/73
f 75/5/74 63/5/74 64/5/74 76/5/74
f 77/5/75 62/5/75 63/5/75 75/5/75
f 73/5/76 60/5/76 61/5/76 74/5/76
f 72/5/77 59/5/77 60/5/77 73/5/77
f 70/5/78 79/5/78 66/5/78 57/5/78
f 86/5/79 88/5/79 59/5/79 57/5/79
f 79/5/80 71/5/80 58/5/80 66/5/80
f 192/5/81 68/5/81 67/5/81 93/5/81 193/5/81
f 67/5/82 58/5/82 71/5/82 80/5/82
f 50/5/83 41/5/83 71/5/83 79/5/83
f 38/5/84 50/5/84 79/5/84 70/5/84
f 42/5/85 72/5/85 73/5/85 37/5/85
f 37/5/86 73/5/86 74/5/86 36/5/86
f 35/5/87 77/5/87 75/5/87 34/5/87
f 34/5/88 75/5/88 76/5/88 33/5/88
f 33/5/89 76/5/89 69/5/89 32/5/89
f 35/5/72 47/5/72 78/5/72 77/5/72
f 65/5/90 78/5/90 74/5/90 61/5/90
f 57/5/91 59/5/91 72/5/91 70/5/91
f 81/5/92 80/5/92 67/5/92 68/5/92
f 80/5/93 71/5/93 41/5/93 39/5/93
f 98/5/94 100/5/94 88/5/94 86/5/94
f 95/5/95 83/5/95 90/5/95 102/5/95
f 62/5/96 65/5/96 83/5/96 82/5/96
f 64/5/97 92/5/97 85/5/97 56/5/97
f 63/5/98 91/5/98 92/5/98 64/5/98
f 62/5/99 82/5/99 91/5/99 63/5/99
f 60/5/100 89/5/100 90/5/100 61/5/100
f 59/5/101 88/5/101 89/5/101 60/5/101
f 57/5/102 66/5/102 84/5/102 86/5/102
f 66/5/103 58/5/103 87/5/103 84/5/103
s 1
f 177/16/6 68/5/5 192/17/104
s 0
f 194/5/105 195/5/105 193/5/105 93/5/105 105/5/105
f 93/5/106 87/5/106 58/5/106 67/5/106
f 28/5/107 95/5/107 102/5/107 27/5/107
f 24/5/108 25/5/108 100/5/108 98/5/108
f 82/5/109 83/5/109 95/5/109 94/5/109
f 92/5/110 104/5/110 97/5/110 85/5/110
f 91/5/111 103/5/111 104/5/111 92/5/111
f 82/5/112 94/5/112 103/5/112 91/5/112
f 89/5/113 101/5/113 102/5/113 90/5/113
f 88/5/114 100/5/114 101/5/114 89/5/114
f 86/5/115 84/5/115 96/5/115 98/5/115
f 84/5/116 87/5/116 99/5/116 96/5/116
f 105/5/117 99/5/117 87/5/117 93/5/117
f 196/5/118 194/5/118 105/5/118 40/5/118 190/5/118
s 1
f 199/18/119 198/19/119 197/20/120 4/5/20 182/21/19
f 107/5/121 4/5/20 197/22/120 200/23/121 184/5/121
s 0
f 106/5/122 107/5/122 4/5/122 39/5/122
f 42/5/123 113/5/123 109/5/123 38/5/123
f 37/5/124 114/5/124 113/5/124 42/5/124
f 36/5/125 115/5/125 114/5/125 37/5/125
f 43/5/126 19/5/126 115/5/126 111/5/126
f 34/5/127 117/5/127 116/5/127 35/5/127
f 33/5/128 118/5/128 117/5/128 34/5/128
f 18/5/129 43/5/129 111/5/129 116/5/129
f 50/5/130 110/5/130 112/5/130 41/5/130
f 32/5/131 108/5/131 118/5/131 33/5/131
f 38/5/132 109/5/132 110/5/132 50/5/132
f 138/5/133 132/5/133 119/5/133 139/5/133
f 106/5/134 112/5/134 46/5/134 22/5/134
f 146/5/135 131/5/135 132/5/135 138/5/135
f 137/5/136 130/5/136 131/5/136 146/5/136
f 145/5/137 129/5/137 130/5/137 137/5/137
f 136/5/138 128/5/138 129/5/138 145/5/138
f 144/5/139 127/5/139 128/5/139 136/5/139
f 157/5/140 152/5/140 127/5/140 126/5/140
f 142/5/141 143/5/141 125/5/141 124/5/141
f 141/5/142 142/5/142 124/5/142 123/5/142
f 141/5/143 123/5/143 122/5/143 134/5/143
f 155/5/144 121/5/144 122/5/144 156/5/144
f 155/5/145 148/5/145 120/5/145 121/5/145
f 135/5/146 140/5/146 120/5/146 126/5/146
f 163/5/147 168/5/147 140/5/147 135/5/147
f 169/5/148 141/5/148 134/5/148 162/5/148
f 169/5/149 170/5/149 142/5/149 141/5/149
f 201/5/150 143/5/150 142/5/150 170/5/150 202/5/150
f 171/5/151 144/5/151 136/5/151 164/5/151
f 164/5/152 136/5/152 145/5/152 172/5/152
f 172/5/153 145/5/153 137/5/153 165/5/153
f 165/5/154 137/5/154 146/5/154 173/5/154
f 173/5/155 146/5/155 138/5/155 166/5/155
f 166/5/156 138/5/156 139/5/156 167/5/156
f 126/5/157 127/5/157 144/5/157 135/5/157
f 121/5/158 133/5/158 134/5/158 122/5/158
f 121/5/159 120/5/159 140/5/159 133/5/159
f 53/5/160 21/5/160 148/5/160 155/5/160
f 53/5/161 155/5/161 156/5/161 46/5/161
f 45/5/162 20/5/162 152/5/162 157/5/162
f 132/5/163 160/5/163 147/5/163 119/5/163
f 131/5/164 154/5/164 160/5/164 132/5/164
f 130/5/165 159/5/165 154/5/165 131/5/165
f 129/5/166 153/5/166 159/5/166 130/5/166
f 128/5/167 158/5/167 153/5/167 129/5/167
f 127/5/168 152/5/168 158/5/168 128/5/168
f 124/5/169 125/5/169 151/5/169 150/5/169
f 123/5/170 124/5/170 150/5/170 149/5/170
f 123/5/171 149/5/171 156/5/171 122/5/171
f 126/5/172 120/5/172 148/5/172 157/5/172
f 13/5/173 166/5/173 167/5/173 14/5/173
f 12/5/174 173/5/174 166/5/174 13/5/174
f 49/5/175 165/5/175 173/5/175 12/5/175
f 11/5/176 172/5/176 165/5/176 49/5/176
f 10/5/177 164/5/177 172/5/177 11/5/177
f 9/5/178 171/5/178 164/5/178 10/5/178
f 189/5/179 202/5/179 170/5/179 51/5/179
f 5/5/180 51/5/180 170/5/180 169/5/180
f 5/5/181 169/5/181 162/5/181 2/5/181
f 3/5/182 6/5/182 168/5/182 163/5/182
f 135/5/183 144/5/183 171/5/183 163/5/183
f 133/5/184 161/5/184 162/5/184 134/5/184
f 133/5/185 140/5/185 168/5/185 161/5/185
s 1
f 174/24/2 205/25/186 204/26/186 203/27/186 125/5/186 151/5/187 7/3/3
f 151/5/187 8/11/12 7/3/3
