# Blender 4.1.1
# www.blender.org
mtllib glasses_5_temple_left.mtl
o Cube.003
v 0.080318 0.009611 -0.049634
v 0.080449 0.009580 -0.050763
v 0.079135 0.009651 -0.042451
v 0.080850 0.009534 -0.053440
v 0.080669 0.009628 -0.051852
v 0.080112 0.009654 -0.048061
v 0.080976 0.009844 -0.053404
v 0.080928 0.010601 -0.053399
v 0.080864 0.011215 -0.053411
v 0.080928 0.009646 -0.053421
v 0.080961 0.010215 -0.053405
v 0.080866 0.010925 -0.053414
v 0.080848 0.011491 -0.053353
v 0.077932 0.009651 -0.035039
v 0.076738 0.009647 -0.027064
v 0.075320 0.009482 -0.018839
v 0.073714 0.009476 -0.009701
v 0.072521 0.009311 -0.002756
v 0.071911 0.009308 0.001535
v 0.071757 0.012848 0.002000
v 0.072701 0.013013 -0.003699
v 0.073600 0.013016 -0.008907
v 0.075232 0.012860 -0.018204
v 0.077010 0.012867 -0.028651
v 0.078372 0.012548 -0.037423
v 0.079935 0.012389 -0.047104
v 0.080714 0.011905 -0.052212
v 0.079712 0.009603 -0.050920
v 0.079371 0.009674 -0.048181
v 0.078394 0.009636 -0.042574
v 0.077227 0.009637 -0.035150
v 0.076034 0.009635 -0.027175
v 0.074622 0.009486 -0.018979
v 0.073016 0.009480 -0.009843
v 0.071824 0.009314 -0.002886
v 0.070889 0.009338 0.001052
v 0.070841 0.012737 0.001487
v 0.071738 0.012959 -0.003817
v 0.072652 0.012962 -0.009109
v 0.074265 0.012843 -0.018300
v 0.076051 0.012817 -0.028790
v 0.077421 0.012506 -0.037626
v 0.078972 0.012376 -0.047254
v 0.079660 0.011921 -0.052422
v 0.079914 0.009588 -0.052606
v 0.079489 0.012064 -0.050864
v 0.078242 0.012431 -0.043065
v 0.075893 0.012863 -0.021955
v 0.073923 0.009484 -0.015014
v 0.079171 0.012460 -0.042651
v 0.080449 0.012059 -0.050685
v 0.074930 0.012834 -0.022068
v 0.079581 0.009633 -0.049772
v 0.074666 0.009479 -0.015131
v 0.079305 0.012195 -0.049360
v 0.080816 0.009604 -0.052666
v 0.079881 0.009610 -0.051878
v 0.080259 0.012198 -0.049202
v 0.080809 0.011825 -0.052886
v 0.080830 0.011785 -0.053352
v 0.070867 0.010890 0.001250
v 0.079189 0.010908 -0.047758
v 0.079606 0.010727 -0.050895
v 0.078324 0.010912 -0.042798
v 0.077315 0.010947 -0.036280
v 0.076043 0.011087 -0.027912
v 0.074080 0.011017 -0.016513
v 0.072850 0.011069 -0.009507
v 0.071785 0.010977 -0.003311
v 0.074763 0.011014 -0.020388
v 0.079452 0.010803 -0.049584
v 0.079781 0.010755 -0.052515
v 0.070854 0.011813 0.001369
v 0.079080 0.011642 -0.047506
v 0.079546 0.011395 -0.050880
v 0.078282 0.011671 -0.042932
v 0.077368 0.011726 -0.036953
v 0.076047 0.011952 -0.028351
v 0.072751 0.012016 -0.009308
v 0.071762 0.011968 -0.003564
v 0.074172 0.011930 -0.017407
v 0.074847 0.011924 -0.021228
v 0.079378 0.011499 -0.049472
v 0.079716 0.011366 -0.052467
v 0.074001 0.010250 -0.015764
v 0.074693 0.010250 -0.019684
v 0.079516 0.010218 -0.049678
v 0.070878 0.010114 0.001151
v 0.079280 0.010291 -0.047969
v 0.079658 0.010165 -0.050908
v 0.078359 0.010274 -0.042686
v 0.077271 0.010292 -0.035715
v 0.076039 0.010361 -0.027543
v 0.072933 0.010275 -0.009675
v 0.071804 0.010146 -0.003098
v 0.079844 0.010190 -0.052560
v 0.073962 0.009867 -0.015389
v 0.074658 0.009868 -0.019331
v 0.079548 0.009926 -0.049725
v 0.070884 0.009726 0.001101
v 0.079325 0.009983 -0.048075
v 0.079685 0.009884 -0.050914
v 0.078376 0.009955 -0.042630
v 0.077250 0.009964 -0.035432
v 0.076036 0.009998 -0.027359
v 0.072975 0.009878 -0.009759
v 0.071814 0.009730 -0.002992
v 0.079880 0.009876 -0.052584
v 0.080310 0.011911 -0.052070
v 0.080269 0.011848 -0.053409
v 0.071299 0.012793 0.001743
v 0.079453 0.012383 -0.047179
v 0.079781 0.012197 -0.049281
v 0.075412 0.012848 -0.022011
v 0.079968 0.012061 -0.050775
v 0.078706 0.012445 -0.042858
v 0.077896 0.012527 -0.037525
v 0.076531 0.012842 -0.028721
v 0.074749 0.012852 -0.018252
v 0.073126 0.012989 -0.009008
v 0.072219 0.012986 -0.003758
v 0.071834 0.011078 0.001767
v 0.080024 0.011021 -0.047582
v 0.080286 0.010904 -0.049418
v 0.080444 0.010819 -0.050724
v 0.080686 0.010767 -0.052033
v 0.080807 0.010714 -0.052776
v 0.080833 0.010660 -0.053396
v 0.079152 0.011056 -0.042552
v 0.078152 0.011100 -0.036231
v 0.076875 0.011257 -0.027857
v 0.075607 0.011172 -0.020396
v 0.074949 0.011170 -0.016666
v 0.073657 0.011246 -0.009304
v 0.072611 0.011162 -0.003227
v 0.080301 0.010258 -0.049526
v 0.080446 0.010200 -0.050744
v 0.079143 0.010354 -0.042502
v 0.076807 0.010452 -0.027461
v 0.074808 0.010325 -0.015898
v 0.072566 0.010236 -0.002992
v 0.071873 0.010193 0.001651
v 0.080068 0.010338 -0.047822
v 0.080677 0.010197 -0.051943
v 0.080810 0.010159 -0.052721
v 0.080840 0.010097 -0.053418
v 0.078042 0.010375 -0.035635
v 0.075464 0.010327 -0.019617
v 0.073685 0.010361 -0.009502
v 0.071796 0.011963 0.001883
v 0.079979 0.011705 -0.047343
v 0.080699 0.011336 -0.052123
v 0.080806 0.011269 -0.052831
v 0.080830 0.011222 -0.053374
v 0.078262 0.011824 -0.036827
v 0.075750 0.012017 -0.021176
v 0.073629 0.012131 -0.009105
v 0.080272 0.011551 -0.049310
v 0.080445 0.011439 -0.050704
v 0.079161 0.011758 -0.042601
v 0.076943 0.012062 -0.028254
v 0.075090 0.012015 -0.017435
v 0.072656 0.012087 -0.003463
v 0.080309 0.009934 -0.049580
v 0.080447 0.009890 -0.050754
v 0.079139 0.010002 -0.042476
v 0.076772 0.010050 -0.027262
v 0.074737 0.009902 -0.015515
v 0.072544 0.009774 -0.002874
v 0.071892 0.009750 0.001593
v 0.080090 0.009996 -0.047941
v 0.080673 0.009913 -0.051898
v 0.080813 0.009881 -0.052693
v 0.080845 0.009816 -0.053429
v 0.077987 0.010013 -0.035337
v 0.075392 0.009904 -0.019228
v 0.073700 0.009919 -0.009601
v 0.080831 0.009531 -0.053472
v 0.080871 0.009534 -0.053466
v 0.080802 0.009527 -0.053476
v 0.080941 0.009641 -0.053455
v 0.080993 0.009837 -0.053448
v 0.080876 0.009550 -0.053465
v 0.080965 0.010346 -0.053452
v 0.080980 0.010207 -0.053450
v 0.080946 0.010604 -0.053455
v 0.080990 0.009948 -0.053448
v 0.080883 0.010933 -0.053464
v 0.080882 0.011224 -0.053464
v 0.080923 0.010729 -0.053458
v 0.080878 0.011333 -0.053465
v 0.080878 0.011512 -0.053465
v 0.080583 0.011792 -0.053508
v 0.080837 0.011765 -0.053471
v 0.079771 0.011914 -0.053626
v 0.079784 0.011787 -0.053624
v 0.080147 0.009514 -0.053571
v 0.079811 0.011359 -0.053620
v 0.079817 0.011303 -0.053619
v 0.080790 0.009526 -0.053478
v 0.079985 0.009463 -0.053595
v 0.080847 0.011616 -0.053469
v 0.079879 0.010584 -0.053610
v 0.079869 0.010680 -0.053612
v 0.079921 0.010104 -0.053604
v 0.079823 0.011237 -0.053618
v 0.079929 0.010036 -0.053603
v 0.079951 0.009799 -0.053600
v 0.079959 0.009728 -0.053599
v 0.080459 0.011836 -0.053526
v 0.079917 0.011895 -0.053605
v 0.079796 0.011914 -0.053622
vn 0.1023 -0.9935 0.0508
vn 0.1023 -0.9935 0.0507
vn -0.8840 0.2503 -0.3948
vn -0.7347 0.5504 -0.3965
vn -0.9340 -0.0561 -0.3528
vn -0.9369 -0.0621 -0.3440
vn -0.9332 -0.0763 -0.3511
vn -0.9360 -0.1326 -0.3260
vn -0.9451 -0.0808 -0.3167
vn -0.9240 -0.0368 -0.3805
vn -0.9241 -0.0368 -0.3805
vn -0.9396 -0.0910 -0.3301
vn -0.7990 0.0277 -0.6007
vn -0.7583 0.0327 -0.6511
vn -0.9560 -0.0046 -0.2933
vn -0.9233 -0.1874 -0.3352
vn -0.9722 0.0228 -0.2331
vn -0.9816 -0.0599 -0.1813
vn -0.9632 -0.0043 -0.2686
vn 0.9855 0.0006 0.1696
vn -0.0354 -0.9991 0.0227
vn -0.9871 0.0063 -0.1598
vn -0.1426 -0.9870 0.0744
vn 0.0064 0.9961 -0.0884
vn -0.9895 -0.0930 -0.1107
vn -0.0929 0.9955 0.0163
vn 0.0175 0.9958 -0.0896
vn -0.0001 -0.9996 -0.0267
vn -0.9819 -0.0834 -0.1703
vn -0.9871 -0.0950 -0.1289
vn -0.9736 -0.1981 -0.1136
vn -0.9852 -0.0738 -0.1545
vn -0.9869 -0.0646 -0.1479
vn -0.0237 0.9997 -0.0058
vn -0.9828 -0.0670 -0.1723
vn -0.9832 -0.0664 -0.1701
vn -0.9735 -0.0343 -0.2261
vn 0.0479 0.9945 -0.0935
vn -0.0549 0.9985 -0.0089
vn -0.0341 0.9992 -0.0217
vn -0.0399 0.9992 -0.0084
vn -0.0403 0.9983 -0.0422
vn -0.0311 0.9993 -0.0208
vn -0.0168 0.9997 -0.0182
vn -0.9825 -0.0689 -0.1733
vn -0.9838 -0.0705 -0.1650
vn 0.0770 0.9939 -0.0783
vn -0.9804 -0.1262 -0.1511
vn 0.0206 -0.9993 0.0324
vn -0.0328 -0.9992 0.0222
vn -0.0031 -1.0000 -0.0042
vn 0.0196 -0.9998 0.0032
vn 0.0186 -0.9998 0.0024
vn 0.0092 -0.9998 -0.0176
vn -0.0058 -1.0000 -0.0016
vn -0.0056 -1.0000 -0.0016
vn -0.0002 -0.9997 -0.0239
vn -0.0190 -0.9998 -0.0010
vn 0.9913 0.0109 0.1308
vn 0.9927 0.0836 0.0864
vn 0.9932 0.0048 0.1161
vn 0.9847 -0.0056 0.1740
vn 0.0427 -0.9928 0.1120
vn 0.9896 0.0025 0.1439
vn -0.9887 -0.1079 -0.1036
vn 0.9990 -0.0009 0.0442
vn 0.9871 -0.0099 0.1597
vn 0.9881 -0.0156 0.1532
vn 0.9862 -0.0080 0.1653
vn 0.9848 -0.0065 0.1737
vn 0.9849 -0.0071 0.1730
vn 0.9854 -0.0052 0.1700
vn 0.9869 0.0073 0.1613
vn -0.9830 -0.0725 -0.1686
vn -0.9824 -0.0697 -0.1732
vn -0.9814 -0.0320 -0.1895
vn -0.9832 -0.0669 -0.1699
vn -0.9828 -0.0675 -0.1719
vn -0.9865 -0.0669 -0.1493
vn -0.9859 -0.0721 -0.1512
vn -0.9860 -0.0909 -0.1400
vn -0.9815 -0.0853 -0.1713
vn -0.9900 -0.0872 -0.1112
vn 0.9927 0.0987 0.0700
vn -0.9901 -0.0912 -0.1064
vn -0.9901 -0.0834 -0.1129
vn -0.9855 -0.0872 -0.1457
vn -0.9863 -0.0697 -0.1492
vn -0.9864 -0.0673 -0.1501
vn -0.9828 -0.0675 -0.1717
vn -0.9832 -0.0670 -0.1698
vn -0.9841 -0.0311 -0.1746
vn -0.9833 -0.0718 -0.1670
vn -0.9816 -0.0851 -0.1709
vn 0.9927 0.0915 0.0781
vn -0.9910 -0.0864 -0.1026
vn -0.9815 -0.0850 -0.1715
vn -0.9828 -0.0726 -0.1697
vn -0.9824 -0.0694 -0.1733
vn -0.9782 -0.0330 -0.2052
vn -0.9832 -0.0667 -0.1700
vn -0.9828 -0.0672 -0.1721
vn -0.9867 -0.0664 -0.1486
vn -0.9855 -0.0735 -0.1528
vn -0.9865 -0.0929 -0.1348
vn -0.9898 -0.0900 -0.1104
vn 0.9925 0.1039 0.0638
vn -0.9892 -0.0958 -0.1106
vn -0.9827 -0.0727 -0.1703
vn -0.9815 -0.0846 -0.1716
vn -0.9824 -0.0691 -0.1733
vn -0.9755 -0.0337 -0.2173
vn -0.9832 -0.0666 -0.1701
vn -0.9828 -0.0670 -0.1722
vn -0.9868 -0.0657 -0.1482
vn -0.9853 -0.0740 -0.1538
vn -0.9869 -0.0941 -0.1312
vn -0.9897 -0.0916 -0.1104
vn -0.9885 -0.0992 -0.1138
vn 0.9925 0.1065 0.0601
vn -0.1358 -0.9842 -0.1136
vn 0.0790 0.9966 -0.0247
vn -0.0173 0.9997 -0.0168
vn -0.0316 0.9993 -0.0194
vn -0.0405 0.9983 -0.0417
vn -0.0401 0.9992 -0.0069
vn -0.0344 0.9992 -0.0199
vn -0.0550 0.9984 -0.0089
vn -0.0238 0.9997 -0.0043
vn 0.0168 0.9961 -0.0865
vn -0.0949 0.9952 0.0222
vn 0.0059 0.9963 -0.0859
vn 0.9885 0.0064 0.1509
vn 0.0038 0.9943 -0.1062
vn 0.9855 -0.0055 0.1695
vn 0.9849 -0.0074 0.1729
vn 0.9848 -0.0068 0.1738
vn 0.9858 -0.0067 0.1680
vn 0.9885 -0.0174 0.1503
vn 0.9878 -0.0121 0.1552
vn 0.9990 0.0106 0.0425
vn 0.9864 0.0157 0.1634
vn 0.9827 0.0041 0.1853
vn 0.9925 -0.0021 0.1221
vn 0.9896 0.0061 0.1440
vn 0.9853 0.0021 0.1710
vn 0.9852 0.0017 0.1714
vn 0.9815 0.0074 0.1913
vn 0.9852 0.0200 0.1703
vn 0.9990 0.0147 0.0423
vn 0.9886 -0.0185 0.1492
vn 0.9856 -0.0067 0.1689
vn 0.9848 -0.0072 0.1738
vn 0.9849 -0.0076 0.1728
vn 0.9856 -0.0057 0.1693
vn 0.9893 0.0060 0.1461
vn 0.9875 -0.0105 0.1574
vn 0.9929 0.0011 0.1191
vn 0.9904 0.0084 0.1381
vn 0.9887 0.0025 0.1498
vn 0.9921 -0.0058 0.1256
vn 0.9882 -0.0144 0.1527
vn 0.9877 0.0069 0.1565
vn 0.9855 -0.0053 0.1697
vn 0.9849 -0.0071 0.1729
vn 0.9848 -0.0065 0.1738
vn 0.9860 -0.0072 0.1667
vn 0.9883 -0.0164 0.1518
vn 0.9991 0.0051 0.0431
vn 0.9880 0.0093 0.1539
vn 0.9839 -0.0006 0.1789
vn 0.9854 0.0021 0.1704
vn 0.9898 0.0053 0.1427
vn 0.9856 -0.0058 0.1692
vn 0.9849 -0.0079 0.1728
vn 0.9848 -0.0074 0.1737
vn 0.9855 -0.0066 0.1694
vn 0.9887 -0.0197 0.1485
vn 0.9990 0.0172 0.0424
vn 0.9843 0.0226 0.1749
vn 0.9806 0.0093 0.1959
vn 0.9852 0.0014 0.1715
vn 0.9873 -0.0099 0.1588
vn 0.9931 0.0033 0.1172
vn 0.9910 0.0099 0.1336
vn -0.6109 0.0545 -0.7898
vn -0.4446 -0.0142 -0.8956
vt 0.000000 0.000000
vt 0.000898 0.000599
vt 0.000430 0.000286
vt 0.436866 0.250000
vt 0.437470 0.250000
vt 0.487875 0.250000
vt 0.487801 0.250000
vt 0.454788 0.250000
vt 0.375000 0.250000
vt 0.393672 0.250000
vt 0.525765 0.250000
vt 0.525529 0.250000
vt 0.556690 0.250000
vt 0.557145 0.250000
vt 0.502190 0.250000
vt 0.586436 0.250000
vt 0.588004 0.250000
vt 0.568768 0.250000
vt 0.587997 0.249997
vt 0.331136 0.140798
vt 0.125148 0.050175
vt -0.000005 -0.000002
s 0
usemtl Material.008
f 4/1/1 180/2/1 178/3/2 179/1/1
f 181/1/3 10/1/3 7/1/3 182/1/3
f 179/1/4 4/1/4 10/1/4 181/1/4 183/1/4
s 1
f 185/4/5 11/5/6 8/6/7 186/7/8 184/8/9
f 182/9/10 7/9/11 11/5/6 185/4/5 187/10/11
f 188/11/12 12/12/13 9/13/14 189/14/15
f 186/7/8 8/6/7 12/12/13 188/11/12 190/15/16
f 189/14/15 9/13/14 13/16/17 192/17/18 191/18/19
s 0
f 160/1/20 151/1/20 26/1/20 50/1/20
f 28/1/21 2/1/21 1/1/21 53/1/21
f 50/1/22 26/1/22 58/1/22 27/1/22 25/1/22
f 58/1/23 51/1/23 27/1/23
f 112/1/24 26/1/24 58/1/24 113/1/24
f 99/1/25 102/1/25 28/1/25 53/1/25
f 111/1/26 20/1/26 21/1/26 121/1/26
f 113/1/27 58/1/27 51/1/27 115/1/27
f 5/1/28 2/1/28 28/1/28 57/1/28
f 74/1/29 76/1/29 47/1/29 43/1/29
f 101/1/30 99/1/30 53/1/30 29/1/30
f 45/1/31 57/1/31 28/1/31 102/1/31 108/1/31
f 103/1/32 30/1/32 31/1/32 104/1/32
f 104/1/33 31/1/33 32/1/33 105/1/33
f 119/1/34 114/1/34 52/1/34 40/1/34
f 97/1/35 49/1/35 34/1/35 106/1/35
f 106/1/36 34/1/36 35/1/36 107/1/36
f 107/1/37 35/1/37 36/1/37 100/1/37
f 46/1/38 115/1/38 109/1/38 44/1/38
f 121/1/39 21/1/39 22/1/39 120/1/39
f 120/1/40 22/1/40 23/1/40 119/1/40
f 114/1/41 118/1/41 41/1/41 52/1/41
f 118/1/42 24/1/42 25/1/42 117/1/42
f 117/1/43 25/1/43 50/1/43 116/1/43
f 116/1/44 50/1/44 26/1/44 112/1/44
f 97/1/45 98/1/45 33/1/45 49/1/45
f 82/1/46 52/1/46 41/1/46 78/1/46
f 27/1/47 59/1/47 60/1/47 194/1/47 193/1/47 110/1/47 109/1/47
f 197/1/48 45/1/48 108/1/48 96/1/48 72/1/48 84/1/48 44/1/48 195/1/48 196/1/48
f 5/1/49 57/1/49 45/1/49 56/1/49
f 53/1/50 1/1/50 6/1/50 29/1/50
f 29/1/51 6/1/51 3/1/51 30/1/51
f 30/1/52 3/1/52 14/1/52 31/1/52
f 31/1/53 14/1/53 15/1/53 32/1/53
f 32/1/54 15/1/54 16/1/54 33/1/54
f 33/1/55 16/1/55 54/1/55 49/1/55
f 49/1/56 54/1/56 17/1/56 34/1/56
f 34/1/57 17/1/57 18/1/57 35/1/57
f 35/1/58 18/1/58 19/1/58 36/1/58
f 164/1/59 171/1/59 6/1/59 1/1/59
f 44/1/60 84/1/60 199/1/60 198/1/60 195/1/60
f 164/1/61 1/1/61 2/1/61 165/1/61
f 152/1/62 27/1/62 51/1/62 159/1/62
f 200/1/63 4/1/63 56/1/63 45/1/63 201/1/63
f 152/1/64 153/1/64 59/1/64 27/1/64
s 1
f 192/19/18 13/16/17 60/1/65 194/1/65 202/20/65
s 0
f 153/1/66 154/1/66 60/1/66 59/1/66
f 166/1/67 175/1/67 14/1/67 3/1/67
f 155/1/68 25/1/68 24/1/68 161/1/68
f 161/1/69 24/1/69 48/1/69 156/1/69
f 156/1/70 48/1/70 23/1/70 162/1/70
f 162/1/71 23/1/71 22/1/71 157/1/71
f 157/1/72 22/1/72 21/1/72 163/1/72
f 163/1/73 21/1/73 20/1/73 150/1/73
f 86/1/74 70/1/74 66/1/74 93/1/74
f 81/1/75 82/1/75 70/1/75 67/1/75
f 80/1/76 69/1/76 61/1/76 73/1/76
f 79/1/77 68/1/77 69/1/77 80/1/77
f 81/1/78 67/1/78 68/1/78 79/1/78
f 77/1/79 65/1/79 66/1/79 78/1/79
f 76/1/80 64/1/80 65/1/80 77/1/80
f 74/1/81 83/1/81 71/1/81 62/1/81
f 89/1/82 91/1/82 64/1/82 62/1/82
f 83/1/83 75/1/83 63/1/83 71/1/83
f 204/1/84 72/1/84 96/1/84 205/1/84 203/1/84
f 72/1/85 63/1/85 75/1/85 84/1/85
f 55/1/86 46/1/86 75/1/86 83/1/86
f 43/1/87 55/1/87 83/1/87 74/1/87
f 47/1/88 76/1/88 77/1/88 42/1/88
f 42/1/89 77/1/89 78/1/89 41/1/89
f 40/1/90 81/1/90 79/1/90 39/1/90
f 39/1/91 79/1/91 80/1/91 38/1/91
f 38/1/92 80/1/92 73/1/92 37/1/92
f 40/1/75 52/1/75 82/1/75 81/1/75
f 70/1/93 82/1/93 78/1/93 66/1/93
f 62/1/94 64/1/94 76/1/94 74/1/94
f 199/1/95 84/1/95 72/1/95 204/1/95 206/1/95
f 84/1/96 75/1/96 46/1/96 44/1/96
f 101/1/97 103/1/97 91/1/97 89/1/97
f 98/1/98 86/1/98 93/1/98 105/1/98
f 67/1/99 70/1/99 86/1/99 85/1/99
f 69/1/100 95/1/100 88/1/100 61/1/100
f 68/1/101 94/1/101 95/1/101 69/1/101
f 67/1/102 85/1/102 94/1/102 68/1/102
f 65/1/103 92/1/103 93/1/103 66/1/103
f 64/1/104 91/1/104 92/1/104 65/1/104
f 62/1/105 71/1/105 87/1/105 89/1/105
f 71/1/106 63/1/106 90/1/106 87/1/106
f 108/1/107 208/1/107 207/1/107 205/1/107 96/1/107
f 96/1/108 90/1/108 63/1/108 72/1/108
f 33/1/109 98/1/109 105/1/109 32/1/109
f 29/1/110 30/1/110 103/1/110 101/1/110
f 85/1/111 86/1/111 98/1/111 97/1/111
f 95/1/112 107/1/112 100/1/112 88/1/112
f 94/1/113 106/1/113 107/1/113 95/1/113
f 85/1/114 97/1/114 106/1/114 94/1/114
f 92/1/115 104/1/115 105/1/115 93/1/115
f 91/1/116 103/1/116 104/1/116 92/1/116
f 89/1/117 87/1/117 99/1/117 101/1/117
f 87/1/118 90/1/118 102/1/118 99/1/118
f 108/1/119 102/1/119 90/1/119 96/1/119
f 45/1/120 201/1/120 209/1/120 208/1/120 108/1/120
s 1
f 210/21/121 193/1/121 110/1/121 211/22/121
s 0
f 195/1/122 44/1/122 109/1/122 110/1/122 211/1/122 212/1/122
f 47/1/123 116/1/123 112/1/123 43/1/123
f 42/1/124 117/1/124 116/1/124 47/1/124
f 41/1/125 118/1/125 117/1/125 42/1/125
f 48/1/126 24/1/126 118/1/126 114/1/126
f 39/1/127 120/1/127 119/1/127 40/1/127
f 38/1/128 121/1/128 120/1/128 39/1/128
f 23/1/129 48/1/129 114/1/129 119/1/129
f 55/1/130 113/1/130 115/1/130 46/1/130
f 37/1/131 111/1/131 121/1/131 38/1/131
f 43/1/132 112/1/132 113/1/132 55/1/132
f 141/1/133 135/1/133 122/1/133 142/1/133
f 109/1/134 115/1/134 51/1/134 27/1/134
f 149/1/135 134/1/135 135/1/135 141/1/135
f 140/1/136 133/1/136 134/1/136 149/1/136
f 148/1/137 132/1/137 133/1/137 140/1/137
f 139/1/138 131/1/138 132/1/138 148/1/138
f 147/1/139 130/1/139 131/1/139 139/1/139
f 160/1/140 155/1/140 130/1/140 129/1/140
f 145/1/141 146/1/141 128/1/141 127/1/141
f 144/1/142 145/1/142 127/1/142 126/1/142
f 144/1/143 126/1/143 125/1/143 137/1/143
f 158/1/144 124/1/144 125/1/144 159/1/144
f 158/1/145 151/1/145 123/1/145 124/1/145
f 138/1/146 143/1/146 123/1/146 129/1/146
f 166/1/147 171/1/147 143/1/147 138/1/147
f 172/1/148 144/1/148 137/1/148 165/1/148
f 172/1/149 173/1/149 145/1/149 144/1/149
f 173/1/150 174/1/150 146/1/150 145/1/150
f 175/1/151 147/1/151 139/1/151 167/1/151
f 167/1/152 139/1/152 148/1/152 176/1/152
f 176/1/153 148/1/153 140/1/153 168/1/153
f 168/1/154 140/1/154 149/1/154 177/1/154
f 177/1/155 149/1/155 141/1/155 169/1/155
f 169/1/156 141/1/156 142/1/156 170/1/156
f 129/1/157 130/1/157 147/1/157 138/1/157
f 124/1/158 136/1/158 137/1/158 125/1/158
f 124/1/159 123/1/159 143/1/159 136/1/159
f 58/1/160 26/1/160 151/1/160 158/1/160
f 58/1/161 158/1/161 159/1/161 51/1/161
f 50/1/162 25/1/162 155/1/162 160/1/162
f 135/1/163 163/1/163 150/1/163 122/1/163
f 134/1/164 157/1/164 163/1/164 135/1/164
f 133/1/165 162/1/165 157/1/165 134/1/165
f 132/1/166 156/1/166 162/1/166 133/1/166
f 131/1/167 161/1/167 156/1/167 132/1/167
f 130/1/168 155/1/168 161/1/168 131/1/168
f 127/1/169 128/1/169 154/1/169 153/1/169
f 126/1/170 127/1/170 153/1/170 152/1/170
f 126/1/171 152/1/171 159/1/171 125/1/171
f 129/1/172 123/1/172 151/1/172 160/1/172
f 18/1/173 169/1/173 170/1/173 19/1/173
f 17/1/174 177/1/174 169/1/174 18/1/174
f 54/1/175 168/1/175 177/1/175 17/1/175
f 16/1/176 176/1/176 168/1/176 54/1/176
f 15/1/177 167/1/177 176/1/177 16/1/177
f 14/1/178 175/1/178 167/1/178 15/1/178
f 56/1/179 4/1/179 174/1/179 173/1/179
f 5/1/180 56/1/180 173/1/180 172/1/180
f 5/1/181 172/1/181 165/1/181 2/1/181
f 3/1/182 6/1/182 171/1/182 166/1/182
f 138/1/183 147/1/183 175/1/183 166/1/183
f 136/1/184 164/1/184 165/1/184 137/1/184
f 136/1/185 143/1/185 171/1/185 164/1/185
s 1
f 154/1/186 9/13/14 12/12/13 8/6/7 128/1/187
f 9/13/14 154/1/186 13/16/17
