# Blender 4.1.1
# www.blender.org
mtllib glasses_5_temple_right.mtl
o Cube.006
v -0.080318 0.009611 -0.049634
v -0.080449 0.009580 -0.050763
v -0.079135 0.009651 -0.042451
v -0.080850 0.009534 -0.053440
v -0.080669 0.009628 -0.051852
v -0.080112 0.009654 -0.048061
v -0.080976 0.009844 -0.053404
v -0.080928 0.010601 -0.053399
v -0.080864 0.011215 -0.053411
v -0.080928 0.009646 -0.053421
v -0.080961 0.010215 -0.053405
v -0.080866 0.010925 -0.053414
v -0.080848 0.011491 -0.053353
v -0.077932 0.009651 -0.035039
v -0.076738 0.009647 -0.027064
v -0.075320 0.009482 -0.018839
v -0.073714 0.009476 -0.009701
v -0.072521 0.009311 -0.002756
v -0.071911 0.009308 0.001535
v -0.071757 0.012848 0.002000
v -0.072701 0.013013 -0.003699
v -0.073600 0.013016 -0.008907
v -0.075232 0.012860 -0.018204
v -0.077010 0.012867 -0.028651
v -0.078372 0.012548 -0.037423
v -0.079935 0.012389 -0.047104
v -0.080714 0.011905 -0.052212
v -0.079712 0.009603 -0.050920
v -0.079371 0.009674 -0.048181
v -0.078394 0.009636 -0.042574
v -0.077227 0.009637 -0.035150
v -0.076034 0.009635 -0.027175
v -0.074622 0.009486 -0.018979
v -0.073016 0.009480 -0.009843
v -0.071824 0.009314 -0.002886
v -0.070889 0.009338 0.001052
v -0.070841 0.012737 0.001487
v -0.071738 0.012959 -0.003817
v -0.072652 0.012962 -0.009109
v -0.074265 0.012843 -0.018300
v -0.076051 0.012817 -0.028790
v -0.077421 0.012506 -0.037626
v -0.078972 0.012376 -0.047254
v -0.079660 0.011921 -0.052422
v -0.079914 0.009588 -0.052606
v -0.079489 0.012064 -0.050864
v -0.078242 0.012431 -0.043065
v -0.075893 0.012863 -0.021955
v -0.073923 0.009484 -0.015015
v -0.079171 0.012460 -0.042651
v -0.080449 0.012059 -0.050685
v -0.074930 0.012834 -0.022068
v -0.079581 0.009633 -0.049772
v -0.074666 0.009479 -0.015131
v -0.079305 0.012195 -0.049360
v -0.080816 0.009604 -0.052666
v -0.079881 0.009610 -0.051878
v -0.080259 0.012198 -0.049202
v -0.080809 0.011825 -0.052886
v -0.080829 0.011785 -0.053352
v -0.070867 0.010890 0.001250
v -0.079189 0.010908 -0.047758
v -0.079606 0.010727 -0.050895
v -0.078324 0.010912 -0.042798
v -0.077315 0.010947 -0.036280
v -0.076043 0.011087 -0.027912
v -0.074080 0.011017 -0.016513
v -0.072850 0.011069 -0.009507
v -0.071785 0.010977 -0.003311
v -0.074763 0.011014 -0.020388
v -0.079452 0.010803 -0.049584
v -0.079781 0.010755 -0.052515
v -0.070854 0.011813 0.001369
v -0.079080 0.011642 -0.047506
v -0.079546 0.011395 -0.050880
v -0.078282 0.011671 -0.042932
v -0.077368 0.011726 -0.036953
v -0.076047 0.011952 -0.028351
v -0.072751 0.012016 -0.009308
v -0.071762 0.011968 -0.003564
v -0.074172 0.011930 -0.017407
v -0.074847 0.011924 -0.021228
v -0.079378 0.011499 -0.049472
v -0.079716 0.011366 -0.052467
v -0.074001 0.010250 -0.015764
v -0.074693 0.010250 -0.019684
v -0.079516 0.010218 -0.049678
v -0.070878 0.010114 0.001151
v -0.079280 0.010291 -0.047969
v -0.079658 0.010165 -0.050908
v -0.078359 0.010274 -0.042686
v -0.077271 0.010292 -0.035715
v -0.076039 0.010361 -0.027543
v -0.072933 0.010275 -0.009675
v -0.071804 0.010146 -0.003098
v -0.079844 0.010190 -0.052560
v -0.073962 0.009867 -0.015389
v -0.074658 0.009868 -0.019331
v -0.079548 0.009926 -0.049725
v -0.070884 0.009726 0.001101
v -0.079325 0.009983 -0.048075
v -0.079685 0.009884 -0.050914
v -0.078376 0.009955 -0.042630
v -0.077250 0.009964 -0.035433
v -0.076036 0.009998 -0.027359
v -0.072975 0.009878 -0.009759
v -0.071814 0.009730 -0.002992
v -0.079880 0.009876 -0.052584
v -0.080310 0.011911 -0.052070
v -0.080269 0.011848 -0.053409
v -0.071299 0.012793 0.001743
v -0.079453 0.012383 -0.047179
v -0.079781 0.012197 -0.049281
v -0.075412 0.012848 -0.022011
v -0.079968 0.012061 -0.050775
v -0.078706 0.012445 -0.042858
v -0.077896 0.012527 -0.037525
v -0.076531 0.012842 -0.028721
v -0.074749 0.012852 -0.018252
v -0.073126 0.012989 -0.009008
v -0.072219 0.012986 -0.003758
v -0.071834 0.011078 0.001767
v -0.080024 0.011021 -0.047582
v -0.080286 0.010904 -0.049418
v -0.080444 0.010819 -0.050724
v -0.080686 0.010767 -0.052033
v -0.080807 0.010714 -0.052776
v -0.080833 0.010660 -0.053396
v -0.079152 0.011056 -0.042552
v -0.078152 0.011100 -0.036231
v -0.076875 0.011257 -0.027857
v -0.075607 0.011172 -0.020396
v -0.074949 0.011170 -0.016666
v -0.073657 0.011246 -0.009304
v -0.072611 0.011162 -0.003227
v -0.080301 0.010258 -0.049526
v -0.080446 0.010200 -0.050744
v -0.079143 0.010354 -0.042502
v -0.076807 0.010452 -0.027461
v -0.074808 0.010325 -0.015898
v -0.072566 0.010236 -0.002992
v -0.071873 0.010193 0.001651
v -0.080068 0.010338 -0.047822
v -0.080677 0.010197 -0.051943
v -0.080810 0.010159 -0.052721
v -0.080840 0.010097 -0.053418
v -0.078042 0.010375 -0.035635
v -0.075464 0.010327 -0.019617
v -0.073685 0.010361 -0.009502
v -0.071796 0.011963 0.001883
v -0.079979 0.011705 -0.047343
v -0.080699 0.011336 -0.052123
v -0.080806 0.011269 -0.052831
v -0.080830 0.011222 -0.053374
v -0.078262 0.011824 -0.036827
v -0.075750 0.012017 -0.021176
v -0.073629 0.012131 -0.009105
v -0.080272 0.011551 -0.049310
v -0.080445 0.011439 -0.050704
v -0.079161 0.011758 -0.042601
v -0.076943 0.012062 -0.028254
v -0.075090 0.012015 -0.017435
v -0.072656 0.012087 -0.003463
v -0.080309 0.009934 -0.049580
v -0.080447 0.009890 -0.050754
v -0.079139 0.010002 -0.042477
v -0.076772 0.010050 -0.027262
v -0.074737 0.009902 -0.015515
v -0.072544 0.009774 -0.002874
v -0.071892 0.009750 0.001593
v -0.080090 0.009996 -0.047941
v -0.080673 0.009913 -0.051898
v -0.080813 0.009881 -0.052693
v -0.080845 0.009816 -0.053429
v -0.077987 0.010013 -0.035337
v -0.075392 0.009904 -0.019228
v -0.073700 0.009919 -0.009601
v -0.080831 0.009531 -0.053472
v -0.080871 0.009534 -0.053466
v -0.080802 0.009527 -0.053476
v -0.080941 0.009641 -0.053455
v -0.080993 0.009837 -0.053448
v -0.080876 0.009550 -0.053465
v -0.080965 0.010346 -0.053452
v -0.080980 0.010207 -0.053450
v -0.080945 0.010604 -0.053455
v -0.080990 0.009948 -0.053448
v -0.080883 0.010933 -0.053464
v -0.080882 0.011224 -0.053464
v -0.080923 0.010729 -0.053458
v -0.080878 0.011333 -0.053465
v -0.080878 0.011512 -0.053465
v -0.080583 0.011792 -0.053508
v -0.080837 0.011765 -0.053471
v -0.079771 0.011914 -0.053626
v -0.079784 0.011787 -0.053624
v -0.080147 0.009514 -0.053571
v -0.079811 0.011359 -0.053620
v -0.079817 0.011303 -0.053619
v -0.080790 0.009526 -0.053478
v -0.079985 0.009463 -0.053595
v -0.080847 0.011616 -0.053469
v -0.079879 0.010584 -0.053610
v -0.079869 0.010680 -0.053612
v -0.079921 0.010104 -0.053604
v -0.079823 0.011237 -0.053619
v -0.079929 0.010036 -0.053603
v -0.079951 0.009799 -0.053600
v -0.079959 0.009728 -0.053599
v -0.080459 0.011836 -0.053526
v -0.079917 0.011895 -0.053605
v -0.079796 0.011914 -0.053622
vn -0.1023 -0.9935 0.0502
vn 0.8840 0.2503 -0.3948
vn 0.7348 0.5505 -0.3962
vn 0.9340 -0.0561 -0.3528
vn 0.9451 -0.0808 -0.3166
vn 0.9360 -0.1326 -0.3260
vn 0.9332 -0.0763 -0.3512
vn 0.9369 -0.0621 -0.3440
vn 0.9241 -0.0369 -0.3804
vn 0.9396 -0.0909 -0.3301
vn 0.9560 -0.0046 -0.2934
vn 0.7583 0.0327 -0.6511
vn 0.7990 0.0277 -0.6007
vn 0.9232 -0.1874 -0.3354
vn 0.9633 -0.0044 -0.2684
vn 0.9816 -0.0599 -0.1813
vn 0.9722 0.0228 -0.2331
vn -0.9855 0.0006 0.1696
vn 0.0354 -0.9991 0.0227
vn 0.9871 0.0064 -0.1598
vn 0.1425 -0.9870 0.0744
vn -0.0064 0.9961 -0.0884
vn 0.9895 -0.0929 -0.1107
vn 0.0929 0.9955 0.0163
vn -0.0175 0.9958 -0.0896
vn 0.0001 -0.9996 -0.0267
vn 0.9819 -0.0834 -0.1703
vn 0.9871 -0.0950 -0.1289
vn 0.9736 -0.1981 -0.1136
vn 0.9852 -0.0739 -0.1545
vn 0.9869 -0.0647 -0.1479
vn 0.0237 0.9997 -0.0058
vn 0.9828 -0.0670 -0.1723
vn 0.9832 -0.0665 -0.1701
vn 0.9735 -0.0342 -0.2261
vn -0.0479 0.9945 -0.0935
vn 0.0549 0.9985 -0.0089
vn 0.0341 0.9992 -0.0217
vn 0.0399 0.9992 -0.0084
vn 0.0403 0.9983 -0.0422
vn 0.0311 0.9993 -0.0208
vn 0.0168 0.9997 -0.0182
vn 0.9825 -0.0690 -0.1733
vn 0.9838 -0.0705 -0.1650
vn -0.0770 0.9939 -0.0783
vn 0.9804 -0.1262 -0.1511
vn -0.0206 -0.9993 0.0324
vn 0.0328 -0.9992 0.0222
vn 0.0031 -1.0000 -0.0042
vn -0.0196 -0.9998 0.0032
vn -0.0186 -0.9998 0.0024
vn -0.0092 -0.9998 -0.0176
vn 0.0058 -1.0000 -0.0016
vn 0.0056 -1.0000 -0.0016
vn 0.0002 -0.9997 -0.0239
vn 0.0190 -0.9998 -0.0010
vn -0.9913 0.0111 0.1308
vn -0.9927 0.0837 0.0864
vn -0.9932 0.0045 0.1160
vn -0.9847 -0.0056 0.1740
vn -0.0427 -0.9928 0.1120
vn -0.9896 0.0025 0.1439
vn 0.9887 -0.1079 -0.1038
vn -0.9990 -0.0008 0.0443
vn -0.9871 -0.0099 0.1597
vn -0.9881 -0.0156 0.1532
vn -0.9862 -0.0080 0.1653
vn -0.9848 -0.0065 0.1737
vn -0.9849 -0.0070 0.1730
vn -0.9854 -0.0052 0.1700
vn -0.9869 0.0073 0.1613
vn 0.9830 -0.0725 -0.1686
vn 0.9824 -0.0697 -0.1732
vn 0.9814 -0.0320 -0.1895
vn 0.9832 -0.0669 -0.1699
vn 0.9828 -0.0675 -0.1719
vn 0.9865 -0.0669 -0.1493
vn 0.9859 -0.0721 -0.1512
vn 0.9860 -0.0909 -0.1400
vn 0.9815 -0.0853 -0.1713
vn 0.9900 -0.0872 -0.1112
vn -0.9927 0.0986 0.0699
vn 0.9901 -0.0912 -0.1064
vn 0.9901 -0.0835 -0.1129
vn 0.9855 -0.0872 -0.1457
vn 0.9863 -0.0697 -0.1492
vn 0.9864 -0.0673 -0.1501
vn 0.9828 -0.0674 -0.1717
vn 0.9832 -0.0670 -0.1698
vn 0.9841 -0.0311 -0.1746
vn 0.9833 -0.0718 -0.1670
vn 0.9816 -0.0852 -0.1709
vn -0.9927 0.0915 0.0781
vn 0.9910 -0.0864 -0.1026
vn 0.9815 -0.0851 -0.1715
vn 0.9828 -0.0726 -0.1697
vn 0.9824 -0.0694 -0.1733
vn 0.9782 -0.0330 -0.2052
vn 0.9832 -0.0667 -0.1700
vn 0.9828 -0.0672 -0.1721
vn 0.9867 -0.0664 -0.1486
vn 0.9855 -0.0735 -0.1528
vn 0.9865 -0.0929 -0.1348
vn 0.9898 -0.0900 -0.1104
vn -0.9925 0.1039 0.0638
vn 0.9892 -0.0958 -0.1106
vn 0.9827 -0.0727 -0.1703
vn 0.9815 -0.0846 -0.1716
vn 0.9824 -0.0691 -0.1733
vn 0.9755 -0.0337 -0.2173
vn 0.9832 -0.0666 -0.1701
vn 0.9828 -0.0670 -0.1722
vn 0.9868 -0.0656 -0.1482
vn 0.9853 -0.0739 -0.1538
vn 0.9869 -0.0942 -0.1312
vn 0.9897 -0.0916 -0.1104
vn 0.9885 -0.0992 -0.1138
vn -0.9925 0.1064 0.0601
vn 0.1358 -0.9842 -0.1136
vn -0.0790 0.9966 -0.0247
vn 0.0173 0.9997 -0.0168
vn 0.0316 0.9993 -0.0194
vn 0.0405 0.9983 -0.0417
vn 0.0401 0.9992 -0.0069
vn 0.0344 0.9992 -0.0199
vn 0.0550 0.9984 -0.0089
vn 0.0238 0.9997 -0.0043
vn -0.0168 0.9961 -0.0865
vn 0.0949 0.9952 0.0222
vn -0.0059 0.9963 -0.0859
vn -0.9885 0.0064 0.1509
vn -0.0038 0.9943 -0.1062
vn -0.9855 -0.0055 0.1695
vn -0.9849 -0.0074 0.1729
vn -0.9848 -0.0068 0.1738
vn -0.9858 -0.0066 0.1680
vn -0.9885 -0.0174 0.1503
vn -0.9878 -0.0121 0.1552
vn -0.9990 0.0106 0.0425
vn -0.9864 0.0157 0.1634
vn -0.9827 0.0041 0.1853
vn -0.9925 -0.0021 0.1221
vn -0.9896 0.0061 0.1440
vn -0.9853 0.0021 0.1710
vn -0.9852 0.0016 0.1714
vn -0.9815 0.0074 0.1913
vn -0.9852 0.0200 0.1703
vn -0.9990 0.0146 0.0423
vn -0.9886 -0.0185 0.1492
vn -0.9856 -0.0067 0.1689
vn -0.9848 -0.0072 0.1738
vn -0.9849 -0.0076 0.1728
vn -0.9856 -0.0057 0.1693
vn -0.9893 0.0060 0.1461
vn -0.9875 -0.0105 0.1574
vn -0.9929 0.0011 0.1191
vn -0.9904 0.0084 0.1381
vn -0.9887 0.0025 0.1498
vn -0.9921 -0.0058 0.1256
vn -0.9882 -0.0144 0.1527
vn -0.9877 0.0069 0.1565
vn -0.9855 -0.0053 0.1697
vn -0.9849 -0.0071 0.1729
vn -0.9848 -0.0065 0.1738
vn -0.9860 -0.0072 0.1667
vn -0.9883 -0.0164 0.1518
vn -0.9991 0.0051 0.0431
vn -0.9880 0.0093 0.1539
vn -0.9839 -0.0006 0.1789
vn -0.9854 0.0021 0.1704
vn -0.9898 0.0055 0.1426
vn -0.9856 -0.0058 0.1692
vn -0.9849 -0.0079 0.1728
vn -0.9848 -0.0074 0.1737
vn -0.9855 -0.0066 0.1694
vn -0.9887 -0.0197 0.1485
vn -0.9990 0.0171 0.0424
vn -0.9843 0.0225 0.1748
vn -0.9806 0.0094 0.1959
vn -0.9852 0.0015 0.1715
vn -0.9873 -0.0099 0.1588
vn -0.9931 0.0032 0.1172
vn -0.9910 0.0099 0.1336
vn 0.6109 0.0545 -0.7898
vn 0.4445 -0.0142 -0.8957
vt 0.000000 0.000000
vt 0.000430 0.000286
vt 0.000898 0.000599
vt 0.436866 0.250000
vt 0.454788 0.250000
vt 0.487801 0.250000
vt 0.487875 0.250000
vt 0.437470 0.250000
vt 0.375000 0.250000
vt 0.393672 0.250000
vt 0.525765 0.250000
vt 0.557145 0.250000
vt 0.556690 0.250000
vt 0.525529 0.250000
vt 0.502190 0.250000
vt 0.568768 0.250000
vt 0.588004 0.250000
vt 0.586436 0.250000
vt 0.587997 0.249997
vt 0.331136 0.140798
vt 0.125148 0.050175
vt -0.000005 -0.000002
s 0
usemtl Material.007
f 4/1/1 179/1/1 178/2/1 180/3/1
f 181/1/2 182/1/2 7/1/2 10/1/2
f 179/1/3 183/1/3 181/1/3 10/1/3 4/1/3
s 1
f 185/4/4 184/5/5 186/6/6 8/7/7 11/8/8
f 182/9/9 187/10/9 185/4/4 11/8/8 7/9/9
f 188/11/10 189/12/11 9/13/12 12/14/13
f 186/6/6 190/15/14 188/11/10 12/14/13 8/7/7
f 189/12/11 191/16/15 192/17/16 13/18/17 9/13/12
s 0
f 160/1/18 50/1/18 26/1/18 151/1/18
f 28/1/19 53/1/19 1/1/19 2/1/19
f 50/1/20 25/1/20 27/1/20 58/1/20 26/1/20
f 58/1/21 27/1/21 51/1/21
f 112/1/22 113/1/22 58/1/22 26/1/22
f 99/1/23 53/1/23 28/1/23 102/1/23
f 111/1/24 121/1/24 21/1/24 20/1/24
f 113/1/25 115/1/25 51/1/25 58/1/25
f 5/1/26 57/1/26 28/1/26 2/1/26
f 74/1/27 43/1/27 47/1/27 76/1/27
f 101/1/28 29/1/28 53/1/28 99/1/28
f 45/1/29 108/1/29 102/1/29 28/1/29 57/1/29
f 103/1/30 104/1/30 31/1/30 30/1/30
f 104/1/31 105/1/31 32/1/31 31/1/31
f 119/1/32 40/1/32 52/1/32 114/1/32
f 97/1/33 106/1/33 34/1/33 49/1/33
f 106/1/34 107/1/34 35/1/34 34/1/34
f 107/1/35 100/1/35 36/1/35 35/1/35
f 46/1/36 44/1/36 109/1/36 115/1/36
f 121/1/37 120/1/37 22/1/37 21/1/37
f 120/1/38 119/1/38 23/1/38 22/1/38
f 114/1/39 52/1/39 41/1/39 118/1/39
f 118/1/40 117/1/40 25/1/40 24/1/40
f 117/1/41 116/1/41 50/1/41 25/1/41
f 116/1/42 112/1/42 26/1/42 50/1/42
f 97/1/43 49/1/43 33/1/43 98/1/43
f 82/1/44 78/1/44 41/1/44 52/1/44
f 27/1/45 109/1/45 110/1/45 193/1/45 194/1/45 60/1/45 59/1/45
f 197/1/46 196/1/46 195/1/46 44/1/46 84/1/46 72/1/46 96/1/46 108/1/46 45/1/46
f 5/1/47 56/1/47 45/1/47 57/1/47
f 53/1/48 29/1/48 6/1/48 1/1/48
f 29/1/49 30/1/49 3/1/49 6/1/49
f 30/1/50 31/1/50 14/1/50 3/1/50
f 31/1/51 32/1/51 15/1/51 14/1/51
f 32/1/52 33/1/52 16/1/52 15/1/52
f 33/1/53 49/1/53 54/1/53 16/1/53
f 49/1/54 34/1/54 17/1/54 54/1/54
f 34/1/55 35/1/55 18/1/55 17/1/55
f 35/1/56 36/1/56 19/1/56 18/1/56
f 164/1/57 1/1/57 6/1/57 171/1/57
f 44/1/58 195/1/58 198/1/58 199/1/58 84/1/58
f 164/1/59 165/1/59 2/1/59 1/1/59
f 152/1/60 159/1/60 51/1/60 27/1/60
f 200/1/61 201/1/61 45/1/61 56/1/61 4/1/61
f 152/1/62 27/1/62 59/1/62 153/1/62
s 1
f 192/19/16 202/20/63 194/1/63 60/1/63 13/18/17
s 0
f 153/1/64 59/1/64 60/1/64 154/1/64
f 166/1/65 3/1/65 14/1/65 175/1/65
f 155/1/66 161/1/66 24/1/66 25/1/66
f 161/1/67 156/1/67 48/1/67 24/1/67
f 156/1/68 162/1/68 23/1/68 48/1/68
f 162/1/69 157/1/69 22/1/69 23/1/69
f 157/1/70 163/1/70 21/1/70 22/1/70
f 163/1/71 150/1/71 20/1/71 21/1/71
f 86/1/72 93/1/72 66/1/72 70/1/72
f 81/1/73 67/1/73 70/1/73 82/1/73
f 80/1/74 73/1/74 61/1/74 69/1/74
f 79/1/75 80/1/75 69/1/75 68/1/75
f 81/1/76 79/1/76 68/1/76 67/1/76
f 77/1/77 78/1/77 66/1/77 65/1/77
f 76/1/78 77/1/78 65/1/78 64/1/78
f 74/1/79 62/1/79 71/1/79 83/1/79
f 89/1/80 62/1/80 64/1/80 91/1/80
f 83/1/81 71/1/81 63/1/81 75/1/81
f 204/1/82 203/1/82 205/1/82 96/1/82 72/1/82
f 72/1/83 84/1/83 75/1/83 63/1/83
f 55/1/84 83/1/84 75/1/84 46/1/84
f 43/1/85 74/1/85 83/1/85 55/1/85
f 47/1/86 42/1/86 77/1/86 76/1/86
f 42/1/87 41/1/87 78/1/87 77/1/87
f 40/1/88 39/1/88 79/1/88 81/1/88
f 39/1/89 38/1/89 80/1/89 79/1/89
f 38/1/90 37/1/90 73/1/90 80/1/90
f 40/1/73 81/1/73 82/1/73 52/1/73
f 70/1/91 66/1/91 78/1/91 82/1/91
f 62/1/92 74/1/92 76/1/92 64/1/92
f 199/1/93 206/1/93 204/1/93 72/1/93 84/1/93
f 84/1/94 44/1/94 46/1/94 75/1/94
f 101/1/95 89/1/95 91/1/95 103/1/95
f 98/1/96 105/1/96 93/1/96 86/1/96
f 67/1/97 85/1/97 86/1/97 70/1/97
f 69/1/98 61/1/98 88/1/98 95/1/98
f 68/1/99 69/1/99 95/1/99 94/1/99
f 67/1/100 68/1/100 94/1/100 85/1/100
f 65/1/101 66/1/101 93/1/101 92/1/101
f 64/1/102 65/1/102 92/1/102 91/1/102
f 62/1/103 89/1/103 87/1/103 71/1/103
f 71/1/104 87/1/104 90/1/104 63/1/104
f 108/1/105 96/1/105 205/1/105 207/1/105 208/1/105
f 96/1/106 72/1/106 63/1/106 90/1/106
f 33/1/107 32/1/107 105/1/107 98/1/107
f 29/1/108 101/1/108 103/1/108 30/1/108
f 85/1/109 97/1/109 98/1/109 86/1/109
f 95/1/110 88/1/110 100/1/110 107/1/110
f 94/1/111 95/1/111 107/1/111 106/1/111
f 85/1/112 94/1/112 106/1/112 97/1/112
f 92/1/113 93/1/113 105/1/113 104/1/113
f 91/1/114 92/1/114 104/1/114 103/1/114
f 89/1/115 101/1/115 99/1/115 87/1/115
f 87/1/116 99/1/116 102/1/116 90/1/116
f 108/1/117 96/1/117 90/1/117 102/1/117
f 45/1/118 108/1/118 208/1/118 209/1/118 201/1/118
s 1
f 210/21/119 211/22/119 110/1/119 193/1/119
s 0
f 195/1/120 212/1/120 211/1/120 110/1/120 109/1/120 44/1/120
f 47/1/121 43/1/121 112/1/121 116/1/121
f 42/1/122 47/1/122 116/1/122 117/1/122
f 41/1/123 42/1/123 117/1/123 118/1/123
f 48/1/124 114/1/124 118/1/124 24/1/124
f 39/1/125 40/1/125 119/1/125 120/1/125
f 38/1/126 39/1/126 120/1/126 121/1/126
f 23/1/127 119/1/127 114/1/127 48/1/127
f 55/1/128 46/1/128 115/1/128 113/1/128
f 37/1/129 38/1/129 121/1/129 111/1/129
f 43/1/130 55/1/130 113/1/130 112/1/130
f 141/1/131 142/1/131 122/1/131 135/1/131
f 109/1/132 27/1/132 51/1/132 115/1/132
f 149/1/133 141/1/133 135/1/133 134/1/133
f 140/1/134 149/1/134 134/1/134 133/1/134
f 148/1/135 140/1/135 133/1/135 132/1/135
f 139/1/136 148/1/136 132/1/136 131/1/136
f 147/1/137 139/1/137 131/1/137 130/1/137
f 160/1/138 129/1/138 130/1/138 155/1/138
f 145/1/139 127/1/139 128/1/139 146/1/139
f 144/1/140 126/1/140 127/1/140 145/1/140
f 144/1/141 137/1/141 125/1/141 126/1/141
f 158/1/142 159/1/142 125/1/142 124/1/142
f 158/1/143 124/1/143 123/1/143 151/1/143
f 138/1/144 129/1/144 123/1/144 143/1/144
f 166/1/145 138/1/145 143/1/145 171/1/145
f 172/1/146 165/1/146 137/1/146 144/1/146
f 172/1/147 144/1/147 145/1/147 173/1/147
f 173/1/148 145/1/148 146/1/148 174/1/148
f 175/1/149 167/1/149 139/1/149 147/1/149
f 167/1/150 176/1/150 148/1/150 139/1/150
f 176/1/151 168/1/151 140/1/151 148/1/151
f 168/1/152 177/1/152 149/1/152 140/1/152
f 177/1/153 169/1/153 141/1/153 149/1/153
f 169/1/154 170/1/154 142/1/154 141/1/154
f 129/1/155 138/1/155 147/1/155 130/1/155
f 124/1/156 125/1/156 137/1/156 136/1/156
f 124/1/157 136/1/157 143/1/157 123/1/157
f 58/1/158 158/1/158 151/1/158 26/1/158
f 58/1/159 51/1/159 159/1/159 158/1/159
f 50/1/160 160/1/160 155/1/160 25/1/160
f 135/1/161 122/1/161 150/1/161 163/1/161
f 134/1/162 135/1/162 163/1/162 157/1/162
f 133/1/163 134/1/163 157/1/163 162/1/163
f 132/1/164 133/1/164 162/1/164 156/1/164
f 131/1/165 132/1/165 156/1/165 161/1/165
f 130/1/166 131/1/166 161/1/166 155/1/166
f 127/1/167 153/1/167 154/1/167 128/1/167
f 126/1/168 152/1/168 153/1/168 127/1/168
f 126/1/169 125/1/169 159/1/169 152/1/169
f 129/1/170 160/1/170 151/1/170 123/1/170
f 18/1/171 19/1/171 170/1/171 169/1/171
f 17/1/172 18/1/172 169/1/172 177/1/172
f 54/1/173 17/1/173 177/1/173 168/1/173
f 16/1/174 54/1/174 168/1/174 176/1/174
f 15/1/175 16/1/175 176/1/175 167/1/175
f 14/1/176 15/1/176 167/1/176 175/1/176
f 56/1/177 173/1/177 174/1/177 4/1/177
f 5/1/178 172/1/178 173/1/178 56/1/178
f 5/1/179 2/1/179 165/1/179 172/1/179
f 3/1/180 166/1/180 171/1/180 6/1/180
f 138/1/181 166/1/181 175/1/181 147/1/181
f 136/1/182 137/1/182 165/1/182 164/1/182
f 136/1/183 164/1/183 171/1/183 143/1/183
s 1
f 154/1/184 128/1/185 8/7/7 12/14/13 9/13/12
f 9/13/12 13/18/17 154/1/184
