# Blender 4.1.1
# www.blender.org
mtllib glasses_7_lenses.mtl
o Plane
v 0.019579 -0.018693 0.007288
v 0.059270 -0.016724 0.006389
v 0.008258 0.012589 0.009528
v 0.069672 0.022039 0.004245
v 0.007333 0.011011 0.009528
v 0.006751 0.000991 0.009394
v 0.011769 -0.009743 0.008912
v 0.028379 -0.022342 0.007059
v 0.038771 -0.025090 0.006665
v 0.050569 -0.022461 0.006414
v 0.064883 -0.009749 0.005451
v 0.068292 -0.001239 0.005517
v 0.068931 0.009292 0.005384
v 0.054569 0.023561 0.006674
v 0.038696 0.024842 0.007553
v 0.023169 0.020550 0.008316
v 0.024523 -0.011840 0.008359
v 0.023038 0.000945 0.008921
v 0.023065 0.012738 0.008639
v 0.038112 -0.012143 0.009135
v 0.038003 0.000659 0.009919
v 0.038338 0.012922 0.009219
v 0.052563 -0.012208 0.008252
v 0.053269 -0.000519 0.008874
v 0.053690 0.011796 0.008432
v 0.019580 -0.018648 0.006991
v 0.059215 -0.016685 0.006097
v 0.008240 0.012581 0.009228
v 0.069615 0.022009 0.003952
v 0.007319 0.011007 0.009228
v 0.006740 0.000995 0.009094
v 0.011761 -0.009724 0.008613
v 0.028388 -0.022294 0.006763
v 0.038767 -0.025037 0.006370
v 0.050540 -0.022410 0.006120
v 0.064819 -0.009721 0.005159
v 0.068228 -0.001231 0.005224
v 0.068871 0.009275 0.005091
v 0.054531 0.023525 0.006379
v 0.038687 0.024805 0.007255
v 0.023164 0.020528 0.008017
v 0.024529 -0.011808 0.008060
v 0.023040 0.000948 0.008621
v 0.023062 0.012724 0.008340
v 0.038110 -0.012108 0.008837
v 0.038003 0.000661 0.009619
v 0.038333 0.012897 0.008920
v 0.052523 -0.012173 0.007957
v 0.053227 -0.000513 0.008577
v 0.053650 0.011773 0.008136
v -0.019579 -0.018693 0.007288
v -0.059270 -0.016724 0.006389
v -0.008258 0.012589 0.009528
v -0.069672 0.022039 0.004245
v -0.007333 0.011011 0.009528
v -0.006751 0.000991 0.009394
v -0.011769 -0.009743 0.008912
v -0.028379 -0.022342 0.007059
v -0.038771 -0.025090 0.006665
v -0.050569 -0.022461 0.006414
v -0.064883 -0.009749 0.005451
v -0.068292 -0.001239 0.005517
v -0.068931 0.009292 0.005384
v -0.054569 0.023561 0.006674
v -0.038696 0.024842 0.007553
v -0.023169 0.020550 0.008316
v -0.024523 -0.011840 0.008359
v -0.023038 0.000945 0.008921
v -0.023065 0.012738 0.008639
v -0.038112 -0.012143 0.009135
v -0.038003 0.000659 0.009919
v -0.038338 0.012922 0.009219
v -0.052563 -0.012208 0.008252
v -0.053269 -0.000519 0.008874
v -0.053690 0.011796 0.008432
v -0.019580 -0.018648 0.006991
v -0.059215 -0.016685 0.006097
v -0.008240 0.012581 0.009228
v -0.069615 0.022009 0.003952
v -0.007319 0.011007 0.009228
v -0.006740 0.000995 0.009094
v -0.011761 -0.009724 0.008613
v -0.028388 -0.022294 0.006763
v -0.038767 -0.025037 0.006370
v -0.050540 -0.022410 0.006120
v -0.064819 -0.009721 0.005159
v -0.068228 -0.001231 0.005224
v -0.068871 0.009275 0.005091
v -0.054531 0.023525 0.006379
v -0.038687 0.024805 0.007255
v -0.023164 0.020528 0.008017
v -0.024529 -0.011808 0.008060
v -0.023040 0.000948 0.008621
v -0.023062 0.012724 0.008340
v -0.038110 -0.012108 0.008837
v -0.038003 0.000661 0.009619
v -0.038333 0.012897 0.008920
v -0.052523 -0.012173 0.007957
v -0.053227 -0.000513 0.008577
v -0.053650 0.011773 0.008136
vn 0.1302 0.0770 0.9885
vn 0.8260 -0.0071 0.5637
vn 0.7120 0.5810 0.3943
vn 0.1437 0.7739 0.6168
vn -0.6885 0.2305 0.6876
vn 0.0107 0.0441 0.9990
vn -0.2619 0.7259 0.6359
vn -0.4850 0.5682 0.6648
vn 0.0167 0.0826 0.9964
vn -0.0531 0.8076 0.5873
vn -0.4433 -0.7027 0.5565
vn -0.2491 -0.7812 0.5724
vn -0.0190 -0.1047 0.9943
vn -0.5963 -0.4383 0.6725
vn -0.0082 -0.0105 0.9999
vn -0.7175 -0.1500 0.6803
vn -0.0098 -0.8523 0.5230
vn 0.0052 -0.1168 0.9931
vn 0.0019 -0.0064 1.0000
vn 0.3470 -0.7820 0.5178
vn 0.1333 -0.1138 0.9845
vn 0.1403 -0.0201 0.9899
vn 0.5927 -0.6178 0.5167
vn 0.7613 -0.4342 0.4816
vn 0.8425 -0.1730 0.5101
vn -0.1303 -0.0770 -0.9885
vn -0.0335 0.6292 -0.7766
vn 0.4950 0.4613 -0.7363
vn 0.5580 -0.0880 -0.8251
vn -0.7517 0.2049 -0.6268
vn -0.5673 0.5275 -0.6324
vn -0.2830 0.6265 -0.7262
vn -0.0107 -0.0441 -0.9990
vn -0.0945 0.6610 -0.7444
vn -0.0167 -0.0826 -0.9964
vn -0.4381 -0.5033 -0.7448
vn -0.6380 -0.3620 -0.6796
vn 0.0190 0.1047 -0.9943
vn -0.2135 -0.5670 -0.7956
vn -0.7642 -0.1360 -0.6304
vn 0.0083 0.0105 -0.9999
vn -0.0052 0.1168 -0.9931
vn -0.0268 -0.6326 -0.7740
vn -0.0018 0.0063 -1.0000
vn -0.1333 0.1139 -0.9845
vn 0.2207 -0.5646 -0.7953
vn -0.1403 0.0201 -0.9899
vn 0.4709 -0.3060 -0.8274
vn 0.3737 -0.4692 -0.8001
vn 0.5691 -0.1442 -0.8095
vn -0.1302 0.0770 0.9885
vn -0.1437 0.7739 0.6168
vn -0.7120 0.5810 0.3943
vn -0.8260 -0.0071 0.5637
vn 0.6885 0.2305 0.6876
vn 0.4850 0.5682 0.6648
vn 0.2619 0.7259 0.6359
vn -0.0107 0.0441 0.9990
vn 0.0531 0.8076 0.5873
vn -0.0167 0.0826 0.9964
vn 0.4433 -0.7027 0.5565
vn 0.5963 -0.4383 0.6725
vn 0.0190 -0.1047 0.9943
vn 0.2491 -0.7812 0.5724
vn 0.7175 -0.1500 0.6803
vn 0.0082 -0.0105 0.9999
vn -0.0052 -0.1168 0.9931
vn 0.0098 -0.8523 0.5230
vn -0.0019 -0.0064 1.0000
vn -0.1333 -0.1138 0.9845
vn -0.3470 -0.7820 0.5178
vn -0.1403 -0.0201 0.9899
vn -0.7613 -0.4342 0.4816
vn -0.5927 -0.6178 0.5167
vn -0.8425 -0.1730 0.5101
vn 0.1303 -0.0770 -0.9885
vn -0.5580 -0.0880 -0.8251
vn -0.4950 0.4613 -0.7363
vn 0.0335 0.6292 -0.7766
vn 0.7517 0.2049 -0.6268
vn 0.0107 -0.0441 -0.9990
vn 0.2830 0.6265 -0.7262
vn 0.5673 0.5275 -0.6324
vn 0.0167 -0.0826 -0.9964
vn 0.0945 0.6610 -0.7444
vn 0.4381 -0.5033 -0.7448
vn 0.2135 -0.5670 -0.7956
vn -0.0190 0.1047 -0.9943
vn 0.6380 -0.3620 -0.6796
vn -0.0083 0.0105 -0.9999
vn 0.7642 -0.1360 -0.6304
vn 0.0268 -0.6326 -0.7740
vn 0.0052 0.1168 -0.9931
vn 0.0018 0.0063 -1.0000
vn -0.2207 -0.5646 -0.7953
vn 0.1333 0.1139 -0.9845
vn 0.1403 0.0201 -0.9899
vn -0.3737 -0.4692 -0.8001
vn -0.4709 -0.3060 -0.8274
vn -0.5691 -0.1442 -0.8095
vt 0.750000 0.750000
vt 1.000000 0.750000
vt 1.000000 1.000000
vt 0.750000 1.000000
vt 0.000000 0.750000
vt 0.250000 0.750000
vt 0.250000 1.000000
vt 0.000000 1.000000
vt 0.500000 0.750000
vt 0.500000 1.000000
vt 0.000000 0.000000
vt 0.250000 0.000000
vt 0.250000 0.250000
vt 0.000000 0.250000
vt 0.250000 0.500000
vt 0.000000 0.500000
vt 0.500000 0.000000
vt 0.500000 0.250000
vt 0.500000 0.500000
vt 0.750000 0.000000
vt 0.750000 0.250000
vt 0.750000 0.500000
vt 1.000000 0.000000
vt 1.000000 0.250000
vt 1.000000 0.500000
s 1
f 25/1/1 13/2/2 4/3/3 14/4/4
f 5/5/5 19/6/6 16/7/7 3/8/8
f 19/6/6 22/9/9 15/10/10 16/7/7
f 22/9/9 25/1/1 14/4/4 15/10/10
f 1/11/11 8/12/12 17/13/13 7/14/14
f 7/14/14 17/13/13 18/15/15 6/16/16
f 6/16/16 18/15/15 19/6/6 5/5/5
f 8/12/12 9/17/17 20/18/18 17/13/13
f 17/13/13 20/18/18 21/19/19 18/15/15
f 18/15/15 21/19/19 22/9/9 19/6/6
f 9/17/17 10/20/20 23/21/21 20/18/18
f 20/18/18 23/21/21 24/22/22 21/19/19
f 21/19/19 24/22/22 25/1/1 22/9/9
f 10/20/20 2/23/23 11/24/24 23/21/21
f 23/21/21 11/24/24 12/25/25 24/22/22
f 24/22/22 12/25/25 13/2/2 25/1/1
f 50/1/26 39/4/27 29/3/28 38/2/29
f 30/5/30 28/8/31 41/7/32 44/6/33
f 44/6/33 41/7/32 40/10/34 47/9/35
f 47/9/35 40/10/34 39/4/27 50/1/26
f 26/11/36 32/14/37 42/13/38 33/12/39
f 32/14/37 31/16/40 43/15/41 42/13/38
f 31/16/40 30/5/30 44/6/33 43/15/41
f 33/12/39 42/13/38 45/18/42 34/17/43
f 42/13/38 43/15/41 46/19/44 45/18/42
f 43/15/41 44/6/33 47/9/35 46/19/44
f 34/17/43 45/18/42 48/21/45 35/20/46
f 45/18/42 46/19/44 49/22/47 48/21/45
f 46/19/44 47/9/35 50/1/26 49/22/47
f 35/20/46 48/21/45 36/24/48 27/23/49
f 48/21/45 49/22/47 37/25/50 36/24/48
f 49/22/47 50/1/26 38/2/29 37/25/50
f 1/11/11 7/14/14 32/14/37 26/11/36
f 2/23/23 10/20/20 35/20/46 27/23/49
f 4/3/3 13/2/2 38/2/29 29/3/28
f 3/8/8 16/7/7 41/7/32 28/8/31
f 5/5/5 3/8/8 28/8/31 30/5/30
f 6/16/16 5/5/5 30/5/30 31/16/40
f 7/14/14 6/16/16 31/16/40 32/14/37
f 8/12/12 1/11/11 26/11/36 33/12/39
f 9/17/17 8/12/12 33/12/39 34/17/43
f 10/20/20 9/17/17 34/17/43 35/20/46
f 11/24/24 2/23/23 27/23/49 36/24/48
f 12/25/25 11/24/24 36/24/48 37/25/50
f 13/2/2 12/25/25 37/25/50 38/2/29
f 14/4/4 4/3/3 29/3/28 39/4/27
f 15/10/10 14/4/4 39/4/27 40/10/34
f 16/7/7 15/10/10 40/10/34 41/7/32
f 75/1/51 64/4/52 54/3/53 63/2/54
f 55/5/55 53/8/56 66/7/57 69/6/58
f 69/6/58 66/7/57 65/10/59 72/9/60
f 72/9/60 65/10/59 64/4/52 75/1/51
f 51/11/61 57/14/62 67/13/63 58/12/64
f 57/14/62 56/16/65 68/15/66 67/13/63
f 56/16/65 55/5/55 69/6/58 68/15/66
f 58/12/64 67/13/63 70/18/67 59/17/68
f 67/13/63 68/15/66 71/19/69 70/18/67
f 68/15/66 69/6/58 72/9/60 71/19/69
f 59/17/68 70/18/67 73/21/70 60/20/71
f 70/18/67 71/19/69 74/22/72 73/21/70
f 71/19/69 72/9/60 75/1/51 74/22/72
f 60/20/71 73/21/70 61/24/73 52/23/74
f 73/21/70 74/22/72 62/25/75 61/24/73
f 74/22/72 75/1/51 63/2/54 62/25/75
f 100/1/76 88/2/77 79/3/78 89/4/79
f 80/5/80 94/6/81 91/7/82 78/8/83
f 94/6/81 97/9/84 90/10/85 91/7/82
f 97/9/84 100/1/76 89/4/79 90/10/85
f 76/11/86 83/12/87 92/13/88 82/14/89
f 82/14/89 92/13/88 93/15/90 81/16/91
f 81/16/91 93/15/90 94/6/81 80/5/80
f 83/12/87 84/17/92 95/18/93 92/13/88
f 92/13/88 95/18/93 96/19/94 93/15/90
f 93/15/90 96/19/94 97/9/84 94/6/81
f 84/17/92 85/20/95 98/21/96 95/18/93
f 95/18/93 98/21/96 99/22/97 96/19/94
f 96/19/94 99/22/97 100/1/76 97/9/84
f 85/20/95 77/23/98 86/24/99 98/21/96
f 98/21/96 86/24/99 87/25/100 99/22/97
f 99/22/97 87/25/100 88/2/77 100/1/76
f 51/11/61 76/11/86 82/14/89 57/14/62
f 52/23/74 77/23/98 85/20/95 60/20/71
f 54/3/53 79/3/78 88/2/77 63/2/54
f 53/8/56 78/8/83 91/7/82 66/7/57
f 55/5/55 80/5/80 78/8/83 53/8/56
f 56/16/65 81/16/91 80/5/80 55/5/55
f 57/14/62 82/14/89 81/16/91 56/16/65
f 58/12/64 83/12/87 76/11/86 51/11/61
f 59/17/68 84/17/92 83/12/87 58/12/64
f 60/20/71 85/20/95 84/17/92 59/17/68
f 61/24/73 86/24/99 77/23/98 52/23/74
f 62/25/75 87/25/100 86/24/99 61/24/73
f 63/2/54 88/2/77 87/25/100 62/25/75
f 64/4/52 89/4/79 79/3/78 54/3/53
f 65/10/59 90/10/85 89/4/79 64/4/52
f 66/7/57 91/7/82 90/10/85 65/10/59
