# Blender 4.1.1
# www.blender.org
mtllib glasses_8_temple_right.mtl
o Cube.005
v -0.081934 0.008547 -0.051945
v -0.082066 0.008516 -0.053074
v -0.080751 0.008587 -0.044762
v -0.081393 0.010850 -0.055994
v -0.082286 0.008564 -0.054163
v -0.081729 0.008590 -0.050372
v -0.082480 0.010151 -0.055722
v -0.082465 0.010427 -0.055664
v -0.079549 0.008587 -0.037350
v -0.078354 0.008584 -0.029375
v -0.076937 0.008418 -0.021150
v -0.075330 0.008412 -0.012012
v -0.074138 0.008247 -0.005067
v -0.073528 0.008244 -0.000776
v -0.073374 0.011784 -0.000311
v -0.074317 0.011949 -0.006010
v -0.075217 0.011952 -0.011218
v -0.076848 0.011797 -0.020515
v -0.078627 0.011803 -0.030962
v -0.079989 0.011484 -0.039734
v -0.081552 0.011325 -0.049415
v -0.082331 0.010841 -0.054523
v -0.081329 0.008540 -0.053231
v -0.080987 0.008611 -0.050492
v -0.080011 0.008572 -0.044885
v -0.078844 0.008573 -0.037461
v -0.077651 0.008571 -0.029486
v -0.076239 0.008422 -0.021290
v -0.074633 0.008416 -0.012154
v -0.073441 0.008250 -0.005197
v -0.072506 0.008274 -0.001259
v -0.072458 0.011673 -0.000824
v -0.073355 0.011895 -0.006128
v -0.074268 0.011898 -0.011420
v -0.075882 0.011779 -0.020611
v -0.077668 0.011753 -0.031101
v -0.079037 0.011442 -0.039937
v -0.080589 0.011312 -0.049565
v -0.081276 0.010858 -0.054733
v -0.081531 0.008524 -0.054917
v -0.081106 0.011000 -0.053175
v -0.079859 0.011367 -0.045376
v -0.077510 0.011799 -0.024266
v -0.075540 0.008420 -0.017326
v -0.080788 0.011396 -0.044962
v -0.082066 0.010995 -0.052996
v -0.076547 0.011770 -0.024379
v -0.081197 0.008569 -0.052083
v -0.076283 0.008416 -0.017442
v -0.080922 0.011132 -0.051671
v -0.082433 0.008540 -0.054977
v -0.081498 0.008546 -0.054189
v -0.081876 0.011134 -0.051513
v -0.082425 0.010761 -0.055197
v -0.082446 0.010721 -0.055663
v -0.072484 0.009826 -0.001061
v -0.080806 0.009844 -0.050069
v -0.081222 0.009663 -0.053206
v -0.079940 0.009848 -0.045109
v -0.078932 0.009883 -0.038591
v -0.077659 0.010023 -0.030223
v -0.075696 0.009953 -0.018824
v -0.074467 0.010006 -0.011818
v -0.073402 0.009914 -0.005622
v -0.076380 0.009950 -0.022699
v -0.081069 0.009739 -0.051895
v -0.081397 0.009691 -0.054826
v -0.081502 0.009601 -0.056137
v -0.072471 0.010750 -0.000942
v -0.080697 0.010578 -0.049817
v -0.081163 0.010332 -0.053191
v -0.079899 0.010607 -0.045243
v -0.078984 0.010663 -0.039264
v -0.077664 0.010888 -0.030662
v -0.074368 0.010952 -0.011619
v -0.073378 0.010904 -0.005875
v -0.075789 0.010866 -0.019718
v -0.076463 0.010860 -0.023539
v -0.080994 0.010435 -0.051783
v -0.081332 0.010302 -0.054778
v -0.081445 0.010232 -0.056065
v -0.075618 0.009186 -0.018075
v -0.076310 0.009186 -0.021995
v -0.081133 0.009154 -0.051989
v -0.072495 0.009050 -0.001160
v -0.080897 0.009227 -0.050280
v -0.081275 0.009101 -0.053219
v -0.079975 0.009210 -0.044997
v -0.078888 0.009228 -0.038026
v -0.077655 0.009297 -0.029854
v -0.074550 0.009211 -0.011986
v -0.073421 0.009082 -0.005409
v -0.081460 0.009126 -0.054871
v -0.075579 0.008803 -0.017700
v -0.076274 0.008804 -0.021642
v -0.081165 0.008862 -0.052036
v -0.072500 0.008662 -0.001210
v -0.080942 0.008919 -0.050386
v -0.081302 0.008820 -0.053225
v -0.079993 0.008891 -0.044941
v -0.078866 0.008901 -0.037744
v -0.077653 0.008934 -0.029670
v -0.074591 0.008814 -0.012070
v -0.073431 0.008666 -0.005303
v -0.081497 0.008812 -0.054895
v -0.081927 0.010847 -0.054381
v -0.081886 0.010785 -0.055720
v -0.072916 0.011729 -0.000568
v -0.081070 0.011319 -0.049490
v -0.081398 0.011133 -0.051592
v -0.077028 0.011784 -0.024322
v -0.081584 0.010998 -0.053086
v -0.080323 0.011382 -0.045169
v -0.079513 0.011463 -0.039836
v -0.078147 0.011778 -0.031032
v -0.076365 0.011788 -0.020563
v -0.074743 0.011925 -0.011319
v -0.073836 0.011922 -0.006069
v -0.073451 0.010014 -0.000544
v -0.081640 0.009958 -0.049893
v -0.081903 0.009841 -0.051729
v -0.082061 0.009756 -0.053035
v -0.082303 0.009703 -0.054344
v -0.082423 0.009650 -0.055087
v -0.082450 0.009596 -0.055707
v -0.080769 0.009992 -0.044863
v -0.079768 0.010036 -0.038542
v -0.078492 0.010193 -0.030168
v -0.077224 0.010108 -0.022707
v -0.076566 0.010106 -0.018977
v -0.075274 0.010182 -0.011615
v -0.074228 0.010098 -0.005538
v -0.081918 0.009194 -0.051837
v -0.082062 0.009136 -0.053055
v -0.080760 0.009290 -0.044812
v -0.078423 0.009388 -0.029772
v -0.076425 0.009261 -0.018209
v -0.074183 0.009173 -0.005303
v -0.073490 0.009129 -0.000660
v -0.081685 0.009274 -0.050133
v -0.082293 0.009134 -0.054254
v -0.082427 0.009095 -0.055032
v -0.082457 0.009033 -0.055729
v -0.079659 0.009312 -0.037946
v -0.077081 0.009263 -0.021928
v -0.075302 0.009297 -0.011813
v -0.073413 0.010899 -0.000428
v -0.081596 0.010641 -0.049654
v -0.082316 0.010272 -0.054434
v -0.082423 0.010206 -0.055142
v -0.082447 0.010158 -0.055685
v -0.079878 0.010760 -0.039138
v -0.077367 0.010954 -0.023487
v -0.075245 0.011067 -0.011416
v -0.081889 0.010487 -0.051621
v -0.082062 0.010375 -0.053015
v -0.080778 0.010694 -0.044912
v -0.078559 0.010998 -0.030565
v -0.076707 0.010951 -0.019746
v -0.074273 0.011023 -0.005774
v -0.081926 0.008871 -0.051891
v -0.082064 0.008826 -0.053065
v -0.080756 0.008939 -0.044788
v -0.078389 0.008986 -0.029573
v -0.076354 0.008838 -0.017826
v -0.074160 0.008710 -0.005185
v -0.073509 0.008686 -0.000718
v -0.081707 0.008932 -0.050252
v -0.082289 0.008849 -0.054209
v -0.082430 0.008817 -0.055004
v -0.079604 0.008949 -0.037648
v -0.077009 0.008840 -0.021539
v -0.075316 0.008855 -0.011912
v -0.082481 0.010023 -0.055723
v -0.082481 0.010151 -0.055723
v -0.081479 0.009719 -0.056225
v -0.081494 0.009554 -0.056218
v -0.081424 0.010370 -0.056253
v -0.081478 0.009815 -0.056226
v -0.082481 0.010438 -0.055723
v -0.082481 0.010155 -0.055723
v -0.081528 0.010766 -0.056201
v -0.081531 0.010404 -0.056199
v -0.082256 0.010718 -0.055836
v -0.082451 0.010708 -0.055738
v -0.081697 0.009180 -0.056116
v -0.081807 0.008437 -0.056061
v -0.082453 0.008471 -0.055738
v -0.082466 0.008472 -0.055731
v -0.081620 0.008368 -0.056155
v -0.082464 0.010500 -0.055732
v -0.081549 0.009125 -0.056190
v -0.081558 0.009018 -0.056186
v -0.081586 0.008715 -0.056172
v -0.081559 0.009014 -0.056185
v -0.081588 0.008701 -0.056171
v -0.081945 0.010794 -0.055992
v -0.081795 0.010789 -0.056067
v -0.081640 0.010798 -0.056144
v -0.082156 0.010766 -0.055886
v -0.082459 0.008900 -0.055734
v -0.082461 0.008752 -0.055733
v -0.082510 0.009559 -0.055709
v -0.082481 0.009843 -0.055724
v -0.082481 0.009873 -0.055723
vn 0.9576 -0.0022 -0.2882
vn 0.8148 -0.0444 -0.5780
vn 0.5177 -0.0048 -0.8555
vn -0.9934 0.0893 -0.0714
vn -0.9807 0.1030 -0.1659
vn -0.9864 0.0938 -0.1350
vn -0.9919 0.0342 0.1221
vn -0.9651 -0.0134 0.2617
vn -0.9945 0.0912 -0.0515
vn 0.9861 -0.0486 -0.1591
vn 0.9625 -0.0794 -0.2594
vn 0.9656 -0.0003 -0.2600
vn -0.9855 0.0006 0.1696
vn 0.0354 -0.9991 0.0227
vn 0.9871 0.0062 -0.1598
vn 0.1425 -0.9870 0.0744
vn -0.0064 0.9961 -0.0884
vn -0.4470 -0.8123 0.3747
vn -0.5960 -0.6416 0.4828
vn -0.8854 -0.0833 0.4574
vn 0.9895 -0.0930 -0.1107
vn 0.0929 0.9955 0.0163
vn -0.0175 0.9958 -0.0896
vn 0.0001 -0.9996 -0.0267
vn 0.9819 -0.0834 -0.1703
vn 0.9871 -0.0950 -0.1289
vn 0.9736 -0.1981 -0.1136
vn 0.9852 -0.0739 -0.1545
vn 0.9869 -0.0647 -0.1479
vn 0.0237 0.9997 -0.0058
vn 0.9828 -0.0670 -0.1723
vn 0.9832 -0.0665 -0.1701
vn 0.9735 -0.0342 -0.2261
vn -0.0479 0.9945 -0.0935
vn 0.0549 0.9985 -0.0089
vn 0.0341 0.9992 -0.0217
vn 0.0399 0.9992 -0.0084
vn 0.0403 0.9983 -0.0422
vn 0.0311 0.9993 -0.0208
vn 0.0168 0.9997 -0.0182
vn 0.9825 -0.0689 -0.1733
vn 0.9838 -0.0705 -0.1650
vn -0.0770 0.9940 -0.0782
vn 0.9785 -0.1304 -0.1596
vn -0.1393 0.0928 -0.9859
vn -0.0206 -0.9993 0.0324
vn 0.0328 -0.9992 0.0222
vn 0.0031 -1.0000 -0.0042
vn -0.0196 -0.9998 0.0032
vn -0.0186 -0.9998 0.0024
vn -0.0092 -0.9998 -0.0176
vn 0.0058 -1.0000 -0.0016
vn 0.0056 -1.0000 -0.0016
vn 0.0002 -0.9997 -0.0239
vn 0.0190 -0.9998 -0.0010
vn -0.9913 0.0110 0.1308
vn -0.9928 0.0829 0.0867
vn -0.9932 0.0049 0.1161
vn -0.9847 -0.0056 0.1740
vn -0.0442 -0.9925 0.1137
vn -0.9896 0.0025 0.1439
vn 0.9932 -0.0855 -0.0796
vn -0.9990 -0.0008 0.0443
vn -0.9871 -0.0098 0.1597
vn -0.9881 -0.0156 0.1532
vn -0.9862 -0.0080 0.1653
vn -0.9848 -0.0065 0.1737
vn -0.9849 -0.0070 0.1730
vn -0.9854 -0.0052 0.1700
vn -0.9869 0.0073 0.1613
vn 0.9830 -0.0725 -0.1686
vn 0.9824 -0.0697 -0.1732
vn 0.9814 -0.0320 -0.1895
vn 0.9832 -0.0669 -0.1699
vn 0.9828 -0.0675 -0.1719
vn 0.9865 -0.0669 -0.1493
vn 0.9859 -0.0721 -0.1512
vn 0.9860 -0.0909 -0.1400
vn 0.9815 -0.0853 -0.1713
vn 0.9900 -0.0871 -0.1112
vn -0.9929 0.0971 0.0694
vn 0.9901 -0.0912 -0.1065
vn 0.9901 -0.0835 -0.1129
vn 0.9855 -0.0872 -0.1457
vn 0.9863 -0.0697 -0.1492
vn 0.9864 -0.0673 -0.1501
vn 0.9828 -0.0675 -0.1717
vn 0.9832 -0.0670 -0.1699
vn 0.9841 -0.0311 -0.1746
vn 0.9833 -0.0718 -0.1670
vn 0.9816 -0.0851 -0.1709
vn -0.9929 0.0904 0.0776
vn 0.9910 -0.0864 -0.1026
vn 0.9815 -0.0850 -0.1715
vn 0.9828 -0.0726 -0.1697
vn 0.9824 -0.0694 -0.1733
vn 0.9782 -0.0330 -0.2052
vn 0.9832 -0.0667 -0.1700
vn 0.9828 -0.0672 -0.1721
vn 0.9867 -0.0664 -0.1486
vn 0.9855 -0.0735 -0.1528
vn 0.9865 -0.0930 -0.1348
vn 0.9898 -0.0900 -0.1104
vn -0.9783 0.1149 -0.1726
vn -0.9927 0.1024 0.0636
vn 0.9892 -0.0958 -0.1106
vn 0.9827 -0.0727 -0.1703
vn 0.9815 -0.0847 -0.1716
vn 0.9824 -0.0691 -0.1733
vn 0.9755 -0.0337 -0.2173
vn 0.9832 -0.0666 -0.1700
vn 0.9828 -0.0671 -0.1722
vn 0.9868 -0.0656 -0.1482
vn 0.9853 -0.0739 -0.1538
vn 0.9869 -0.0942 -0.1312
vn 0.9897 -0.0916 -0.1104
vn 0.9885 -0.0991 -0.1138
vn -0.9927 0.1051 0.0599
vn 0.0647 -0.9644 0.2565
vn 0.1161 -0.9924 -0.0415
vn 0.1241 -0.9878 -0.0941
vn -0.0793 0.9965 -0.0248
vn 0.0173 0.9997 -0.0168
vn 0.0316 0.9993 -0.0194
vn 0.0405 0.9983 -0.0417
vn 0.0401 0.9992 -0.0069
vn 0.0344 0.9992 -0.0199
vn 0.0550 0.9984 -0.0089
vn 0.0238 0.9997 -0.0043
vn -0.0168 0.9961 -0.0865
vn 0.0949 0.9952 0.0222
vn -0.0059 0.9963 -0.0859
vn -0.9885 0.0064 0.1509
vn -0.0038 0.9943 -0.1062
vn -0.9855 -0.0056 0.1695
vn -0.9849 -0.0074 0.1729
vn -0.9848 -0.0068 0.1738
vn -0.9858 -0.0067 0.1680
vn -0.9885 -0.0174 0.1503
vn -0.9878 -0.0121 0.1552
vn -0.9990 0.0106 0.0425
vn -0.9864 0.0157 0.1634
vn -0.9827 0.0041 0.1853
vn -0.9925 -0.0021 0.1221
vn -0.9896 0.0061 0.1440
vn -0.9853 0.0021 0.1710
vn -0.9852 0.0016 0.1714
vn -0.9815 0.0074 0.1913
vn -0.9852 0.0200 0.1703
vn -0.9990 0.0145 0.0422
vn -0.9886 -0.0185 0.1492
vn -0.9856 -0.0067 0.1689
vn -0.9848 -0.0072 0.1738
vn -0.9849 -0.0077 0.1728
vn -0.9856 -0.0056 0.1693
vn -0.9893 0.0060 0.1461
vn -0.9875 -0.0105 0.1574
vn -0.9929 0.0011 0.1191
vn -0.9904 0.0084 0.1381
vn -0.9887 0.0025 0.1498
vn -0.9921 -0.0058 0.1256
vn -0.9882 -0.0144 0.1527
vn -0.9877 0.0069 0.1565
vn -0.9855 -0.0053 0.1697
vn -0.9849 -0.0071 0.1729
vn -0.9848 -0.0065 0.1738
vn -0.9860 -0.0072 0.1667
vn -0.9883 -0.0164 0.1518
vn -0.9991 0.0051 0.0431
vn -0.9880 0.0093 0.1539
vn -0.9839 -0.0006 0.1789
vn -0.9854 0.0021 0.1704
vn -0.9898 0.0058 0.1426
vn -0.9856 -0.0058 0.1692
vn -0.9849 -0.0078 0.1728
vn -0.9848 -0.0074 0.1737
vn -0.9855 -0.0067 0.1694
vn -0.9887 -0.0197 0.1485
vn -0.9990 0.0172 0.0424
vn -0.9843 0.0226 0.1748
vn -0.9806 0.0094 0.1959
vn -0.9852 0.0015 0.1715
vn -0.9873 -0.0099 0.1588
vn -0.9931 0.0032 0.1172
vn -0.9910 0.0099 0.1336
vn 0.6357 0.0537 -0.7701
vn 0.5155 -0.0048 -0.8569
vt 0.556703 0.250000
vt 0.556690 0.250000
vt 0.542900 0.250000
vt 0.000005 0.000003
vt 0.112306 0.057571
vt 0.000000 0.000000
vt 0.124976 0.050106
vt 0.004251 0.001704
vt 0.587272 0.250000
vt 0.586436 0.250000
vt 0.557053 0.250000
vt 0.307484 0.122994
vt 0.132176 0.052953
vt 0.587273 0.250001
vt 0.449867 0.191491
vt 0.112308 0.057572
vt 0.000006 0.000003
vt 0.317635 0.127121
vt 0.307485 0.122994
vt 0.369451 0.148122
vt 0.346235 0.138671
vt 0.213286 0.085511
vt 0.369448 0.148120
vt 0.542944 0.250020
vt 0.307534 0.157589
vt 0.462087 0.220705
vt 0.503621 0.238985
s 1
usemtl Material.011
f 175/1/1 7/2/2 174/3/3
f 176/4/4 177/5/5 68/6/6
f 68/6/6 81/6/7 178/7/8 179/8/9 176/6/4
f 180/9/10 8/10/11 7/2/2 175/1/1 181/11/12
s 0
f 157/6/13 45/6/13 21/6/13 148/6/13
f 23/6/14 48/6/14 1/6/14 2/6/14
f 53/6/15 21/6/15 45/6/15 20/6/15 22/6/15
f 22/6/16 46/6/16 53/6/16
f 109/6/17 110/6/17 53/6/17 21/6/17
s 1
f 178/7/8 81/6/7 4/6/18 182/12/19 183/13/20
s 0
f 96/6/21 48/6/21 23/6/21 99/6/21
f 108/6/22 118/6/22 16/6/22 15/6/22
f 110/6/23 112/6/23 46/6/23 53/6/23
f 5/6/24 52/6/24 23/6/24 2/6/24
f 70/6/25 38/6/25 42/6/25 72/6/25
f 98/6/26 24/6/26 48/6/26 96/6/26
f 23/6/27 52/6/27 40/6/27 105/6/27 99/6/27
f 100/6/28 101/6/28 26/6/28 25/6/28
f 101/6/29 102/6/29 27/6/29 26/6/29
f 116/6/30 35/6/30 47/6/30 111/6/30
f 94/6/31 103/6/31 29/6/31 44/6/31
f 103/6/32 104/6/32 30/6/32 29/6/32
f 104/6/33 97/6/33 31/6/33 30/6/33
f 41/6/34 39/6/34 106/6/34 112/6/34
f 118/6/35 117/6/35 17/6/35 16/6/35
f 117/6/36 116/6/36 18/6/36 17/6/36
f 111/6/37 47/6/37 36/6/37 115/6/37
f 115/6/38 114/6/38 20/6/38 19/6/38
f 114/6/39 113/6/39 45/6/39 20/6/39
f 113/6/40 109/6/40 21/6/40 45/6/40
f 94/6/41 44/6/41 28/6/41 95/6/41
f 78/6/42 74/6/42 36/6/42 47/6/42
f 184/6/43 185/6/43 55/6/43 54/6/43 22/6/43 106/6/43 107/6/43
f 186/6/44 4/6/44 39/6/44 80/6/44 67/6/44 40/6/44 187/6/44
f 40/6/45 67/6/45 93/6/45 105/6/45
f 5/6/46 51/6/46 40/6/46 52/6/46
f 48/6/47 24/6/47 6/6/47 1/6/47
f 24/6/48 25/6/48 3/6/48 6/6/48
f 25/6/49 26/6/49 9/6/49 3/6/49
f 26/6/50 27/6/50 10/6/50 9/6/50
f 27/6/51 28/6/51 11/6/51 10/6/51
f 28/6/52 44/6/52 49/6/52 11/6/52
f 44/6/53 29/6/53 12/6/53 49/6/53
f 29/6/54 30/6/54 13/6/54 12/6/54
f 30/6/55 31/6/55 14/6/55 13/6/55
f 161/6/56 1/6/56 6/6/56 168/6/56
f 39/6/57 4/6/57 81/6/57 80/6/57
f 161/6/58 162/6/58 2/6/58 1/6/58
f 149/6/59 156/6/59 46/6/59 22/6/59
f 190/6/60 40/6/60 51/6/60 189/6/60 188/6/60
f 149/6/61 22/6/61 54/6/61 150/6/61
s 1
f 185/6/62 55/6/62 8/10/11 180/14/10 191/15/62
s 0
f 150/6/63 54/6/63 55/6/63 151/6/63
f 163/6/64 3/6/64 9/6/64 171/6/64
f 152/6/65 158/6/65 19/6/65 20/6/65
f 158/6/66 153/6/66 43/6/66 19/6/66
f 153/6/67 159/6/67 18/6/67 43/6/67
f 159/6/68 154/6/68 17/6/68 18/6/68
f 154/6/69 160/6/69 16/6/69 17/6/69
f 160/6/70 147/6/70 15/6/70 16/6/70
f 83/6/71 90/6/71 61/6/71 65/6/71
f 77/6/72 62/6/72 65/6/72 78/6/72
f 76/6/73 69/6/73 56/6/73 64/6/73
f 75/6/74 76/6/74 64/6/74 63/6/74
f 77/6/75 75/6/75 63/6/75 62/6/75
f 73/6/76 74/6/76 61/6/76 60/6/76
f 72/6/77 73/6/77 60/6/77 59/6/77
f 70/6/78 57/6/78 66/6/78 79/6/78
f 86/6/79 57/6/79 59/6/79 88/6/79
f 79/6/80 66/6/80 58/6/80 71/6/80
f 192/6/81 193/6/81 93/6/81 67/6/81 68/6/81
f 67/6/82 80/6/82 71/6/82 58/6/82
f 50/6/83 79/6/83 71/6/83 41/6/83
f 38/6/84 70/6/84 79/6/84 50/6/84
f 42/6/85 37/6/85 73/6/85 72/6/85
f 37/6/86 36/6/86 74/6/86 73/6/86
f 35/6/87 34/6/87 75/6/87 77/6/87
f 34/6/88 33/6/88 76/6/88 75/6/88
f 33/6/89 32/6/89 69/6/89 76/6/89
f 35/6/72 77/6/72 78/6/72 47/6/72
f 65/6/90 61/6/90 74/6/90 78/6/90
f 57/6/91 70/6/91 72/6/91 59/6/91
f 81/6/92 68/6/92 67/6/92 80/6/92
f 80/6/93 39/6/93 41/6/93 71/6/93
f 98/6/94 86/6/94 88/6/94 100/6/94
f 95/6/95 102/6/95 90/6/95 83/6/95
f 62/6/96 82/6/96 83/6/96 65/6/96
f 64/6/97 56/6/97 85/6/97 92/6/97
f 63/6/98 64/6/98 92/6/98 91/6/98
f 62/6/99 63/6/99 91/6/99 82/6/99
f 60/6/100 61/6/100 90/6/100 89/6/100
f 59/6/101 60/6/101 89/6/101 88/6/101
f 57/6/102 86/6/102 84/6/102 66/6/102
f 66/6/103 84/6/103 87/6/103 58/6/103
s 1
f 177/16/5 192/17/104 68/6/6
s 0
f 194/6/105 105/6/105 93/6/105 193/6/105 195/6/105
f 93/6/106 67/6/106 58/6/106 87/6/106
f 28/6/107 27/6/107 102/6/107 95/6/107
f 24/6/108 98/6/108 100/6/108 25/6/108
f 82/6/109 94/6/109 95/6/109 83/6/109
f 92/6/110 85/6/110 97/6/110 104/6/110
f 91/6/111 92/6/111 104/6/111 103/6/111
f 82/6/112 91/6/112 103/6/112 94/6/112
f 89/6/113 90/6/113 102/6/113 101/6/113
f 88/6/114 89/6/114 101/6/114 100/6/114
f 86/6/115 98/6/115 96/6/115 84/6/115
f 84/6/116 96/6/116 99/6/116 87/6/116
f 105/6/117 93/6/117 87/6/117 99/6/117
f 196/6/118 190/6/118 40/6/118 105/6/118 194/6/118
s 1
f 199/18/119 182/19/19 4/6/18 197/20/120 198/21/119
f 107/6/121 184/6/121 200/22/121 197/23/120 4/6/18
s 0
f 106/6/122 39/6/122 4/6/122 107/6/122
f 42/6/123 38/6/123 109/6/123 113/6/123
f 37/6/124 42/6/124 113/6/124 114/6/124
f 36/6/125 37/6/125 114/6/125 115/6/125
f 43/6/126 111/6/126 115/6/126 19/6/126
f 34/6/127 35/6/127 116/6/127 117/6/127
f 33/6/128 34/6/128 117/6/128 118/6/128
f 18/6/129 116/6/129 111/6/129 43/6/129
f 50/6/130 41/6/130 112/6/130 110/6/130
f 32/6/131 33/6/131 118/6/131 108/6/131
f 38/6/132 50/6/132 110/6/132 109/6/132
f 138/6/133 139/6/133 119/6/133 132/6/133
f 106/6/134 22/6/134 46/6/134 112/6/134
f 146/6/135 138/6/135 132/6/135 131/6/135
f 137/6/136 146/6/136 131/6/136 130/6/136
f 145/6/137 137/6/137 130/6/137 129/6/137
f 136/6/138 145/6/138 129/6/138 128/6/138
f 144/6/139 136/6/139 128/6/139 127/6/139
f 157/6/140 126/6/140 127/6/140 152/6/140
f 142/6/141 124/6/141 125/6/141 143/6/141
f 141/6/142 123/6/142 124/6/142 142/6/142
f 141/6/143 134/6/143 122/6/143 123/6/143
f 155/6/144 156/6/144 122/6/144 121/6/144
f 155/6/145 121/6/145 120/6/145 148/6/145
f 135/6/146 126/6/146 120/6/146 140/6/146
f 163/6/147 135/6/147 140/6/147 168/6/147
f 169/6/148 162/6/148 134/6/148 141/6/148
f 169/6/149 141/6/149 142/6/149 170/6/149
f 201/6/150 202/6/150 170/6/150 142/6/150 143/6/150
f 171/6/151 164/6/151 136/6/151 144/6/151
f 164/6/152 172/6/152 145/6/152 136/6/152
f 172/6/153 165/6/153 137/6/153 145/6/153
f 165/6/154 173/6/154 146/6/154 137/6/154
f 173/6/155 166/6/155 138/6/155 146/6/155
f 166/6/156 167/6/156 139/6/156 138/6/156
f 126/6/157 135/6/157 144/6/157 127/6/157
f 121/6/158 122/6/158 134/6/158 133/6/158
f 121/6/159 133/6/159 140/6/159 120/6/159
f 53/6/160 155/6/160 148/6/160 21/6/160
f 53/6/161 46/6/161 156/6/161 155/6/161
f 45/6/162 157/6/162 152/6/162 20/6/162
f 132/6/163 119/6/163 147/6/163 160/6/163
f 131/6/164 132/6/164 160/6/164 154/6/164
f 130/6/165 131/6/165 154/6/165 159/6/165
f 129/6/166 130/6/166 159/6/166 153/6/166
f 128/6/167 129/6/167 153/6/167 158/6/167
f 127/6/168 128/6/168 158/6/168 152/6/168
f 124/6/169 150/6/169 151/6/169 125/6/169
f 123/6/170 149/6/170 150/6/170 124/6/170
f 123/6/171 122/6/171 156/6/171 149/6/171
f 126/6/172 157/6/172 148/6/172 120/6/172
f 13/6/173 14/6/173 167/6/173 166/6/173
f 12/6/174 13/6/174 166/6/174 173/6/174
f 49/6/175 12/6/175 173/6/175 165/6/175
f 11/6/176 49/6/176 165/6/176 172/6/176
f 10/6/177 11/6/177 172/6/177 164/6/177
f 9/6/178 10/6/178 164/6/178 171/6/178
f 189/6/179 51/6/179 170/6/179 202/6/179
f 5/6/180 169/6/180 170/6/180 51/6/180
f 5/6/181 2/6/181 162/6/181 169/6/181
f 3/6/182 163/6/182 168/6/182 6/6/182
f 135/6/183 163/6/183 171/6/183 144/6/183
f 133/6/184 134/6/184 162/6/184 161/6/184
f 133/6/185 161/6/185 168/6/185 140/6/185
s 1
f 174/24/3 7/2/2 151/6/186 125/6/187 203/25/187 204/26/187 205/27/187
f 151/6/186 7/2/2 8/10/11
