# Blender 4.1.1
# www.blender.org
mtllib glasses_4_lenses.mtl
o Plane
v 0.024163 -0.020122 0.002753
v 0.059672 -0.019755 0.001835
v 0.012603 0.019232 0.003103
v 0.059629 0.021036 0.001635
v 0.010441 0.009064 0.003444
v 0.011686 -0.000339 0.003577
v 0.016016 -0.011577 0.003316
v 0.030761 -0.023116 0.002729
v 0.040179 -0.025323 0.002562
v 0.050234 -0.024194 0.002212
v 0.064822 -0.010704 0.002150
v 0.067237 -0.000964 0.002089
v 0.066247 0.012142 0.001705
v 0.049687 0.023480 0.002546
v 0.038872 0.024998 0.002975
v 0.025223 0.024261 0.002858
v 0.026514 -0.013126 0.003943
v 0.023942 -0.000397 0.004895
v 0.024232 0.011844 0.004406
v 0.039320 -0.013933 0.004578
v 0.038728 -0.000543 0.005593
v 0.038776 0.014595 0.004610
v 0.053020 -0.013899 0.003387
v 0.053792 -0.000323 0.004494
v 0.052879 0.013594 0.003532
v -0.024163 -0.020122 0.002753
v -0.059672 -0.019755 0.001835
v -0.012603 0.019232 0.003103
v -0.059629 0.021036 0.001635
v -0.010441 0.009064 0.003444
v -0.011686 -0.000339 0.003577
v -0.016016 -0.011577 0.003316
v -0.030761 -0.023116 0.002729
v -0.040179 -0.025323 0.002562
v -0.050234 -0.024194 0.002212
v -0.064822 -0.010704 0.002150
v -0.067237 -0.000964 0.002089
v -0.066247 0.012142 0.001705
v -0.049687 0.023480 0.002546
v -0.038872 0.024998 0.002975
v -0.025223 0.024261 0.002858
v -0.026514 -0.013126 0.003943
v -0.023942 -0.000397 0.004895
v -0.024232 0.011844 0.004406
v -0.039320 -0.013933 0.004578
v -0.038728 -0.000543 0.005593
v -0.038776 0.014595 0.004610
v -0.053020 -0.013899 0.003387
v -0.053792 -0.000323 0.004494
v -0.052879 0.013594 0.003532
vn 0.1137 0.0985 0.9886
vn 0.1527 0.0818 0.9849
vn 0.1366 0.1266 0.9825
vn 0.0951 0.1347 0.9863
vn -0.0748 0.0522 0.9958
vn -0.0511 0.0763 0.9958
vn -0.0385 0.1202 0.9920
vn -0.0538 0.0907 0.9944
vn 0.0216 0.1037 0.9944
vn 0.0216 0.1393 0.9900
vn -0.0729 -0.1434 0.9870
vn -0.0501 -0.1552 0.9866
vn -0.0645 -0.1150 0.9913
vn -0.0861 -0.0927 0.9920
vn -0.0681 -0.0195 0.9975
vn -0.0901 -0.0171 0.9958
vn 0.0201 -0.1552 0.9877
vn 0.0142 -0.1186 0.9928
vn 0.0164 -0.0098 0.9998
vn 0.0865 -0.1432 0.9859
vn 0.1052 -0.1066 0.9887
vn 0.1180 -0.0022 0.9930
vn 0.1197 -0.1249 0.9849
vn 0.1409 -0.0814 0.9867
vn 0.1550 -0.0004 0.9879
vn -0.1137 0.0985 0.9886
vn -0.0951 0.1347 0.9863
vn -0.1366 0.1266 0.9825
vn -0.1527 0.0818 0.9849
vn 0.0748 0.0522 0.9958
vn 0.0538 0.0907 0.9944
vn 0.0385 0.1202 0.9920
vn 0.0511 0.0763 0.9958
vn -0.0216 0.1393 0.9900
vn -0.0216 0.1037 0.9944
vn 0.0729 -0.1434 0.9870
vn 0.0861 -0.0927 0.9920
vn 0.0645 -0.1150 0.9913
vn 0.0501 -0.1552 0.9866
vn 0.0901 -0.0171 0.9958
vn 0.0681 -0.0195 0.9975
vn -0.0142 -0.1186 0.9928
vn -0.0201 -0.1552 0.9877
vn -0.0164 -0.0098 0.9998
vn -0.1052 -0.1066 0.9887
vn -0.0865 -0.1432 0.9859
vn -0.1180 -0.0022 0.9930
vn -0.1409 -0.0814 0.9867
vn -0.1197 -0.1249 0.9849
vn -0.1550 -0.0004 0.9879
vt 0.750000 0.750000
vt 1.000000 0.750000
vt 1.000000 1.000000
vt 0.750000 1.000000
vt 0.000000 0.750000
vt 0.250000 0.750000
vt 0.250000 1.000000
vt 0.000000 1.000000
vt 0.500000 0.750000
vt 0.500000 1.000000
vt 0.000000 0.000000
vt 0.250000 0.000000
vt 0.250000 0.250000
vt 0.000000 0.250000
vt 0.250000 0.500000
vt 0.000000 0.500000
vt 0.500000 0.000000
vt 0.500000 0.250000
vt 0.500000 0.500000
vt 0.750000 0.000000
vt 0.750000 0.250000
vt 0.750000 0.500000
vt 1.000000 0.000000
vt 1.000000 0.250000
vt 1.000000 0.500000
s 1
f 25/1/1 13/2/2 4/3/3 14/4/4
f 5/5/5 19/6/6 16/7/7 3/8/8
f 19/6/6 22/9/9 15/10/10 16/7/7
f 22/9/9 25/1/1 14/4/4 15/10/10
f 1/11/11 8/12/12 17/13/13 7/14/14
f 7/14/14 17/13/13 18/15/15 6/16/16
f 6/16/16 18/15/15 19/6/6 5/5/5
f 8/12/12 9/17/17 20/18/18 17/13/13
f 17/13/13 20/18/18 21/19/19 18/15/15
f 18/15/15 21/19/19 22/9/9 19/6/6
f 9/17/17 10/20/20 23/21/21 20/18/18
f 20/18/18 23/21/21 24/22/22 21/19/19
f 21/19/19 24/22/22 25/1/1 22/9/9
f 10/20/20 2/23/23 11/24/24 23/21/21
f 23/21/21 11/24/24 12/25/25 24/22/22
f 24/22/22 12/25/25 13/2/2 25/1/1
f 50/1/26 39/4/27 29/3/28 38/2/29
f 30/5/30 28/8/31 41/7/32 44/6/33
f 44/6/33 41/7/32 40/10/34 47/9/35
f 47/9/35 40/10/34 39/4/27 50/1/26
f 26/11/36 32/14/37 42/13/38 33/12/39
f 32/14/37 31/16/40 43/15/41 42/13/38
f 31/16/40 30/5/30 44/6/33 43/15/41
f 33/12/39 42/13/38 45/18/42 34/17/43
f 42/13/38 43/15/41 46/19/44 45/18/42
f 43/15/41 44/6/33 47/9/35 46/19/44
f 34/17/43 45/18/42 48/21/45 35/20/46
f 45/18/42 46/19/44 49/22/47 48/21/45
f 46/19/44 47/9/35 50/1/26 49/22/47
f 35/20/46 48/21/45 36/24/48 27/23/49
f 48/21/45 49/22/47 37/25/50 36/24/48
f 49/22/47 50/1/26 38/2/29 37/25/50
