# Blender 4.1.1
# www.blender.org
mtllib glasses_11_lenses.mtl
o Plane
v 0.020198 -0.019545 -0.000418
v 0.058342 -0.020937 -0.000463
v 0.013964 0.019402 -0.000305
v 0.058908 0.020347 -0.000459
v 0.009315 0.010833 -0.000477
v 0.010885 -0.000601 -0.000177
v 0.013644 -0.010609 -0.000252
v 0.027851 -0.024287 -0.000293
v 0.037681 -0.025508 -0.000171
v 0.050553 -0.025018 -0.000382
v 0.063965 -0.012099 -0.000408
v 0.067019 0.000966 -0.000417
v 0.065291 0.013398 -0.000500
v 0.050119 0.024137 -0.000261
v 0.039331 0.025027 -0.000029
v 0.026838 0.024559 -0.000214
v 0.024423 -0.013145 0.000520
v 0.024314 -0.000680 0.001238
v 0.026156 0.012395 0.000848
v 0.037461 -0.014529 0.001143
v 0.038097 -0.000317 0.002212
v 0.039142 0.013050 0.001320
v 0.052192 -0.014107 0.000471
v 0.052339 0.000452 0.001186
v 0.051320 0.013618 0.000359
v 0.020223 -0.019518 -0.000716
v 0.058321 -0.020915 -0.000761
v 0.013982 0.019385 -0.000604
v 0.058891 0.020330 -0.000758
v 0.009338 0.010821 -0.000776
v 0.010913 -0.000600 -0.000476
v 0.013672 -0.010591 -0.000550
v 0.027868 -0.024257 -0.000591
v 0.037682 -0.025477 -0.000469
v 0.050539 -0.024990 -0.000680
v 0.063938 -0.012085 -0.000707
v 0.066992 0.000964 -0.000716
v 0.065268 0.013383 -0.000798
v 0.050103 0.024114 -0.000560
v 0.039328 0.024999 -0.000327
v 0.026851 0.024534 -0.000512
v 0.024444 -0.013122 0.000222
v 0.024338 -0.000677 0.000939
v 0.026174 0.012376 0.000549
v 0.037462 -0.014504 0.000844
v 0.038096 -0.000316 0.001912
v 0.039139 0.013026 0.001021
v 0.052172 -0.014087 0.000173
v 0.052315 0.000451 0.000887
v 0.051300 0.013599 0.000061
v -0.020198 -0.019545 -0.000418
v -0.058342 -0.020937 -0.000463
v -0.013964 0.019402 -0.000305
v -0.058908 0.020347 -0.000459
v -0.009315 0.010833 -0.000477
v -0.010885 -0.000601 -0.000177
v -0.013644 -0.010609 -0.000252
v -0.027851 -0.024287 -0.000293
v -0.037681 -0.025508 -0.000171
v -0.050553 -0.025018 -0.000382
v -0.063965 -0.012099 -0.000408
v -0.067019 0.000966 -0.000417
v -0.065291 0.013398 -0.000500
v -0.050119 0.024137 -0.000261
v -0.039331 0.025027 -0.000029
v -0.026838 0.024559 -0.000214
v -0.024423 -0.013145 0.000520
v -0.024314 -0.000680 0.001238
v -0.026156 0.012395 0.000848
v -0.037461 -0.014529 0.001143
v -0.038097 -0.000317 0.002212
v -0.039142 0.013050 0.001320
v -0.052192 -0.014107 0.000471
v -0.052339 0.000452 0.001186
v -0.051320 0.013618 0.000359
v -0.020223 -0.019518 -0.000716
v -0.058321 -0.020915 -0.000761
v -0.013982 0.019385 -0.000604
v -0.058891 0.020330 -0.000758
v -0.009338 0.010821 -0.000776
v -0.010913 -0.000600 -0.000476
v -0.013672 -0.010591 -0.000550
v -0.027868 -0.024257 -0.000591
v -0.037682 -0.025477 -0.000469
v -0.050539 -0.024990 -0.000680
v -0.063938 -0.012085 -0.000707
v -0.066992 0.000964 -0.000716
v -0.065268 0.013383 -0.000798
v -0.050103 0.024114 -0.000560
v -0.039328 0.024999 -0.000327
v -0.026851 0.024534 -0.000512
v -0.024444 -0.013122 0.000222
v -0.024338 -0.000677 0.000939
v -0.026174 0.012376 0.000549
v -0.037462 -0.014504 0.000844
v -0.038096 -0.000316 0.001912
v -0.039139 0.013026 0.001021
v -0.052172 -0.014087 0.000173
v -0.052315 0.000451 0.000887
v -0.051300 0.013599 0.000061
vn 0.0662 0.0639 0.9958
vn 0.7328 0.3554 0.5803
vn 0.4692 0.6476 0.6004
vn 0.2140 0.7646 0.6080
vn -0.8013 0.1658 0.5748
vn -0.0588 0.0608 0.9964
vn -0.1817 0.7758 0.6042
vn -0.5450 0.6086 0.5767
vn 0.0114 0.0776 0.9969
vn 0.0237 0.7757 0.6306
vn -0.5561 -0.6008 0.5743
vn -0.2820 -0.7643 0.5800
vn -0.0729 -0.0768 0.9944
vn -0.7231 -0.3584 0.5905
vn -0.0770 -0.0084 0.9970
vn -0.7629 -0.1466 0.6297
vn -0.0327 -0.7851 0.6185
vn -0.0034 -0.0840 0.9965
vn 0.0029 -0.0032 1.0000
vn 0.2231 -0.7786 0.5866
vn 0.0663 -0.0683 0.9955
vn 0.0791 0.0026 0.9969
vn 0.5544 -0.5994 0.5774
vn 0.7350 -0.3160 0.5999
vn 0.7972 -0.0292 0.6030
vn -0.0662 -0.0639 -0.9958
vn 0.1407 0.6671 -0.7316
vn 0.3936 0.5702 -0.7210
vn 0.6437 0.2934 -0.7068
vn -0.7000 0.1072 -0.7060
vn -0.4749 0.5394 -0.6954
vn -0.1238 0.6704 -0.7316
vn 0.0588 -0.0609 -0.9964
vn 0.0081 0.6584 -0.7526
vn -0.0114 -0.0776 -0.9969
vn -0.4492 -0.4862 -0.7496
vn -0.6091 -0.2848 -0.7402
vn 0.0729 0.0768 -0.9944
vn -0.2118 -0.6420 -0.7369
vn -0.6446 -0.1439 -0.7508
vn 0.0770 0.0084 -0.9970
vn 0.0034 0.0840 -0.9965
vn -0.0292 -0.6554 -0.7547
vn -0.0029 0.0032 -1.0000
vn -0.0663 0.0683 -0.9955
vn 0.1598 -0.6660 -0.7286
vn -0.0791 -0.0027 -0.9969
vn 0.6255 -0.2559 -0.7371
vn 0.4653 -0.5103 -0.7232
vn 0.6838 -0.0391 -0.7286
vn -0.0662 0.0639 0.9958
vn -0.2140 0.7646 0.6080
vn -0.4692 0.6476 0.6004
vn -0.7328 0.3554 0.5803
vn 0.8013 0.1658 0.5748
vn 0.5450 0.6086 0.5767
vn 0.1817 0.7758 0.6042
vn 0.0588 0.0608 0.9964
vn -0.0237 0.7757 0.6306
vn -0.0114 0.0776 0.9969
vn 0.5561 -0.6008 0.5743
vn 0.7231 -0.3584 0.5905
vn 0.0729 -0.0768 0.9944
vn 0.2820 -0.7643 0.5800
vn 0.7629 -0.1466 0.6297
vn 0.0770 -0.0084 0.9970
vn 0.0034 -0.0840 0.9965
vn 0.0327 -0.7851 0.6185
vn -0.0029 -0.0032 1.0000
vn -0.0663 -0.0683 0.9955
vn -0.2231 -0.7786 0.5866
vn -0.0791 0.0026 0.9969
vn -0.7350 -0.3160 0.5999
vn -0.5544 -0.5994 0.5774
vn -0.7972 -0.0292 0.6030
vn 0.0662 -0.0639 -0.9958
vn -0.6437 0.2934 -0.7068
vn -0.3936 0.5702 -0.7210
vn -0.1407 0.6671 -0.7316
vn 0.7000 0.1072 -0.7060
vn -0.0588 -0.0609 -0.9964
vn 0.1238 0.6704 -0.7316
vn 0.4749 0.5394 -0.6954
vn 0.0114 -0.0776 -0.9969
vn -0.0081 0.6584 -0.7526
vn 0.4492 -0.4862 -0.7496
vn 0.2118 -0.6420 -0.7369
vn -0.0729 0.0768 -0.9944
vn 0.6091 -0.2848 -0.7402
vn -0.0770 0.0084 -0.9970
vn 0.6446 -0.1439 -0.7508
vn 0.0292 -0.6554 -0.7547
vn -0.0034 0.0840 -0.9965
vn 0.0029 0.0032 -1.0000
vn -0.1598 -0.6660 -0.7286
vn 0.0663 0.0683 -0.9955
vn 0.0791 -0.0027 -0.9969
vn -0.4653 -0.5103 -0.7232
vn -0.6255 -0.2559 -0.7371
vn -0.6838 -0.0391 -0.7286
vt 0.750000 0.750000
vt 1.000000 0.750000
vt 1.000000 1.000000
vt 0.750000 1.000000
vt 0.000000 0.750000
vt 0.250000 0.750000
vt 0.250000 1.000000
vt 0.000000 1.000000
vt 0.500000 0.750000
vt 0.500000 1.000000
vt 0.000000 0.000000
vt 0.250000 0.000000
vt 0.250000 0.250000
vt 0.000000 0.250000
vt 0.250000 0.500000
vt 0.000000 0.500000
vt 0.500000 0.000000
vt 0.500000 0.250000
vt 0.500000 0.500000
vt 0.750000 0.000000
vt 0.750000 0.250000
vt 0.750000 0.500000
vt 1.000000 0.000000
vt 1.000000 0.250000
vt 1.000000 0.500000
s 1
f 25/1/1 13/2/2 4/3/3 14/4/4
f 5/5/5 19/6/6 16/7/7 3/8/8
f 19/6/6 22/9/9 15/10/10 16/7/7
f 22/9/9 25/1/1 14/4/4 15/10/10
f 1/11/11 8/12/12 17/13/13 7/14/14
f 7/14/14 17/13/13 18/15/15 6/16/16
f 6/16/16 18/15/15 19/6/6 5/5/5
f 8/12/12 9/17/17 20/18/18 17/13/13
f 17/13/13 20/18/18 21/19/19 18/15/15
f 18/15/15 21/19/19 22/9/9 19/6/6
f 9/17/17 10/20/20 23/21/21 20/18/18
f 20/18/18 23/21/21 24/22/22 21/19/19
f 21/19/19 24/22/22 25/1/1 22/9/9
f 10/20/20 2/23/23 11/24/24 23/21/21
f 23/21/21 11/24/24 12/25/25 24/22/22
f 24/22/22 12/25/25 13/2/2 25/1/1
f 50/1/26 39/4/27 29/3/28 38/2/29
f 30/5/30 28/8/31 41/7/32 44/6/33
f 44/6/33 41/7/32 40/10/34 47/9/35
f 47/9/35 40/10/34 39/4/27 50/1/26
f 26/11/36 32/14/37 42/13/38 33/12/39
f 32/14/37 31/16/40 43/15/41 42/13/38
f 31/16/40 30/5/30 44/6/33 43/15/41
f 33/12/39 42/13/38 45/18/42 34/17/43
f 42/13/38 43/15/41 46/19/44 45/18/42
f 43/15/41 44/6/33 47/9/35 46/19/44
f 34/17/43 45/18/42 48/21/45 35/20/46
f 45/18/42 46/19/44 49/22/47 48/21/45
f 46/19/44 47/9/35 50/1/26 49/22/47
f 35/20/46 48/21/45 36/24/48 27/23/49
f 48/21/45 49/22/47 37/25/50 36/24/48
f 49/22/47 50/1/26 38/2/29 37/25/50
f 1/11/11 7/14/14 32/14/37 26/11/36
f 2/23/23 10/20/20 35/20/46 27/23/49
f 4/3/3 13/2/2 38/2/29 29/3/28
f 3/8/8 16/7/7 41/7/32 28/8/31
f 5/5/5 3/8/8 28/8/31 30/5/30
f 6/16/16 5/5/5 30/5/30 31/16/40
f 7/14/14 6/16/16 31/16/40 32/14/37
f 8/12/12 1/11/11 26/11/36 33/12/39
f 9/17/17 8/12/12 33/12/39 34/17/43
f 10/20/20 9/17/17 34/17/43 35/20/46
f 11/24/24 2/23/23 27/23/49 36/24/48
f 12/25/25 11/24/24 36/24/48 37/25/50
f 13/2/2 12/25/25 37/25/50 38/2/29
f 14/4/4 4/3/3 29/3/28 39/4/27
f 15/10/10 14/4/4 39/4/27 40/10/34
f 16/7/7 15/10/10 40/10/34 41/7/32
f 75/1/51 64/4/52 54/3/53 63/2/54
f 55/5/55 53/8/56 66/7/57 69/6/58
f 69/6/58 66/7/57 65/10/59 72/9/60
f 72/9/60 65/10/59 64/4/52 75/1/51
f 51/11/61 57/14/62 67/13/63 58/12/64
f 57/14/62 56/16/65 68/15/66 67/13/63
f 56/16/65 55/5/55 69/6/58 68/15/66
f 58/12/64 67/13/63 70/18/67 59/17/68
f 67/13/63 68/15/66 71/19/69 70/18/67
f 68/15/66 69/6/58 72/9/60 71/19/69
f 59/17/68 70/18/67 73/21/70 60/20/71
f 70/18/67 71/19/69 74/22/72 73/21/70
f 71/19/69 72/9/60 75/1/51 74/22/72
f 60/20/71 73/21/70 61/24/73 52/23/74
f 73/21/70 74/22/72 62/25/75 61/24/73
f 74/22/72 75/1/51 63/2/54 62/25/75
f 100/1/76 88/2/77 79/3/78 89/4/79
f 80/5/80 94/6/81 91/7/82 78/8/83
f 94/6/81 97/9/84 90/10/85 91/7/82
f 97/9/84 100/1/76 89/4/79 90/10/85
f 76/11/86 83/12/87 92/13/88 82/14/89
f 82/14/89 92/13/88 93/15/90 81/16/91
f 81/16/91 93/15/90 94/6/81 80/5/80
f 83/12/87 84/17/92 95/18/93 92/13/88
f 92/13/88 95/18/93 96/19/94 93/15/90
f 93/15/90 96/19/94 97/9/84 94/6/81
f 84/17/92 85/20/95 98/21/96 95/18/93
f 95/18/93 98/21/96 99/22/97 96/19/94
f 96/19/94 99/22/97 100/1/76 97/9/84
f 85/20/95 77/23/98 86/24/99 98/21/96
f 98/21/96 86/24/99 87/25/100 99/22/97
f 99/22/97 87/25/100 88/2/77 100/1/76
f 51/11/61 76/11/86 82/14/89 57/14/62
f 52/23/74 77/23/98 85/20/95 60/20/71
f 54/3/53 79/3/78 88/2/77 63/2/54
f 53/8/56 78/8/83 91/7/82 66/7/57
f 55/5/55 80/5/80 78/8/83 53/8/56
f 56/16/65 81/16/91 80/5/80 55/5/55
f 57/14/62 82/14/89 81/16/91 56/16/65
f 58/12/64 83/12/87 76/11/86 51/11/61
f 59/17/68 84/17/92 83/12/87 58/12/64
f 60/20/71 85/20/95 84/17/92 59/17/68
f 61/24/73 86/24/99 77/23/98 52/23/74
f 62/25/75 87/25/100 86/24/99 61/24/73
f 63/2/54 88/2/77 87/25/100 62/25/75
f 64/4/52 89/4/79 79/3/78 54/3/53
f 65/10/59 90/10/85 89/4/79 64/4/52
f 66/7/57 91/7/82 90/10/85 65/10/59
