# Blender 4.1.1
# www.blender.org
mtllib glasses_3_lenses.mtl
o Plane
v 0.024760 -0.021043 0.000920
v 0.060973 -0.018651 0.000917
v 0.023052 0.019404 0.000915
v 0.059950 0.019871 0.000872
v 0.018997 0.013337 0.000937
v 0.015773 0.006252 0.000993
v 0.015088 -0.002095 0.001030
v 0.016833 -0.010269 0.000986
v 0.020313 -0.016322 0.000934
v 0.028896 -0.023700 0.000941
v 0.034364 -0.025735 0.001002
v 0.042400 -0.026244 0.001056
v 0.049725 -0.025295 0.001009
v 0.055282 -0.022368 0.000960
v 0.065019 -0.012169 0.000923
v 0.067247 -0.006197 0.000939
v 0.067827 0.001442 0.000938
v 0.066256 0.009246 0.000933
v 0.063209 0.015182 0.000913
v 0.054907 0.022481 0.000866
v 0.049407 0.025062 0.000849
v 0.041709 0.026107 0.000865
v 0.033267 0.024988 0.000901
v 0.027452 0.022249 0.000915
v 0.026303 -0.017598 0.001053
v 0.025069 -0.010188 0.001354
v 0.024717 -0.002014 0.001583
v 0.024650 0.006409 0.001429
v 0.025458 0.014733 0.001100
v 0.034084 -0.017887 0.001404
v 0.034038 -0.009768 0.002052
v 0.034037 -0.001660 0.002425
v 0.033787 0.006759 0.002136
v 0.033387 0.015963 0.001402
v 0.042402 -0.017863 0.001613
v 0.042424 -0.009150 0.002431
v 0.042461 -0.000961 0.002835
v 0.042286 0.007521 0.002418
v 0.042016 0.017011 0.001499
v 0.050587 -0.017656 0.001399
v 0.050631 -0.008591 0.002125
v 0.050625 0.000005 0.002422
v 0.050529 0.008543 0.002026
v 0.050225 0.017290 0.001298
v 0.057453 -0.016311 0.001114
v 0.058571 -0.007887 0.001472
v 0.059132 0.000878 0.001563
v 0.058351 0.009177 0.001386
v 0.056843 0.016079 0.001104
v -0.024760 -0.021043 0.000920
v -0.060973 -0.018651 0.000917
v -0.023052 0.019404 0.000915
v -0.059950 0.019871 0.000872
v -0.018997 0.013337 0.000937
v -0.015773 0.006252 0.000993
v -0.015088 -0.002095 0.001030
v -0.016833 -0.010269 0.000986
v -0.020313 -0.016322 0.000934
v -0.028896 -0.023700 0.000941
v -0.034364 -0.025735 0.001002
v -0.042400 -0.026244 0.001056
v -0.049725 -0.025295 0.001009
v -0.055282 -0.022368 0.000960
v -0.065019 -0.012169 0.000923
v -0.067247 -0.006197 0.000939
v -0.067827 0.001442 0.000938
v -0.066256 0.009246 0.000933
v -0.063209 0.015182 0.000913
v -0.054907 0.022481 0.000866
v -0.049407 0.025062 0.000849
v -0.041709 0.026107 0.000865
v -0.033267 0.024988 0.000901
v -0.027452 0.022249 0.000915
v -0.026303 -0.017598 0.001053
v -0.025069 -0.010188 0.001354
v -0.024717 -0.002014 0.001583
v -0.024650 0.006409 0.001429
v -0.025458 0.014733 0.001100
v -0.034084 -0.017887 0.001404
v -0.034038 -0.009768 0.002052
v -0.034037 -0.001660 0.002425
v -0.033787 0.006759 0.002136
v -0.033387 0.015963 0.001402
v -0.042402 -0.017863 0.001613
v -0.042424 -0.009150 0.002431
v -0.042461 -0.000961 0.002835
v -0.042286 0.007521 0.002418
v -0.042016 0.017011 0.001499
v -0.050587 -0.017656 0.001399
v -0.050631 -0.008591 0.002125
v -0.050625 0.000005 0.002422
v -0.050529 0.008543 0.002026
v -0.050225 0.017290 0.001298
v -0.057453 -0.016311 0.001114
v -0.058571 -0.007887 0.001472
v -0.059132 0.000878 0.001563
v -0.058351 0.009177 0.001386
v -0.056843 0.016079 0.001104
vn 0.0425 0.0518 0.9978
vn 0.0421 0.0397 0.9983
vn 0.0280 0.0382 0.9989
vn 0.0307 0.0503 0.9983
vn -0.0381 0.0336 0.9987
vn -0.0418 0.0421 0.9982
vn -0.0319 0.0406 0.9987
vn -0.0252 0.0264 0.9993
vn -0.0352 0.0640 0.9973
vn -0.0206 0.0553 0.9983
vn 0.0010 0.0760 0.9971
vn 0.0023 0.0636 0.9980
vn 0.0335 0.0697 0.9970
vn 0.0221 0.0613 0.9979
vn -0.0245 -0.0276 0.9993
vn -0.0360 -0.0413 0.9985
vn -0.0401 -0.0438 0.9982
vn -0.0348 -0.0369 0.9987
vn -0.0577 -0.0414 0.9975
vn -0.0461 -0.0293 0.9985
vn -0.0677 -0.0062 0.9977
vn -0.0524 -0.0042 0.9986
vn -0.0610 0.0334 0.9976
vn -0.0491 0.0225 0.9985
vn -0.0266 -0.0533 0.9982
vn -0.0376 -0.0640 0.9972
vn -0.0548 -0.0599 0.9967
vn -0.0634 -0.0059 0.9980
vn -0.0562 0.0532 0.9970
vn 0.0013 -0.0597 0.9982
vn 0.0018 -0.0731 0.9973
vn 0.0018 -0.0657 0.9978
vn 0.0013 -0.0006 1.0000
vn -0.0005 0.0665 0.9978
vn 0.0292 -0.0563 0.9980
vn 0.0428 -0.0650 0.9970
vn 0.0623 -0.0551 0.9965
vn 0.0683 0.0056 0.9977
vn 0.0552 0.0625 0.9965
vn 0.0421 -0.0453 0.9981
vn 0.0515 -0.0458 0.9976
vn 0.0731 -0.0353 0.9967
vn 0.0777 0.0065 0.9970
vn 0.0645 0.0423 0.9970
vn 0.0356 -0.0305 0.9989
vn 0.0546 -0.0380 0.9978
vn 0.0645 -0.0207 0.9977
vn 0.0659 0.0053 0.9978
vn 0.0576 0.0282 0.9979
vn -0.0425 0.0518 0.9978
vn -0.0307 0.0503 0.9983
vn -0.0280 0.0382 0.9989
vn -0.0421 0.0397 0.9983
vn 0.0381 0.0336 0.9987
vn 0.0252 0.0264 0.9993
vn 0.0319 0.0406 0.9987
vn 0.0418 0.0421 0.9982
vn 0.0206 0.0553 0.9983
vn 0.0352 0.0640 0.9973
vn -0.0023 0.0636 0.9980
vn -0.0010 0.0760 0.9971
vn -0.0221 0.0613 0.9979
vn -0.0335 0.0697 0.9970
vn 0.0245 -0.0276 0.9993
vn 0.0348 -0.0369 0.9987
vn 0.0401 -0.0438 0.9982
vn 0.0360 -0.0413 0.9985
vn 0.0461 -0.0293 0.9985
vn 0.0577 -0.0414 0.9975
vn 0.0524 -0.0042 0.9986
vn 0.0677 -0.0062 0.9977
vn 0.0491 0.0225 0.9985
vn 0.0610 0.0334 0.9976
vn 0.0376 -0.0640 0.9972
vn 0.0266 -0.0533 0.9982
vn 0.0548 -0.0599 0.9967
vn 0.0634 -0.0059 0.9980
vn 0.0562 0.0532 0.9970
vn -0.0018 -0.0731 0.9973
vn -0.0013 -0.0597 0.9982
vn -0.0018 -0.0657 0.9978
vn -0.0013 -0.0006 1.0000
vn 0.0005 0.0665 0.9978
vn -0.0428 -0.0650 0.9970
vn -0.0292 -0.0563 0.9980
vn -0.0623 -0.0551 0.9965
vn -0.0683 0.0056 0.9977
vn -0.0552 0.0625 0.9965
vn -0.0515 -0.0458 0.9976
vn -0.0421 -0.0453 0.9981
vn -0.0731 -0.0353 0.9967
vn -0.0777 0.0065 0.9970
vn -0.0645 0.0423 0.9970
vn -0.0546 -0.0380 0.9978
vn -0.0356 -0.0305 0.9989
vn -0.0645 -0.0207 0.9977
vn -0.0659 0.0053 0.9978
vn -0.0576 0.0282 0.9979
vt 0.833333 0.833333
vt 1.000000 0.833333
vt 1.000000 1.000000
vt 0.833333 1.000000
vt 0.000000 0.833333
vt 0.166667 0.833333
vt 0.166667 1.000000
vt 0.000000 1.000000
vt 0.333333 0.833333
vt 0.333333 1.000000
vt 0.500000 0.833333
vt 0.500000 1.000000
vt 0.666667 0.833333
vt 0.666667 1.000000
vt 0.000000 0.000000
vt 0.166667 0.000000
vt 0.166667 0.166667
vt 0.000000 0.166667
vt 0.166667 0.333333
vt 0.000000 0.333333
vt 0.166667 0.500000
vt 0.000000 0.500000
vt 0.166667 0.666667
vt 0.000000 0.666667
vt 0.333333 0.000000
vt 0.333333 0.166667
vt 0.333333 0.333333
vt 0.333333 0.500000
vt 0.333333 0.666667
vt 0.500000 0.000000
vt 0.500000 0.166667
vt 0.500000 0.333333
vt 0.500000 0.500000
vt 0.500000 0.666667
vt 0.666667 0.000000
vt 0.666667 0.166667
vt 0.666667 0.333333
vt 0.666667 0.500000
vt 0.666667 0.666667
vt 0.833333 0.000000
vt 0.833333 0.166667
vt 0.833333 0.333333
vt 0.833333 0.500000
vt 0.833333 0.666667
vt 1.000000 0.000000
vt 1.000000 0.166667
vt 1.000000 0.333333
vt 1.000000 0.500000
vt 1.000000 0.666667
s 1
usemtl Material.004
f 49/1/1 19/2/2 4/3/3 20/4/4
f 5/5/5 29/6/6 24/7/7 3/8/8
f 29/6/6 34/9/9 23/10/10 24/7/7
f 34/9/9 39/11/11 22/12/12 23/10/10
f 39/11/11 44/13/13 21/14/14 22/12/12
f 44/13/13 49/1/1 20/4/4 21/14/14
f 1/15/15 10/16/16 25/17/17 9/18/18
f 9/18/18 25/17/17 26/19/19 8/20/20
f 8/20/20 26/19/19 27/21/21 7/22/22
f 7/22/22 27/21/21 28/23/23 6/24/24
f 6/24/24 28/23/23 29/6/6 5/5/5
f 10/16/16 11/25/25 30/26/26 25/17/17
f 25/17/17 30/26/26 31/27/27 26/19/19
f 26/19/19 31/27/27 32/28/28 27/21/21
f 27/21/21 32/28/28 33/29/29 28/23/23
f 28/23/23 33/29/29 34/9/9 29/6/6
f 11/25/25 12/30/30 35/31/31 30/26/26
f 30/26/26 35/31/31 36/32/32 31/27/27
f 31/27/27 36/32/32 37/33/33 32/28/28
f 32/28/28 37/33/33 38/34/34 33/29/29
f 33/29/29 38/34/34 39/11/11 34/9/9
f 12/30/30 13/35/35 40/36/36 35/31/31
f 35/31/31 40/36/36 41/37/37 36/32/32
f 36/32/32 41/37/37 42/38/38 37/33/33
f 37/33/33 42/38/38 43/39/39 38/34/34
f 38/34/34 43/39/39 44/13/13 39/11/11
f 13/35/35 14/40/40 45/41/41 40/36/36
f 40/36/36 45/41/41 46/42/42 41/37/37
f 41/37/37 46/42/42 47/43/43 42/38/38
f 42/38/38 47/43/43 48/44/44 43/39/39
f 43/39/39 48/44/44 49/1/1 44/13/13
f 14/40/40 2/45/45 15/46/46 45/41/41
f 45/41/41 15/46/46 16/47/47 46/42/42
f 46/42/42 16/47/47 17/48/48 47/43/43
f 47/43/43 17/48/48 18/49/49 48/44/44
f 48/44/44 18/49/49 19/2/2 49/1/1
f 98/1/50 69/4/51 53/3/52 68/2/53
f 54/5/54 52/8/55 73/7/56 78/6/57
f 78/6/57 73/7/56 72/10/58 83/9/59
f 83/9/59 72/10/58 71/12/60 88/11/61
f 88/11/61 71/12/60 70/14/62 93/13/63
f 93/13/63 70/14/62 69/4/51 98/1/50
f 50/15/64 58/18/65 74/17/66 59/16/67
f 58/18/65 57/20/68 75/19/69 74/17/66
f 57/20/68 56/22/70 76/21/71 75/19/69
f 56/22/70 55/24/72 77/23/73 76/21/71
f 55/24/72 54/5/54 78/6/57 77/23/73
f 59/16/67 74/17/66 79/26/74 60/25/75
f 74/17/66 75/19/69 80/27/76 79/26/74
f 75/19/69 76/21/71 81/28/77 80/27/76
f 76/21/71 77/23/73 82/29/78 81/28/77
f 77/23/73 78/6/57 83/9/59 82/29/78
f 60/25/75 79/26/74 84/31/79 61/30/80
f 79/26/74 80/27/76 85/32/81 84/31/79
f 80/27/76 81/28/77 86/33/82 85/32/81
f 81/28/77 82/29/78 87/34/83 86/33/82
f 82/29/78 83/9/59 88/11/61 87/34/83
f 61/30/80 84/31/79 89/36/84 62/35/85
f 84/31/79 85/32/81 90/37/86 89/36/84
f 85/32/81 86/33/82 91/38/87 90/37/86
f 86/33/82 87/34/83 92/39/88 91/38/87
f 87/34/83 88/11/61 93/13/63 92/39/88
f 62/35/85 89/36/84 94/41/89 63/40/90
f 89/36/84 90/37/86 95/42/91 94/41/89
f 90/37/86 91/38/87 96/43/92 95/42/91
f 91/38/87 92/39/88 97/44/93 96/43/92
f 92/39/88 93/13/63 98/1/50 97/44/93
f 63/40/90 94/41/89 64/46/94 51/45/95
f 94/41/89 95/42/91 65/47/96 64/46/94
f 95/42/91 96/43/92 66/48/97 65/47/96
f 96/43/92 97/44/93 67/49/98 66/48/97
f 97/44/93 98/1/50 68/2/53 67/49/98
