# Blender 4.1.1
# www.blender.org
mtllib glasses_9_lenses.mtl
o Plane
v 0.020837 -0.017117 0.028982
v 0.059150 -0.015579 0.029340
v 0.008927 0.016188 0.028966
v 0.067847 0.014537 0.028793
v 0.009881 0.007144 0.028978
v 0.011318 -0.000857 0.029030
v 0.018002 -0.014025 0.029156
v 0.026287 -0.019265 0.029351
v 0.039664 -0.020429 0.029691
v 0.052823 -0.018285 0.029438
v 0.063997 -0.009978 0.028987
v 0.067634 -0.000108 0.029024
v 0.069323 0.011659 0.028918
v 0.056051 0.018656 0.028566
v 0.039956 0.020458 0.028581
v 0.024405 0.018909 0.028739
v 0.025973 -0.013815 0.029755
v 0.025266 -0.000456 0.030321
v 0.024341 0.010099 0.029839
v 0.039517 -0.012913 0.030513
v 0.039464 -0.000536 0.031380
v 0.039556 0.011006 0.030635
v 0.052724 -0.011836 0.029928
v 0.054436 -0.000324 0.030257
v 0.054555 0.010409 0.029903
v 0.010387 0.004326 0.028993
v 0.069047 0.007322 0.029133
v 0.024667 0.006364 0.030082
v 0.039523 0.006909 0.031032
v 0.054513 0.006610 0.030105
v 0.033054 -0.020309 0.029437
v 0.032380 0.019703 0.028658
v 0.032918 -0.013353 0.030144
v 0.032547 -0.000497 0.030864
v 0.032143 0.010564 0.030247
v 0.032286 0.006644 0.030569
v 0.046193 -0.019937 0.029424
v 0.048003 0.019557 0.028574
v 0.046121 -0.012375 0.030221
v 0.046950 -0.000430 0.030819
v 0.047055 0.010708 0.030269
v 0.047018 0.006760 0.030569
v 0.019235 -0.015562 0.029127
v 0.062150 -0.012560 0.029018
v 0.026130 -0.016540 0.029553
v 0.039590 -0.016671 0.030102
v 0.052774 -0.015061 0.029683
v 0.032986 -0.016831 0.029790
v 0.046157 -0.016156 0.029822
v 0.020866 -0.017081 0.028686
v 0.059135 -0.015576 0.029040
v 0.008937 0.016170 0.028667
v 0.067834 0.014498 0.028496
v 0.009897 0.007130 0.028679
v 0.011344 -0.000855 0.028731
v 0.018026 -0.014010 0.028858
v 0.026304 -0.019235 0.029053
v 0.039663 -0.020397 0.029393
v 0.052812 -0.018267 0.029139
v 0.063970 -0.009964 0.028688
v 0.067609 -0.000102 0.028725
v 0.069307 0.011634 0.028619
v 0.056039 0.018611 0.028270
v 0.039955 0.020400 0.028287
v 0.024414 0.018876 0.028441
v 0.025993 -0.013796 0.029456
v 0.025289 -0.000453 0.030021
v 0.024356 0.010076 0.029541
v 0.039517 -0.012888 0.030214
v 0.039464 -0.000533 0.031080
v 0.039556 0.010963 0.030338
v 0.052703 -0.011818 0.029629
v 0.054413 -0.000319 0.029958
v 0.054540 0.010378 0.029605
v 0.010411 0.004320 0.028694
v 0.069026 0.007314 0.028834
v 0.024689 0.006353 0.029783
v 0.039524 0.006890 0.030733
v 0.054493 0.006600 0.029806
v 0.033065 -0.020280 0.029138
v 0.032390 0.019651 0.028363
v 0.032935 -0.013329 0.029845
v 0.032567 -0.000494 0.030565
v 0.032158 0.010527 0.029950
v 0.032305 0.006626 0.030270
v 0.046181 -0.019907 0.029126
v 0.047992 0.019502 0.028279
v 0.046104 -0.012352 0.029922
v 0.046930 -0.000427 0.030519
v 0.047041 0.010669 0.029972
v 0.046999 0.006743 0.030270
v 0.019258 -0.015536 0.028829
v 0.062124 -0.012543 0.028719
v 0.026149 -0.016511 0.029255
v 0.039589 -0.016639 0.029804
v 0.052758 -0.015042 0.029384
v 0.032999 -0.016802 0.029492
v 0.046144 -0.016126 0.029524
v -0.020837 -0.017117 0.028982
v -0.059150 -0.015579 0.029340
v -0.008927 0.016188 0.028966
v -0.067847 0.014537 0.028793
v -0.009881 0.007144 0.028978
v -0.011318 -0.000857 0.029030
v -0.018002 -0.014025 0.029156
v -0.026287 -0.019265 0.029351
v -0.039664 -0.020429 0.029691
v -0.052823 -0.018285 0.029438
v -0.063997 -0.009978 0.028987
v -0.067634 -0.000108 0.029024
v -0.069323 0.011659 0.028918
v -0.056051 0.018656 0.028566
v -0.039956 0.020458 0.028581
v -0.024405 0.018909 0.028739
v -0.025973 -0.013815 0.029755
v -0.025266 -0.000456 0.030321
v -0.024341 0.010099 0.029839
v -0.039517 -0.012913 0.030513
v -0.039464 -0.000536 0.031380
v -0.039556 0.011006 0.030635
v -0.052724 -0.011836 0.029928
v -0.054436 -0.000324 0.030257
v -0.054555 0.010409 0.029903
v -0.010387 0.004326 0.028993
v -0.069047 0.007322 0.029133
v -0.024667 0.006364 0.030082
v -0.039523 0.006909 0.031032
v -0.054513 0.006610 0.030105
v -0.033054 -0.020309 0.029437
v -0.032380 0.019703 0.028658
v -0.032918 -0.013353 0.030144
v -0.032547 -0.000497 0.030864
v -0.032143 0.010564 0.030247
v -0.032286 0.006644 0.030569
v -0.046193 -0.019937 0.029424
v -0.048003 0.019557 0.028574
v -0.046121 -0.012375 0.030221
v -0.046950 -0.000430 0.030819
v -0.047055 0.010708 0.030269
v -0.047018 0.006760 0.030569
v -0.019235 -0.015562 0.029127
v -0.062150 -0.012560 0.029018
v -0.026130 -0.016540 0.029553
v -0.039590 -0.016671 0.030102
v -0.052774 -0.015061 0.029683
v -0.032986 -0.016831 0.029790
v -0.046157 -0.016156 0.029822
v -0.020866 -0.017081 0.028686
v -0.059135 -0.015576 0.029040
v -0.008937 0.016170 0.028667
v -0.067834 0.014498 0.028496
v -0.009897 0.007130 0.028679
v -0.011344 -0.000855 0.028731
v -0.018026 -0.014010 0.028858
v -0.026304 -0.019235 0.029053
v -0.039663 -0.020397 0.029393
v -0.052812 -0.018267 0.029139
v -0.063970 -0.009964 0.028688
v -0.067609 -0.000102 0.028725
v -0.069307 0.011634 0.028619
v -0.056039 0.018611 0.028270
v -0.039955 0.020400 0.028287
v -0.024414 0.018876 0.028441
v -0.025993 -0.013796 0.029456
v -0.025289 -0.000453 0.030021
v -0.024356 0.010076 0.029541
v -0.039517 -0.012888 0.030214
v -0.039464 -0.000533 0.031080
v -0.039556 0.010963 0.030338
v -0.052703 -0.011818 0.029629
v -0.054413 -0.000319 0.029958
v -0.054540 0.010378 0.029605
v -0.010411 0.004320 0.028694
v -0.069026 0.007314 0.028834
v -0.024689 0.006353 0.029783
v -0.039524 0.006890 0.030733
v -0.054493 0.006600 0.029806
v -0.033065 -0.020280 0.029138
v -0.032390 0.019651 0.028363
v -0.032935 -0.013329 0.029845
v -0.032567 -0.000494 0.030565
v -0.032158 0.010527 0.029950
v -0.032305 0.006626 0.030270
v -0.046181 -0.019907 0.029126
v -0.047992 0.019502 0.028279
v -0.046104 -0.012352 0.029922
v -0.046930 -0.000427 0.030519
v -0.047041 0.010669 0.029972
v -0.046999 0.006743 0.030270
v -0.019258 -0.015536 0.028829
v -0.062124 -0.012543 0.028719
v -0.026149 -0.016511 0.029255
v -0.039589 -0.016639 0.029804
v -0.052758 -0.015042 0.029384
v -0.032999 -0.016802 0.029492
v -0.046144 -0.016126 0.029524
vn 0.0502 0.1025 0.9935
vn 0.7757 0.2113 0.5947
vn 0.5267 0.6590 0.5370
vn 0.1885 0.8058 0.5614
vn -0.7452 -0.0696 0.6632
vn -0.0489 0.0769 0.9958
vn -0.1207 0.7810 0.6127
vn -0.6650 0.5287 0.5275
vn -0.0478 0.1247 0.9910
vn -0.0005 0.1431 0.9897
vn 0.0051 0.8444 0.5357
vn -0.0934 0.8116 0.5767
vn 0.0476 0.1299 0.9904
vn 0.1034 0.8185 0.5651
vn -0.5805 -0.5355 0.6134
vn -0.0615 -0.0956 0.9935
vn -0.0662 -0.0652 0.9957
vn -0.6614 -0.4265 0.6169
vn -0.0758 -0.0107 0.9971
vn -0.7521 -0.2387 0.6143
vn -0.7483 -0.1105 0.6541
vn -0.0720 0.0368 0.9967
vn -0.0412 -0.0982 0.9943
vn 0.0031 -0.1060 0.9944
vn 0.0007 -0.0846 0.9964
vn -0.0544 -0.0780 0.9955
vn -0.0006 -0.0110 0.9999
vn -0.0667 -0.0095 0.9977
vn -0.0656 0.0587 0.9961
vn -0.0014 0.0648 0.9979
vn 0.0430 -0.0984 0.9942
vn 0.0529 -0.0628 0.9966
vn 0.0717 -0.0607 0.9956
vn 0.0552 -0.0764 0.9955
vn 0.0763 -0.0157 0.9970
vn 0.0657 -0.0099 0.9978
vn 0.0628 0.0544 0.9965
vn 0.0672 0.0332 0.9972
vn 0.6073 -0.5063 0.6123
vn 0.7055 -0.3729 0.6027
vn 0.7534 -0.2053 0.6246
vn 0.7544 -0.0722 0.6524
vn 0.0223 -0.7765 0.6298
vn 0.1405 -0.7805 0.6091
vn -0.2234 -0.7653 0.6037
vn -0.0859 -0.7861 0.6121
vn 0.2552 -0.7237 0.6412
vn 0.4521 -0.6266 0.6348
vn -0.4641 -0.7005 0.5421
vn -0.0502 -0.1025 -0.9935
vn 0.1334 0.6016 -0.7876
vn 0.4879 0.4985 -0.7165
vn 0.7067 0.0925 -0.7014
vn -0.6691 -0.1334 -0.7311
vn -0.6339 0.4477 -0.6307
vn -0.0740 0.6272 -0.7754
vn 0.0489 -0.0769 -0.9958
vn 0.0478 -0.1247 -0.9910
vn -0.0458 0.5746 -0.8171
vn 0.0022 0.5882 -0.8087
vn 0.0006 -0.1430 -0.9897
vn -0.0477 -0.1298 -0.9904
vn 0.0505 0.5629 -0.8250
vn -0.4809 -0.4243 -0.7672
vn -0.5582 -0.3607 -0.7472
vn 0.0662 0.0652 -0.9957
vn 0.0615 0.0956 -0.9935
vn -0.6406 -0.2297 -0.7328
vn 0.0758 0.0107 -0.9971
vn -0.6392 -0.1409 -0.7560
vn 0.0720 -0.0368 -0.9967
vn 0.0412 0.0982 -0.9943
vn 0.0545 0.0780 -0.9955
vn -0.0007 0.0846 -0.9964
vn -0.0031 0.1060 -0.9944
vn 0.0667 0.0095 -0.9977
vn 0.0006 0.0110 -0.9999
vn 0.0656 -0.0587 -0.9961
vn 0.0014 -0.0647 -0.9979
vn -0.0430 0.0984 -0.9942
vn -0.0553 0.0764 -0.9955
vn -0.0717 0.0607 -0.9956
vn -0.0529 0.0629 -0.9966
vn -0.0657 0.0099 -0.9978
vn -0.0763 0.0157 -0.9970
vn -0.0629 -0.0544 -0.9965
vn -0.0672 -0.0332 -0.9972
vn 0.5867 -0.3121 -0.7472
vn 0.4912 -0.4267 -0.7594
vn 0.6385 -0.1800 -0.7483
vn 0.6720 -0.1095 -0.7324
vn 0.0182 -0.6501 -0.7596
vn 0.0852 -0.6447 -0.7597
vn -0.1503 -0.6379 -0.7553
vn -0.0330 -0.6448 -0.7636
vn 0.2038 -0.6468 -0.7349
vn 0.3829 -0.6085 -0.6950
vn -0.3359 -0.5425 -0.7700
vn -0.0502 0.1025 0.9935
vn -0.1885 0.8058 0.5614
vn -0.5267 0.6590 0.5370
vn -0.7757 0.2113 0.5947
vn 0.7452 -0.0696 0.6632
vn 0.6650 0.5287 0.5275
vn 0.1207 0.7810 0.6127
vn 0.0489 0.0769 0.9958
vn 0.0478 0.1247 0.9910
vn 0.0934 0.8116 0.5767
vn -0.0051 0.8444 0.5357
vn 0.0005 0.1431 0.9897
vn -0.0476 0.1299 0.9904
vn -0.1034 0.8185 0.5651
vn 0.5805 -0.5355 0.6134
vn 0.6614 -0.4265 0.6169
vn 0.0662 -0.0652 0.9957
vn 0.0615 -0.0956 0.9935
vn 0.7521 -0.2387 0.6143
vn 0.0757 -0.0107 0.9971
vn 0.7483 -0.1105 0.6541
vn 0.0720 0.0368 0.9967
vn 0.0412 -0.0982 0.9943
vn 0.0544 -0.0780 0.9955
vn -0.0007 -0.0846 0.9964
vn -0.0031 -0.1060 0.9944
vn 0.0667 -0.0095 0.9977
vn 0.0006 -0.0110 0.9999
vn 0.0656 0.0587 0.9961
vn 0.0014 0.0648 0.9979
vn -0.0430 -0.0984 0.9942
vn -0.0552 -0.0764 0.9955
vn -0.0717 -0.0607 0.9956
vn -0.0529 -0.0628 0.9966
vn -0.0657 -0.0099 0.9978
vn -0.0763 -0.0157 0.9970
vn -0.0628 0.0544 0.9965
vn -0.0672 0.0332 0.9972
vn -0.7055 -0.3729 0.6027
vn -0.6073 -0.5063 0.6123
vn -0.7534 -0.2053 0.6246
vn -0.7544 -0.0722 0.6524
vn -0.0223 -0.7765 0.6298
vn -0.1405 -0.7805 0.6091
vn 0.2234 -0.7653 0.6037
vn 0.0859 -0.7861 0.6121
vn -0.2552 -0.7237 0.6412
vn -0.4521 -0.6266 0.6348
vn 0.4641 -0.7005 0.5421
vn 0.0502 -0.1025 -0.9935
vn -0.7067 0.0926 -0.7014
vn -0.4879 0.4985 -0.7165
vn -0.1334 0.6016 -0.7876
vn 0.6691 -0.1334 -0.7311
vn -0.0489 -0.0769 -0.9958
vn 0.0740 0.6272 -0.7754
vn 0.6339 0.4477 -0.6307
vn -0.0478 -0.1247 -0.9910
vn -0.0006 -0.1430 -0.9897
vn -0.0022 0.5882 -0.8087
vn 0.0458 0.5746 -0.8171
vn 0.0477 -0.1298 -0.9904
vn -0.0505 0.5629 -0.8250
vn 0.4809 -0.4243 -0.7672
vn -0.0615 0.0956 -0.9935
vn -0.0662 0.0652 -0.9957
vn 0.5582 -0.3607 -0.7472
vn -0.0758 0.0107 -0.9971
vn 0.6406 -0.2297 -0.7328
vn 0.6392 -0.1409 -0.7560
vn -0.0720 -0.0368 -0.9967
vn -0.0412 0.0982 -0.9943
vn 0.0031 0.1060 -0.9944
vn 0.0007 0.0846 -0.9964
vn -0.0545 0.0780 -0.9955
vn -0.0006 0.0110 -0.9999
vn -0.0667 0.0095 -0.9977
vn -0.0656 -0.0587 -0.9961
vn -0.0014 -0.0647 -0.9979
vn 0.0430 0.0984 -0.9942
vn 0.0529 0.0629 -0.9966
vn 0.0717 0.0607 -0.9956
vn 0.0553 0.0764 -0.9955
vn 0.0763 0.0157 -0.9970
vn 0.0657 0.0099 -0.9978
vn 0.0629 -0.0544 -0.9965
vn 0.0672 -0.0332 -0.9972
vn -0.4912 -0.4267 -0.7594
vn -0.5867 -0.3121 -0.7472
vn -0.6385 -0.1800 -0.7483
vn -0.6720 -0.1095 -0.7324
vn -0.0182 -0.6501 -0.7596
vn -0.0852 -0.6447 -0.7597
vn 0.1503 -0.6379 -0.7553
vn 0.0330 -0.6448 -0.7636
vn -0.2038 -0.6468 -0.7349
vn -0.3829 -0.6085 -0.6950
vn 0.3359 -0.5425 -0.7700
vt 0.750000 0.750000
vt 1.000000 0.750000
vt 1.000000 1.000000
vt 0.750000 1.000000
vt 0.000000 0.750000
vt 0.250000 0.750000
vt 0.250000 1.000000
vt 0.000000 1.000000
vt 0.378203 0.750000
vt 0.500000 0.750000
vt 0.500000 1.000000
vt 0.378203 1.000000
vt 0.625000 0.750000
vt 0.625000 1.000000
vt 0.000000 0.125000
vt 0.250000 0.125000
vt 0.250000 0.250000
vt 0.000000 0.250000
vt 0.250000 0.500000
vt 0.000000 0.500000
vt 0.000000 0.661928
vt 0.250000 0.661928
vt 0.378203 0.125000
vt 0.500000 0.125000
vt 0.500000 0.250000
vt 0.378203 0.250000
vt 0.500000 0.500000
vt 0.378203 0.500000
vt 0.378203 0.661928
vt 0.500000 0.661928
vt 0.625729 0.125000
vt 0.751457 0.125000
vt 0.750000 0.250000
vt 0.625000 0.250000
vt 0.750000 0.500000
vt 0.625000 0.500000
vt 0.625000 0.661928
vt 0.750000 0.661928
vt 1.000000 0.125000
vt 1.000000 0.250000
vt 1.000000 0.500000
vt 1.000000 0.661928
vt 0.500000 0.000000
vt 0.626457 0.000000
vt 0.250000 0.000000
vt 0.378203 0.000000
vt 0.752914 0.000000
vt 1.000000 0.000000
vt 0.000000 0.000000
s 1
f 25/1/1 13/2/2 4/3/3 14/4/4
f 5/5/5 19/6/6 16/7/7 3/8/8
f 35/9/9 22/10/10 15/11/11 32/12/12
f 41/13/13 25/1/1 14/4/4 38/14/14
f 43/15/15 45/16/16 17/17/17 7/18/18
f 7/18/18 17/17/17 18/19/19 6/20/20
f 26/21/21 28/22/22 19/6/6 5/5/5
f 48/23/23 46/24/24 20/25/25 33/26/26
f 33/26/26 20/25/25 21/27/27 34/28/28
f 36/29/29 29/30/30 22/10/10 35/9/9
f 49/31/31 47/32/32 23/33/33 39/34/34
f 39/34/34 23/33/33 24/35/35 40/36/36
f 42/37/37 30/38/38 25/1/1 41/13/13
f 47/32/32 44/39/39 11/40/40 23/33/33
f 23/33/33 11/40/40 12/41/41 24/35/35
f 30/38/38 27/42/42 13/2/2 25/1/1
f 24/35/35 12/41/41 27/42/42 30/38/38
f 40/36/36 24/35/35 30/38/38 42/37/37
f 34/28/28 21/27/27 29/30/30 36/29/29
f 6/20/20 18/19/19 28/22/22 26/21/21
f 18/19/19 34/28/28 36/29/29 28/22/22
f 28/22/22 36/29/29 35/9/9 19/6/6
f 17/17/17 33/26/26 34/28/28 18/19/19
f 45/16/16 48/23/23 33/26/26 17/17/17
f 19/6/6 35/9/9 32/12/12 16/7/7
f 21/27/27 40/36/36 42/37/37 29/30/30
f 29/30/30 42/37/37 41/13/13 22/10/10
f 20/25/25 39/34/34 40/36/36 21/27/27
f 46/24/24 49/31/31 39/34/34 20/25/25
f 22/10/10 41/13/13 38/14/14 15/11/11
f 9/43/43 37/44/44 49/31/31 46/24/24
f 8/45/45 31/46/46 48/23/23 45/16/16
f 10/47/47 2/48/48 44/39/39 47/32/32
f 37/44/44 10/47/47 47/32/32 49/31/31
f 31/46/46 9/43/43 46/24/24 48/23/23
f 1/49/49 8/45/45 45/16/16 43/15/15
f 74/1/50 63/4/51 53/3/52 62/2/53
f 54/5/54 52/8/55 65/7/56 68/6/57
f 84/9/58 81/12/59 64/11/60 71/10/61
f 90/13/62 87/14/63 63/4/51 74/1/50
f 92/15/64 56/18/65 66/17/66 94/16/67
f 56/18/65 55/20/68 67/19/69 66/17/66
f 75/21/70 54/5/54 68/6/57 77/22/71
f 97/23/72 82/26/73 69/25/74 95/24/75
f 82/26/73 83/28/76 70/27/77 69/25/74
f 85/29/78 84/9/58 71/10/61 78/30/79
f 98/31/80 88/34/81 72/33/82 96/32/83
f 88/34/81 89/36/84 73/35/85 72/33/82
f 91/37/86 90/13/62 74/1/50 79/38/87
f 96/32/83 72/33/82 60/40/88 93/39/89
f 72/33/82 73/35/85 61/41/90 60/40/88
f 79/38/87 74/1/50 62/2/53 76/42/91
f 73/35/85 79/38/87 76/42/91 61/41/90
f 89/36/84 91/37/86 79/38/87 73/35/85
f 83/28/76 85/29/78 78/30/79 70/27/77
f 55/20/68 75/21/70 77/22/71 67/19/69
f 67/19/69 77/22/71 85/29/78 83/28/76
f 77/22/71 68/6/57 84/9/58 85/29/78
f 66/17/66 67/19/69 83/28/76 82/26/73
f 94/16/67 66/17/66 82/26/73 97/23/72
f 68/6/57 65/7/56 81/12/59 84/9/58
f 70/27/77 78/30/79 91/37/86 89/36/84
f 78/30/79 71/10/61 90/13/62 91/37/86
f 69/25/74 70/27/77 89/36/84 88/34/81
f 95/24/75 69/25/74 88/34/81 98/31/80
f 71/10/61 64/11/60 87/14/63 90/13/62
f 58/43/92 95/24/75 98/31/80 86/44/93
f 57/45/94 94/16/67 97/23/72 80/46/95
f 59/47/96 96/32/83 93/39/89 51/48/97
f 86/44/93 98/31/80 96/32/83 59/47/96
f 80/46/95 97/23/72 95/24/75 58/43/92
f 50/49/98 92/15/64 94/16/67 57/45/94
f 1/49/49 43/15/15 92/15/64 50/49/98
f 2/48/48 10/47/47 59/47/96 51/48/97
f 4/3/3 13/2/2 62/2/53 53/3/52
f 3/8/8 16/7/7 65/7/56 52/8/55
f 5/5/5 3/8/8 52/8/55 54/5/54
f 6/20/20 26/21/21 75/21/70 55/20/68
f 7/18/18 6/20/20 55/20/68 56/18/65
f 8/45/45 1/49/49 50/49/98 57/45/94
f 9/43/43 31/46/46 80/46/95 58/43/92
f 10/47/47 37/44/44 86/44/93 59/47/96
f 11/40/40 44/39/39 93/39/89 60/40/88
f 12/41/41 11/40/40 60/40/88 61/41/90
f 13/2/2 27/42/42 76/42/91 62/2/53
f 14/4/4 4/3/3 53/3/52 63/4/51
f 15/11/11 38/14/14 87/14/63 64/11/60
f 16/7/7 32/12/12 81/12/59 65/7/56
f 26/21/21 5/5/5 54/5/54 75/21/70
f 27/42/42 12/41/41 61/41/90 76/42/91
f 31/46/46 8/45/45 57/45/94 80/46/95
f 32/12/12 15/11/11 64/11/60 81/12/59
f 37/44/44 9/43/43 58/43/92 86/44/93
f 38/14/14 14/4/4 63/4/51 87/14/63
f 43/15/15 7/18/18 56/18/65 92/15/64
f 44/39/39 2/48/48 51/48/97 93/39/89
f 123/1/99 112/4/100 102/3/101 111/2/102
f 103/5/103 101/8/104 114/7/105 117/6/106
f 133/9/107 130/12/108 113/11/109 120/10/110
f 139/13/111 136/14/112 112/4/100 123/1/99
f 141/15/113 105/18/114 115/17/115 143/16/116
f 105/18/114 104/20/117 116/19/118 115/17/115
f 124/21/119 103/5/103 117/6/106 126/22/120
f 146/23/121 131/26/122 118/25/123 144/24/124
f 131/26/122 132/28/125 119/27/126 118/25/123
f 134/29/127 133/9/107 120/10/110 127/30/128
f 147/31/129 137/34/130 121/33/131 145/32/132
f 137/34/130 138/36/133 122/35/134 121/33/131
f 140/37/135 139/13/111 123/1/99 128/38/136
f 145/32/132 121/33/131 109/40/137 142/39/138
f 121/33/131 122/35/134 110/41/139 109/40/137
f 128/38/136 123/1/99 111/2/102 125/42/140
f 122/35/134 128/38/136 125/42/140 110/41/139
f 138/36/133 140/37/135 128/38/136 122/35/134
f 132/28/125 134/29/127 127/30/128 119/27/126
f 104/20/117 124/21/119 126/22/120 116/19/118
f 116/19/118 126/22/120 134/29/127 132/28/125
f 126/22/120 117/6/106 133/9/107 134/29/127
f 115/17/115 116/19/118 132/28/125 131/26/122
f 143/16/116 115/17/115 131/26/122 146/23/121
f 117/6/106 114/7/105 130/12/108 133/9/107
f 119/27/126 127/30/128 140/37/135 138/36/133
f 127/30/128 120/10/110 139/13/111 140/37/135
f 118/25/123 119/27/126 138/36/133 137/34/130
f 144/24/124 118/25/123 137/34/130 147/31/129
f 120/10/110 113/11/109 136/14/112 139/13/111
f 107/43/141 144/24/124 147/31/129 135/44/142
f 106/45/143 143/16/116 146/23/121 129/46/144
f 108/47/145 145/32/132 142/39/138 100/48/146
f 135/44/142 147/31/129 145/32/132 108/47/145
f 129/46/144 146/23/121 144/24/124 107/43/141
f 99/49/147 141/15/113 143/16/116 106/45/143
f 172/1/148 160/2/149 151/3/150 161/4/151
f 152/5/152 166/6/153 163/7/154 150/8/155
f 182/9/156 169/10/157 162/11/158 179/12/159
f 188/13/160 172/1/148 161/4/151 185/14/161
f 190/15/162 192/16/163 164/17/164 154/18/165
f 154/18/165 164/17/164 165/19/166 153/20/167
f 173/21/168 175/22/169 166/6/153 152/5/152
f 195/23/170 193/24/171 167/25/172 180/26/173
f 180/26/173 167/25/172 168/27/174 181/28/175
f 183/29/176 176/30/177 169/10/157 182/9/156
f 196/31/178 194/32/179 170/33/180 186/34/181
f 186/34/181 170/33/180 171/35/182 187/36/183
f 189/37/184 177/38/185 172/1/148 188/13/160
f 194/32/179 191/39/186 158/40/187 170/33/180
f 170/33/180 158/40/187 159/41/188 171/35/182
f 177/38/185 174/42/189 160/2/149 172/1/148
f 171/35/182 159/41/188 174/42/189 177/38/185
f 187/36/183 171/35/182 177/38/185 189/37/184
f 181/28/175 168/27/174 176/30/177 183/29/176
f 153/20/167 165/19/166 175/22/169 173/21/168
f 165/19/166 181/28/175 183/29/176 175/22/169
f 175/22/169 183/29/176 182/9/156 166/6/153
f 164/17/164 180/26/173 181/28/175 165/19/166
f 192/16/163 195/23/170 180/26/173 164/17/164
f 166/6/153 182/9/156 179/12/159 163/7/154
f 168/27/174 187/36/183 189/37/184 176/30/177
f 176/30/177 189/37/184 188/13/160 169/10/157
f 167/25/172 186/34/181 187/36/183 168/27/174
f 193/24/171 196/31/178 186/34/181 167/25/172
f 169/10/157 188/13/160 185/14/161 162/11/158
f 156/43/190 184/44/191 196/31/178 193/24/171
f 155/45/192 178/46/193 195/23/170 192/16/163
f 157/47/194 149/48/195 191/39/186 194/32/179
f 184/44/191 157/47/194 194/32/179 196/31/178
f 178/46/193 156/43/190 193/24/171 195/23/170
f 148/49/196 155/45/192 192/16/163 190/15/162
f 99/49/147 148/49/196 190/15/162 141/15/113
f 100/48/146 149/48/195 157/47/194 108/47/145
f 102/3/101 151/3/150 160/2/149 111/2/102
f 101/8/104 150/8/155 163/7/154 114/7/105
f 103/5/103 152/5/152 150/8/155 101/8/104
f 104/20/117 153/20/167 173/21/168 124/21/119
f 105/18/114 154/18/165 153/20/167 104/20/117
f 106/45/143 155/45/192 148/49/196 99/49/147
f 107/43/141 156/43/190 178/46/193 129/46/144
f 108/47/145 157/47/194 184/44/191 135/44/142
f 109/40/137 158/40/187 191/39/186 142/39/138
f 110/41/139 159/41/188 158/40/187 109/40/137
f 111/2/102 160/2/149 174/42/189 125/42/140
f 112/4/100 161/4/151 151/3/150 102/3/101
f 113/11/109 162/11/158 185/14/161 136/14/112
f 114/7/105 163/7/154 179/12/159 130/12/108
f 124/21/119 173/21/168 152/5/152 103/5/103
f 125/42/140 174/42/189 159/41/188 110/41/139
f 129/46/144 178/46/193 155/45/192 106/45/143
f 130/12/108 179/12/159 162/11/158 113/11/109
f 135/44/142 184/44/191 156/43/190 107/43/141
f 136/14/112 185/14/161 161/4/151 112/4/100
f 141/15/113 190/15/162 154/18/165 105/18/114
f 142/39/138 191/39/186 149/48/195 100/48/146
