# Blender 4.1.1
# www.blender.org
mtllib glasses_5_lenses.mtl
o Plane
v 0.014516 -0.012146 0.002259
v 0.065782 -0.012319 0.000353
v 0.008954 0.011999 0.002059
v 0.069481 0.013462 0.000128
v 0.008984 0.006367 0.001995
v 0.008960 0.002539 0.002011
v 0.009855 -0.003551 0.002086
v 0.024100 -0.015663 0.001818
v 0.038877 -0.015573 0.001907
v 0.054017 -0.015517 0.001075
v 0.068695 -0.003369 0.000173
v 0.069265 0.002766 0.000087
v 0.069414 0.006916 0.000059
v 0.054297 0.015804 0.001090
v 0.039141 0.016066 0.001975
v 0.024218 0.015515 0.001582
v 0.023744 -0.005007 0.002246
v 0.023626 0.000953 0.002118
v 0.023873 0.006165 0.001996
v 0.038725 -0.004895 0.002825
v 0.038758 0.001065 0.002925
v 0.038920 0.006272 0.002735
v 0.053954 -0.004860 0.001629
v 0.054002 0.001097 0.001650
v 0.054154 0.006306 0.001517
v 0.014514 -0.012143 0.001959
v 0.065756 -0.012309 0.000054
v 0.008950 0.011992 0.001759
v 0.069457 0.013456 -0.000171
v 0.008982 0.006361 0.001695
v 0.008962 0.002534 0.001711
v 0.009856 -0.003553 0.001786
v 0.024102 -0.015650 0.001518
v 0.038871 -0.015553 0.001608
v 0.053995 -0.015502 0.000776
v 0.068667 -0.003365 -0.000126
v 0.069236 0.002764 -0.000211
v 0.069387 0.006911 -0.000239
v 0.054274 0.015791 0.000791
v 0.039136 0.016047 0.001675
v 0.024223 0.015502 0.001283
v 0.023749 -0.005002 0.001946
v 0.023634 0.000948 0.001818
v 0.023880 0.006155 0.001696
v 0.038719 -0.004885 0.002525
v 0.038753 0.001061 0.002625
v 0.038916 0.006258 0.002436
v 0.053929 -0.004851 0.001330
v 0.053975 0.001095 0.001352
v 0.054130 0.006297 0.001218
v -0.014516 -0.012146 0.002259
v -0.065782 -0.012319 0.000353
v -0.008954 0.011999 0.002059
v -0.069481 0.013462 0.000128
v -0.008984 0.006367 0.001995
v -0.008960 0.002539 0.002011
v -0.009855 -0.003551 0.002086
v -0.024100 -0.015663 0.001818
v -0.038877 -0.015573 0.001907
v -0.054017 -0.015517 0.001075
v -0.068695 -0.003369 0.000173
v -0.069265 0.002766 0.000087
v -0.069414 0.006916 0.000059
v -0.054297 0.015804 0.001090
v -0.039141 0.016066 0.001975
v -0.024218 0.015515 0.001582
v -0.023744 -0.005007 0.002246
v -0.023626 0.000953 0.002118
v -0.023873 0.006165 0.001996
v -0.038725 -0.004895 0.002825
v -0.038758 0.001065 0.002925
v -0.038920 0.006272 0.002735
v -0.053954 -0.004860 0.001629
v -0.054002 0.001097 0.001650
v -0.054154 0.006306 0.001517
v -0.014514 -0.012143 0.001959
v -0.065756 -0.012309 0.000054
v -0.008950 0.011992 0.001759
v -0.069457 0.013456 -0.000171
v -0.008982 0.006361 0.001695
v -0.008962 0.002534 0.001711
v -0.009856 -0.003553 0.001786
v -0.024102 -0.015650 0.001518
v -0.038871 -0.015553 0.001608
v -0.053995 -0.015502 0.000776
v -0.068667 -0.003365 -0.000126
v -0.069236 0.002764 -0.000211
v -0.069387 0.006911 -0.000239
v -0.054274 0.015791 0.000791
v -0.039136 0.016047 0.001675
v -0.024223 0.015502 0.001283
v -0.023749 -0.005002 0.001946
v -0.023634 0.000948 0.001818
v -0.023880 0.006155 0.001696
v -0.038719 -0.004885 0.002525
v -0.038753 0.001061 0.002625
v -0.038916 0.006258 0.002436
v -0.053929 -0.004851 0.001330
v -0.053975 0.001095 0.001352
v -0.054130 0.006297 0.001218
vn 0.0823 0.0310 0.9961
vn 0.7712 -0.0038 0.6366
vn 0.6590 0.5401 0.5234
vn 0.1111 0.7460 0.6566
vn -0.7040 0.0136 0.7101
vn -0.0201 0.0330 0.9993
vn -0.1070 0.7550 0.6469
vn -0.6229 0.5182 0.5861
vn 0.0154 0.0457 0.9988
vn 0.0042 0.7423 0.6701
vn -0.4972 -0.5892 0.6369
vn -0.1355 -0.7613 0.6341
vn -0.0161 -0.0143 0.9998
vn -0.7060 -0.2308 0.6696
vn -0.0265 0.0163 0.9995
vn -0.7248 -0.0395 0.6878
vn 0.0185 -0.7419 0.6702
vn 0.0195 -0.0350 0.9992
vn 0.0157 0.0130 0.9998
vn 0.1479 -0.7592 0.6339
vn 0.0835 -0.0281 0.9961
vn 0.0899 0.0079 0.9959
vn 0.5925 -0.5901 0.5483
vn 0.7752 -0.1568 0.6120
vn 0.7768 -0.0407 0.6284
vn -0.0823 -0.0310 -0.9961
vn 0.0073 0.6910 -0.7228
vn 0.5713 0.5097 -0.6432
vn 0.6428 -0.0290 -0.7655
vn -0.7077 -0.0135 -0.7064
vn -0.6439 0.4837 -0.5928
vn -0.0831 0.6855 -0.7233
vn 0.0201 -0.0330 -0.9993
vn -0.0191 0.6819 -0.7312
vn -0.0154 -0.0457 -0.9988
vn -0.5131 -0.5792 -0.6334
vn -0.7031 -0.2383 -0.6700
vn 0.0161 0.0143 -0.9998
vn -0.1199 -0.7015 -0.7025
vn -0.7185 -0.0618 -0.6928
vn 0.0266 -0.0163 -0.9995
vn -0.0195 0.0350 -0.9992
vn -0.0135 -0.6693 -0.7429
vn -0.0157 -0.0130 -0.9998
vn -0.0836 0.0281 -0.9961
vn 0.0438 -0.6942 -0.7185
vn -0.0900 -0.0079 -0.9959
vn 0.6488 -0.1396 -0.7481
vn 0.4887 -0.5529 -0.6749
vn 0.6403 -0.0520 -0.7664
vn -0.0823 0.0310 0.9961
vn -0.1111 0.7460 0.6566
vn -0.6590 0.5401 0.5234
vn -0.7712 -0.0038 0.6366
vn 0.7040 0.0136 0.7101
vn 0.6229 0.5182 0.5861
vn 0.1070 0.7550 0.6469
vn 0.0201 0.0330 0.9993
vn -0.0042 0.7423 0.6701
vn -0.0154 0.0457 0.9988
vn 0.4972 -0.5892 0.6369
vn 0.7060 -0.2308 0.6696
vn 0.0161 -0.0143 0.9998
vn 0.1355 -0.7613 0.6341
vn 0.7248 -0.0395 0.6878
vn 0.0265 0.0163 0.9995
vn -0.0195 -0.0350 0.9992
vn -0.0185 -0.7419 0.6702
vn -0.0157 0.0130 0.9998
vn -0.0835 -0.0281 0.9961
vn -0.1479 -0.7592 0.6339
vn -0.0899 0.0079 0.9959
vn -0.7752 -0.1568 0.6120
vn -0.5925 -0.5901 0.5483
vn -0.7768 -0.0407 0.6284
vn 0.0823 -0.0310 -0.9961
vn -0.6428 -0.0290 -0.7655
vn -0.5713 0.5097 -0.6432
vn -0.0073 0.6910 -0.7228
vn 0.7077 -0.0135 -0.7064
vn -0.0201 -0.0330 -0.9993
vn 0.0831 0.6855 -0.7233
vn 0.6439 0.4837 -0.5928
vn 0.0154 -0.0457 -0.9988
vn 0.0191 0.6819 -0.7312
vn 0.5131 -0.5792 -0.6334
vn 0.1199 -0.7015 -0.7025
vn -0.0161 0.0143 -0.9998
vn 0.7031 -0.2383 -0.6700
vn -0.0266 -0.0163 -0.9995
vn 0.7185 -0.0618 -0.6928
vn 0.0135 -0.6693 -0.7429
vn 0.0195 0.0350 -0.9992
vn 0.0157 -0.0130 -0.9998
vn -0.0438 -0.6942 -0.7185
vn 0.0836 0.0281 -0.9961
vn 0.0900 -0.0079 -0.9959
vn -0.4887 -0.5529 -0.6749
vn -0.6488 -0.1396 -0.7481
vn -0.6403 -0.0520 -0.7664
vt 0.750000 0.750000
vt 1.000000 0.750000
vt 1.000000 1.000000
vt 0.750000 1.000000
vt 0.000000 0.750000
vt 0.250000 0.750000
vt 0.250000 1.000000
vt 0.000000 1.000000
vt 0.500000 0.750000
vt 0.500000 1.000000
vt 0.000000 0.000000
vt 0.250000 0.000000
vt 0.250000 0.250000
vt 0.000000 0.250000
vt 0.250000 0.500000
vt 0.000000 0.500000
vt 0.500000 0.000000
vt 0.500000 0.250000
vt 0.500000 0.500000
vt 0.750000 0.000000
vt 0.750000 0.250000
vt 0.750000 0.500000
vt 1.000000 0.000000
vt 1.000000 0.250000
vt 1.000000 0.500000
s 1
usemtl Material.009
f 25/1/1 13/2/2 4/3/3 14/4/4
f 5/5/5 19/6/6 16/7/7 3/8/8
f 19/6/6 22/9/9 15/10/10 16/7/7
f 22/9/9 25/1/1 14/4/4 15/10/10
f 1/11/11 8/12/12 17/13/13 7/14/14
f 7/14/14 17/13/13 18/15/15 6/16/16
f 6/16/16 18/15/15 19/6/6 5/5/5
f 8/12/12 9/17/17 20/18/18 17/13/13
f 17/13/13 20/18/18 21/19/19 18/15/15
f 18/15/15 21/19/19 22/9/9 19/6/6
f 9/17/17 10/20/20 23/21/21 20/18/18
f 20/18/18 23/21/21 24/22/22 21/19/19
f 21/19/19 24/22/22 25/1/1 22/9/9
f 10/20/20 2/23/23 11/24/24 23/21/21
f 23/21/21 11/24/24 12/25/25 24/22/22
f 24/22/22 12/25/25 13/2/2 25/1/1
f 50/1/26 39/4/27 29/3/28 38/2/29
f 30/5/30 28/8/31 41/7/32 44/6/33
f 44/6/33 41/7/32 40/10/34 47/9/35
f 47/9/35 40/10/34 39/4/27 50/1/26
f 26/11/36 32/14/37 42/13/38 33/12/39
f 32/14/37 31/16/40 43/15/41 42/13/38
f 31/16/40 30/5/30 44/6/33 43/15/41
f 33/12/39 42/13/38 45/18/42 34/17/43
f 42/13/38 43/15/41 46/19/44 45/18/42
f 43/15/41 44/6/33 47/9/35 46/19/44
f 34/17/43 45/18/42 48/21/45 35/20/46
f 45/18/42 46/19/44 49/22/47 48/21/45
f 46/19/44 47/9/35 50/1/26 49/22/47
f 35/20/46 48/21/45 36/24/48 27/23/49
f 48/21/45 49/22/47 37/25/50 36/24/48
f 49/22/47 50/1/26 38/2/29 37/25/50
f 1/11/11 7/14/14 32/14/37 26/11/36
f 2/23/23 10/20/20 35/20/46 27/23/49
f 4/3/3 13/2/2 38/2/29 29/3/28
f 3/8/8 16/7/7 41/7/32 28/8/31
f 5/5/5 3/8/8 28/8/31 30/5/30
f 6/16/16 5/5/5 30/5/30 31/16/40
f 7/14/14 6/16/16 31/16/40 32/14/37
f 8/12/12 1/11/11 26/11/36 33/12/39
f 9/17/17 8/12/12 33/12/39 34/17/43
f 10/20/20 9/17/17 34/17/43 35/20/46
f 11/24/24 2/23/23 27/23/49 36/24/48
f 12/25/25 11/24/24 36/24/48 37/25/50
f 13/2/2 12/25/25 37/25/50 38/2/29
f 14/4/4 4/3/3 29/3/28 39/4/27
f 15/10/10 14/4/4 39/4/27 40/10/34
f 16/7/7 15/10/10 40/10/34 41/7/32
f 75/1/51 64/4/52 54/3/53 63/2/54
f 55/5/55 53/8/56 66/7/57 69/6/58
f 69/6/58 66/7/57 65/10/59 72/9/60
f 72/9/60 65/10/59 64/4/52 75/1/51
f 51/11/61 57/14/62 67/13/63 58/12/64
f 57/14/62 56/16/65 68/15/66 67/13/63
f 56/16/65 55/5/55 69/6/58 68/15/66
f 58/12/64 67/13/63 70/18/67 59/17/68
f 67/13/63 68/15/66 71/19/69 70/18/67
f 68/15/66 69/6/58 72/9/60 71/19/69
f 59/17/68 70/18/67 73/21/70 60/20/71
f 70/18/67 71/19/69 74/22/72 73/21/70
f 71/19/69 72/9/60 75/1/51 74/22/72
f 60/20/71 73/21/70 61/24/73 52/23/74
f 73/21/70 74/22/72 62/25/75 61/24/73
f 74/22/72 75/1/51 63/2/54 62/25/75
f 100/1/76 88/2/77 79/3/78 89/4/79
f 80/5/80 94/6/81 91/7/82 78/8/83
f 94/6/81 97/9/84 90/10/85 91/7/82
f 97/9/84 100/1/76 89/4/79 90/10/85
f 76/11/86 83/12/87 92/13/88 82/14/89
f 82/14/89 92/13/88 93/15/90 81/16/91
f 81/16/91 93/15/90 94/6/81 80/5/80
f 83/12/87 84/17/92 95/18/93 92/13/88
f 92/13/88 95/18/93 96/19/94 93/15/90
f 93/15/90 96/19/94 97/9/84 94/6/81
f 84/17/92 85/20/95 98/21/96 95/18/93
f 95/18/93 98/21/96 99/22/97 96/19/94
f 96/19/94 99/22/97 100/1/76 97/9/84
f 85/20/95 77/23/98 86/24/99 98/21/96
f 98/21/96 86/24/99 87/25/100 99/22/97
f 99/22/97 87/25/100 88/2/77 100/1/76
f 51/11/61 76/11/86 82/14/89 57/14/62
f 52/23/74 77/23/98 85/20/95 60/20/71
f 54/3/53 79/3/78 88/2/77 63/2/54
f 53/8/56 78/8/83 91/7/82 66/7/57
f 55/5/55 80/5/80 78/8/83 53/8/56
f 56/16/65 81/16/91 80/5/80 55/5/55
f 57/14/62 82/14/89 81/16/91 56/16/65
f 58/12/64 83/12/87 76/11/86 51/11/61
f 59/17/68 84/17/92 83/12/87 58/12/64
f 60/20/71 85/20/95 84/17/92 59/17/68
f 61/24/73 86/24/99 77/23/98 52/23/74
f 62/25/75 87/25/100 86/24/99 61/24/73
f 63/2/54 88/2/77 87/25/100 62/25/75
f 64/4/52 89/4/79 79/3/78 54/3/53
f 65/10/59 90/10/85 89/4/79 64/4/52
f 66/7/57 91/7/82 90/10/85 65/10/59
